# Blender v3.1.2 OBJ File: 'button_1-Blender3.1.2.blend'
# www.blender.org
mtllib button_mesh.mtl
o botton_body_Cube.002
v 0.001630 -0.003334 0.001116
v 0.000577 0.002172 -0.003904
v 0.001630 0.000995 0.001116
v -0.001630 -0.003334 0.001116
v 0.001725 0.002172 -0.003549
v -0.001630 0.000995 0.001116
v 0.001630 -0.003334 -0.001116
v 0.002065 0.002172 -0.003363
v 0.001630 0.000995 -0.001116
v -0.001630 -0.003334 -0.001116
v 0.002385 0.002172 -0.003144
v -0.001630 0.000995 -0.001116
v -0.003304 -0.003334 0.002825
v 0.002681 0.002172 -0.002896
v 0.003304 -0.003334 0.002825
v 0.003304 0.000995 0.002825
v 0.002952 0.002172 -0.002619
v -0.003304 0.000995 0.002825
v 0.003195 0.002172 -0.002317
v -0.003304 -0.003334 -0.002825
v -0.003304 0.000995 -0.002825
v 0.003407 0.002172 -0.001993
v 0.003304 -0.003334 -0.002825
v 0.003304 0.000995 -0.002825
v -0.004343 -0.003334 -0.004343
v 0.003839 0.002172 -0.000914
v -0.004343 -0.003334 0.004343
v 0.004343 -0.003334 -0.004343
v 0.003910 0.002172 -0.000534
v 0.004343 -0.003334 0.004343
v -0.003803 -0.003334 -0.006386
v 0.003944 0.002172 -0.000148
v -0.006386 -0.003334 -0.003803
v -0.004559 -0.003334 -0.004559
v 0.003939 0.002172 0.000239
v -0.004207 -0.003334 -0.006354
v -0.004601 -0.003334 -0.006259
v 0.003897 0.002172 0.000624
v -0.004975 -0.003334 -0.006104
v -0.005321 -0.003334 -0.005892
v 0.003817 0.002172 0.001003
v -0.005629 -0.003334 -0.005629
v 0.003700 0.002172 0.001373
v -0.005892 -0.003334 -0.005321
v -0.006104 -0.003334 -0.004975
v 0.003548 0.002172 0.001729
v -0.006259 -0.003334 -0.004601
v -0.006354 -0.003334 -0.004207
v -0.006386 -0.003334 0.003803
v 0.002791 0.002172 0.002791
v -0.003803 -0.003334 0.006386
v -0.004559 -0.003334 0.004559
v 0.002504 0.002172 0.003051
v -0.006354 -0.003334 0.004207
v 0.002193 0.002172 0.003281
v -0.006259 -0.003334 0.004601
v -0.006104 -0.003334 0.004975
v -0.005892 -0.003334 0.005321
v 0.001860 0.002172 0.003481
v -0.005629 -0.003334 0.005629
v -0.005321 -0.003334 0.005892
v 0.001510 0.002172 0.003646
v -0.004975 -0.003334 0.006104
v 0.001146 0.002172 0.003777
v -0.004601 -0.003334 0.006259
v -0.004207 -0.003334 0.006354
v 0.000770 0.002172 0.003871
v 0.006386 -0.003334 -0.003803
v 0.003803 -0.003334 -0.006386
v 0.004559 -0.003334 -0.004559
v 0.000387 0.002172 0.003928
v 0.006354 -0.003334 -0.004207
v -0.000000 0.002172 0.003947
v 0.006259 -0.003334 -0.004601
v 0.006104 -0.003334 -0.004975
v -0.000387 0.002172 0.003928
v 0.005892 -0.003334 -0.005321
v 0.005629 -0.003334 -0.005629
v 0.005321 -0.003334 -0.005892
v -0.000770 0.002172 0.003871
v 0.004975 -0.003334 -0.006104
v 0.004601 -0.003334 -0.006259
v -0.001146 0.002172 0.003777
v 0.004207 -0.003334 -0.006354
v 0.003803 -0.003334 0.006386
v -0.001510 0.002172 0.003646
v 0.006386 -0.003334 0.003803
v -0.001860 0.002172 0.003481
v 0.004559 -0.003334 0.004559
v 0.004207 -0.003334 0.006354
v -0.002193 0.002172 0.003281
v 0.004601 -0.003334 0.006259
v 0.004975 -0.003334 0.006104
v -0.002504 0.002172 0.003051
v 0.005321 -0.003334 0.005892
v 0.005629 -0.003334 0.005629
v -0.002711 0.002172 0.002844
v 0.005892 -0.003334 0.005321
v 0.006104 -0.003334 0.004975
v -0.003023 0.002172 -0.002537
v 0.006259 -0.003334 0.004601
v 0.006354 -0.003334 0.004207
v -0.002760 0.002172 -0.002821
v -0.003280 0.003382 0.003280
v -0.003280 0.003382 -0.003280
v -0.002470 0.002172 -0.003078
v 0.003280 0.003382 -0.003280
v 0.003280 0.003382 0.003280
v -0.003444 0.003382 -0.003444
v -0.002156 0.002172 -0.003305
v -0.002872 0.003385 -0.004823
v -0.000961 0.002172 -0.003828
v -0.003177 0.003385 -0.004799
v -0.003475 0.003385 -0.004727
v -0.000581 0.002172 -0.003903
v -0.003758 0.003385 -0.004610
v -0.004019 0.003385 -0.004450
v -0.000196 0.002172 -0.003942
v -0.004252 0.003385 -0.004252
v -0.004450 0.003385 -0.004019
v 0.000191 0.002172 -0.003942
v -0.004610 0.003385 -0.003758
v -0.004727 0.003385 -0.003475
v 0.000402 0.002172 -0.002720
v -0.004799 0.003385 -0.003177
v -0.004823 0.003385 -0.002872
v 0.001202 0.002172 -0.002472
v -0.003444 0.003382 0.003444
v -0.004823 0.003385 0.002872
v 0.001438 0.002172 -0.002343
v -0.004799 0.003385 0.003177
v -0.004727 0.003385 0.003475
v 0.001661 0.002172 -0.002190
v -0.004610 0.003385 0.003758
v -0.004450 0.003385 0.004019
v 0.001868 0.002172 -0.002017
v -0.004252 0.003385 0.004252
v -0.004019 0.003385 0.004450
v 0.002057 0.002172 -0.001824
v -0.003758 0.003385 0.004610
v -0.003475 0.003385 0.004727
v 0.002225 0.002172 -0.001614
v -0.003177 0.003385 0.004799
v -0.002872 0.003385 0.004823
v 0.003444 0.003382 -0.003444
v 0.002373 0.002172 -0.001388
v 0.004823 0.003385 -0.002872
v 0.002674 0.002172 -0.000637
v 0.004799 0.003385 -0.003177
v 0.004727 0.003385 -0.003475
v 0.004610 0.003385 -0.003758
v 0.002724 0.002172 -0.000372
v 0.004450 0.003385 -0.004019
v 0.002747 0.002172 -0.000103
v 0.004252 0.003385 -0.004252
v 0.004019 0.003385 -0.004450
v 0.002744 0.002172 0.000167
v 0.003758 0.003385 -0.004610
v 0.003475 0.003385 -0.004727
v 0.002714 0.002172 0.000435
v 0.003177 0.003385 -0.004799
v 0.002872 0.003385 -0.004823
v 0.003444 0.003382 0.003444
v 0.002659 0.002172 0.000699
v 0.002872 0.003385 0.004823
v 0.002577 0.002172 0.000956
v 0.003177 0.003385 0.004799
v 0.003475 0.003385 0.004727
v 0.003758 0.003385 0.004610
v 0.002471 0.002172 0.001204
v 0.004019 0.003385 0.004450
v 0.004252 0.003385 0.004252
v 0.001944 0.002172 0.001944
v 0.004450 0.003385 0.004019
v 0.001744 0.002172 0.002125
v 0.004610 0.003385 0.003758
v 0.004727 0.003385 0.003475
v 0.001527 0.002172 0.002286
v 0.004799 0.003385 0.003177
v 0.004823 0.003385 0.002872
v 0.001296 0.002172 0.002424
v -0.003751 0.000995 -0.003751
v -0.003751 0.000995 0.003751
v 0.003751 0.000995 -0.003751
v 0.001052 0.002172 0.002540
v 0.003751 0.000995 0.003751
v 0.000798 0.002172 0.002631
v 0.000536 0.002172 0.002696
v 0.000269 0.002172 0.002736
v -0.000000 0.002172 0.002749
v -0.000269 0.002172 0.002736
v -0.000536 0.002172 0.002696
v -0.000798 0.002172 0.002631
v -0.001052 0.002172 0.002540
v -0.001296 0.002172 0.002424
v -0.001484 0.002172 0.002345
v -0.001612 0.002172 0.002244
v -0.001716 0.002172 0.002117
v -0.002106 0.002172 -0.001767
v -0.001922 0.002172 -0.001965
v -0.001720 0.002172 -0.002144
v -0.001502 0.002172 -0.002302
v -0.000670 0.002172 -0.002666
v -0.000405 0.002172 -0.002719
v -0.000136 0.002172 -0.002746
v 0.000133 0.002172 -0.002746
v -0.003586 0.002172 0.000522
v -0.003432 0.002172 0.000421
v -0.003450 0.002172 0.003360
v -0.000811 0.002172 0.001519
v -0.003887 0.002172 0.002765
v -0.001271 0.002172 0.000970
v -0.002191 0.003382 -0.003280
v -0.000824 0.003382 -0.003280
v -0.002140 0.003382 -0.003280
v -0.002156 0.003382 -0.003305
v 0.000485 0.003382 -0.003280
v 0.001595 0.003382 -0.003280
v 0.002186 0.003382 -0.003280
v -0.000961 0.003383 -0.003828
v -0.000196 0.003383 -0.003942
v -0.000581 0.003383 -0.003903
v 0.000577 0.003383 -0.003904
v 0.001725 0.003382 -0.003549
v 0.002065 0.003382 -0.003363
v 0.000191 0.003383 -0.003942
v 0.003407 0.003382 -0.001993
v 0.003280 0.003382 0.001599
v 0.003280 0.003382 -0.000781
v 0.003280 0.003382 -0.001919
v 0.003280 0.003382 -0.002186
v 0.003548 0.003382 0.001729
v 0.003700 0.003383 0.001373
v 0.003817 0.003383 0.001003
v 0.003839 0.003383 -0.000914
v 0.003944 0.003383 -0.000148
v 0.003939 0.003383 0.000239
v 0.003897 0.003383 0.000624
v 0.003910 0.003383 -0.000534
v -0.003887 0.003383 0.002765
v -0.003450 0.003382 0.003360
v -0.003290 0.003382 0.003290
v -0.003322 0.003382 0.000447
v -0.003586 0.003382 0.000522
v -0.003432 0.003382 0.000421
v -0.003278 0.003382 0.003280
v -0.002194 0.003382 0.003280
v -0.002193 0.003382 0.003281
v 0.002194 0.003382 0.003280
v 0.002193 0.003382 0.003281
v -0.001860 0.003382 0.003481
v -0.001510 0.003383 0.003646
v -0.000770 0.003383 0.003871
v -0.001146 0.003383 0.003777
v 0.000387 0.003383 0.003928
v -0.000000 0.003383 0.003947
v 0.001146 0.003383 0.003777
v 0.001860 0.003382 0.003481
v 0.001510 0.003383 0.003646
v 0.000770 0.003383 0.003871
v -0.000387 0.003383 0.003928
v -0.002760 0.003382 -0.002821
v -0.002470 0.003382 -0.003078
v -0.001922 0.003382 -0.001965
v -0.001720 0.003382 -0.002144
v -0.001502 0.003382 -0.002302
v -0.000670 0.003382 -0.002666
v -0.000405 0.003382 -0.002719
v 0.000402 0.003382 -0.002720
v 0.000133 0.003382 -0.002746
v -0.000136 0.003382 -0.002746
v 0.001438 0.003382 -0.002343
v 0.001202 0.003382 -0.002472
v 0.001868 0.003382 -0.002017
v 0.001661 0.003382 -0.002190
v 0.002225 0.003382 -0.001614
v 0.002577 0.003382 0.000956
v 0.002659 0.003382 0.000699
v 0.002674 0.003382 -0.000637
v 0.002373 0.003382 -0.001388
v 0.002744 0.003382 0.000167
v 0.002747 0.003382 -0.000103
v 0.003195 0.003382 -0.002317
v 0.002724 0.003382 -0.000372
v 0.002952 0.003382 -0.002619
v 0.002471 0.003382 0.001204
v 0.002714 0.003382 0.000435
v 0.002057 0.003382 -0.001824
v 0.002681 0.003382 -0.002896
v 0.002385 0.003382 -0.003144
v -0.003023 0.003382 -0.002537
v -0.002504 0.003382 0.003051
v -0.002711 0.003382 0.002844
v -0.001296 0.003382 0.002424
v -0.001052 0.003382 0.002540
v -0.000811 0.003382 0.001519
v -0.001271 0.003382 0.000970
v -0.001484 0.003382 0.002345
v -0.001612 0.003382 0.002244
v -0.001716 0.003382 0.002117
v -0.002106 0.003382 -0.001767
v 0.000798 0.003382 0.002631
v 0.001296 0.003382 0.002424
v 0.001744 0.003382 0.002125
v 0.001527 0.003382 0.002286
v 0.002504 0.003382 0.003051
v 0.002791 0.003382 0.002791
v 0.001944 0.003382 0.001944
v 0.001052 0.003382 0.002540
v -0.000000 0.003382 0.002749
v 0.000269 0.003382 0.002736
v 0.000536 0.003382 0.002696
v -0.000269 0.003382 0.002736
v -0.000536 0.003382 0.002696
v -0.000798 0.003382 0.002631
vt 0.375000 0.000000
vt 0.375000 0.250000
vt 0.625000 0.250000
vt 0.625000 0.000000
vt 0.375000 0.500000
vt 0.625000 0.500000
vt 0.375000 0.750000
vt 0.625000 0.750000
vt 0.375000 1.000000
vt 0.625000 1.000000
vt 0.375000 0.000000
vt 0.625000 0.000000
vt 0.625000 0.250000
vt 0.375000 0.250000
vt 0.625000 0.500000
vt 0.375000 0.500000
vt 0.625000 0.750000
vt 0.375000 0.750000
vt 0.625000 1.000000
vt 0.375000 1.000000
vt 0.000000 0.000000
vt 0.000000 0.000000
vt 0.000000 0.000000
vt 0.000000 0.000000
vt 0.324442 0.539894
vt 0.375000 0.504218
vt 0.375000 0.500000
vt 0.125000 0.500000
vt 0.125000 0.504218
vt 0.175558 0.539894
vt 0.000000 0.000000
vt 0.000000 0.000000
vt 0.000000 0.000000
vt 0.000000 0.000000
vt 0.000000 0.000000
vt 0.000000 0.000000
vt 0.000000 0.000000
vt 0.000000 0.000000
vt 0.000000 0.000000
vt 0.000000 0.000000
vt 0.000000 0.000000
vt 0.000000 0.000000
vt 0.000000 0.000000
vt 0.000000 0.000000
vt 0.375000 0.210106
vt 0.410750 0.210106
vt 0.375623 0.210106
vt 0.377475 0.210106
vt 0.380511 0.210106
vt 0.384656 0.210106
vt 0.389809 0.210106
vt 0.395842 0.210106
vt 0.402606 0.210106
vt 0.409936 0.210106
vt 0.417651 0.210106
vt 0.425560 0.210106
vt 0.574442 0.210106
vt 0.589250 0.210106
vt 0.582351 0.210106
vt 0.590065 0.210106
vt 0.597395 0.210106
vt 0.604159 0.210106
vt 0.610192 0.210106
vt 0.615344 0.210106
vt 0.619489 0.210106
vt 0.622526 0.210106
vt 0.624378 0.210106
vt 0.625000 0.210106
vt 0.375000 0.539894
vt 0.339250 0.539894
vt 0.374378 0.539894
vt 0.372525 0.539894
vt 0.369489 0.539894
vt 0.365344 0.539894
vt 0.360192 0.539894
vt 0.354159 0.539894
vt 0.347395 0.539894
vt 0.340065 0.539894
vt 0.332351 0.539894
vt 0.000000 0.000000
vt 0.000000 0.000000
vt 0.000000 0.000000
vt 0.000000 0.000000
vt 0.000000 0.000000
vt 0.000000 0.000000
vt 0.000000 0.000000
vt 0.000000 0.000000
vt 0.000000 0.000000
vt 0.310769 0.500000
vt 0.312362 0.506954
vt 0.327503 0.502137
vt 0.333294 0.500000
vt 0.375000 0.500000
vt 0.375000 0.504218
vt 0.324442 0.539894
vt 0.175558 0.539894
vt 0.125000 0.504218
vt 0.125000 0.500000
vt 0.166526 0.500000
vt 0.168201 0.500644
vt 0.168453 0.500000
vt 0.218612 0.500000
vt 0.217420 0.514154
vt 0.230660 0.516113
vt 0.243544 0.517101
vt 0.256305 0.517107
vt 0.269185 0.516131
vt 0.268468 0.500000
vt 0.000000 0.000000
vt 0.000000 0.000000
vt 0.000000 0.000000
vt 0.000000 0.000000
vt 0.000000 0.000000
vt 0.000000 0.000000
vt 0.000000 0.000000
vt 0.000000 0.000000
vt 0.000000 0.000000
vt 0.000000 0.000000
vt 0.000000 0.000000
vt 0.000000 0.000000
vt 0.000000 0.000000
vt 0.000000 0.000000
vt 0.000000 0.000000
vt 0.000000 0.000000
vt 0.000000 0.000000
vt 0.000000 0.000000
vt 0.000000 0.000000
vt 0.000000 0.000000
vt 0.000000 0.000000
vt 0.000000 0.000000
vt 0.000000 0.000000
vt 0.000000 0.000000
vt 0.000000 0.000000
vt 0.000000 0.000000
vt 0.000000 0.000000
vt 0.000000 0.000000
vt 0.000000 0.000000
vt 0.000000 0.000000
vt 0.000000 0.000000
vt 0.000000 0.000000
vt 0.000000 0.000000
vt 0.000000 0.000000
vt 0.000000 0.000000
vt 0.000000 0.000000
vt 0.000000 0.000000
vt 0.000000 0.000000
vt 0.000000 0.000000
vt 0.000000 0.000000
vt 0.000000 0.000000
vt 0.000000 0.000000
vt 0.000000 0.000000
vt 0.000000 0.000000
vt 0.000000 0.000000
vt 0.000000 0.000000
vt 0.000000 0.000000
vt 0.000000 0.000000
vt 0.000000 0.000000
vt 0.375000 0.210106
vt 0.375623 0.210106
vt 0.410750 0.210106
vt 0.377475 0.210106
vt 0.380511 0.210106
vt 0.384656 0.210106
vt 0.389809 0.210106
vt 0.395842 0.210106
vt 0.402606 0.210106
vt 0.409936 0.210106
vt 0.417651 0.210106
vt 0.425560 0.210106
vt 0.574442 0.210106
vt 0.582351 0.210106
vt 0.589250 0.210106
vt 0.590065 0.210106
vt 0.597395 0.210106
vt 0.604159 0.210106
vt 0.610192 0.210106
vt 0.615344 0.210106
vt 0.619489 0.210106
vt 0.622526 0.210106
vt 0.624378 0.210106
vt 0.625000 0.210106
vt 0.375000 0.539894
vt 0.374378 0.539894
vt 0.339250 0.539894
vt 0.372525 0.539894
vt 0.369489 0.539894
vt 0.365344 0.539894
vt 0.360192 0.539894
vt 0.354159 0.539894
vt 0.347395 0.539894
vt 0.340065 0.539894
vt 0.332351 0.539894
vt 0.000000 0.000000
vt 0.000000 0.000000
vt 0.000000 0.000000
vt 0.000000 0.000000
vt 0.000000 0.000000
vt 0.000000 0.000000
vt 0.000000 0.000000
vt 0.000000 0.000000
vt 0.000000 0.000000
vt 0.000000 0.000000
vt 0.000000 0.000000
vt 0.000000 0.000000
vt 0.374235 0.500000
vt 0.125765 0.500000
vt 0.000000 0.000000
vt 0.000000 0.000000
vt 0.000000 0.000000
vt 0.000000 0.000000
vt 0.000000 0.000000
vt 0.000000 0.000000
vt 0.000000 0.000000
vt 0.000000 0.000000
vt 0.000000 0.000000
vt 0.000000 0.000000
vt 0.000000 0.000000
vt 0.000000 0.000000
vt 0.000000 0.000000
vt 0.000000 0.000000
vt 0.000000 0.000000
vt 0.000000 0.000000
vt 0.000000 0.000000
vt 0.000000 0.000000
vt 0.000000 0.000000
vt 0.000000 0.000000
vt 0.000000 0.000000
vt 0.000000 0.000000
vt 0.000000 0.000000
vt 0.000000 0.000000
vt 0.000000 0.000000
vt 0.000000 0.000000
vt 0.000000 0.000000
vt 0.000000 0.000000
vt 0.000000 0.000000
vt 0.000000 0.000000
vt 0.000000 0.000000
vt 0.000000 0.000000
vt 0.000000 0.000000
vt 0.000000 0.000000
vt 0.000000 0.000000
vt 0.000000 0.000000
vt 0.000000 0.000000
vt 0.000000 0.000000
vt 0.000000 0.000000
vt 0.000000 0.000000
vt 0.000000 0.000000
vt 0.000000 0.000000
vt 0.000000 0.000000
vt 0.000000 0.000000
vt 0.000000 0.000000
vt 0.000000 0.000000
vt 0.000000 0.000000
vt 0.000000 0.000000
vt 0.000000 0.000000
vt 0.000000 0.000000
vt 0.000000 0.000000
vt 0.000000 0.000000
vt 0.000000 0.000000
vt 0.000000 0.000000
vt 0.000000 0.000000
vt 0.000000 0.000000
vt 0.000000 0.000000
vt 0.000000 0.000000
vt 0.000000 0.000000
vt 0.000000 0.000000
vt 0.000000 0.000000
vt 0.000000 0.000000
vt 0.000000 0.000000
vt 0.937500 0.500000
vt 0.953125 0.500000
vt 0.953125 0.760630
vt 0.937500 0.760547
vt 0.921875 0.500000
vt 0.931593 0.760509
vt 0.921875 0.760509
vt 0.906250 0.500000
vt 0.906250 0.760509
vt 0.890625 0.760509
vt 0.890625 0.500000
vt 0.875000 0.760509
vt 0.875000 0.500000
vt 0.859375 0.760566
vt 0.859375 0.500000
vt 0.868685 0.760509
vt 0.781250 0.760792
vt 0.781250 0.500000
vt 0.796875 0.500000
vt 0.796875 0.760760
vt 0.765625 0.760807
vt 0.765625 0.500000
vt 0.750000 0.760805
vt 0.750000 0.500000
vt 0.734375 0.760786
vt 0.734375 0.500000
vt 0.718750 0.760750
vt 0.718750 0.500000
vt 0.703125 0.760697
vt 0.703125 0.500000
vt 0.687500 0.760629
vt 0.687500 0.500000
vt 0.609375 0.760509
vt 0.609375 0.500000
vt 0.625000 0.500000
vt 0.625000 0.760510
vt 0.593750 0.760510
vt 0.593750 0.500000
vt 0.593817 0.760510
vt 0.578125 0.760599
vt 0.578125 0.500000
vt 0.562500 0.760673
vt 0.562500 0.500000
vt 0.546875 0.760732
vt 0.546875 0.500000
vt 0.531250 0.760774
vt 0.531250 0.500000
vt 0.515625 0.760799
vt 0.515625 0.500000
vt 0.500000 0.760808
vt 0.500000 0.500000
vt 0.484375 0.760799
vt 0.484375 0.500000
vt 0.468750 0.760774
vt 0.468750 0.500000
vt 0.453125 0.760732
vt 0.453125 0.500000
vt 0.437500 0.760673
vt 0.437500 0.500000
vt 0.421875 0.760599
vt 0.421875 0.500000
vt 0.406250 0.760510
vt 0.406250 0.500000
vt 0.390625 0.760509
vt 0.390625 0.500000
vt 0.406183 0.760509
vt 0.375000 0.760509
vt 0.375000 0.500000
vt 0.140625 0.500000
vt 0.156250 0.500000
vt 0.156250 0.760510
vt 0.140625 0.760509
vt 0.125000 0.500000
vt 0.125000 0.760509
vt 0.109375 0.500000
vt 0.111086 0.760510
vt 0.109375 0.760521
vt 0.046875 0.500000
vt 0.062500 0.500000
vt 0.062500 0.760755
vt 0.046875 0.760789
vt 0.031250 0.500000
vt 0.031250 0.760806
vt 0.015625 0.500000
vt 0.015625 0.760806
vt 0.000000 0.500000
vt 0.000000 0.760789
vt 0.953125 0.760509
vt 0.953125 0.500000
vt 0.937500 0.500000
vt 0.937500 0.760510
vt 0.921875 0.500000
vt 0.921875 0.760510
vt 0.906250 0.500000
vt 0.906250 0.760510
vt 0.890625 0.500000
vt 0.890625 0.760510
vt 0.875000 0.500000
vt 0.875000 0.760510
vt 0.859375 0.500000
vt 0.859375 0.760510
vt 0.796875 0.500000
vt 0.781250 0.500000
vt 0.781250 0.760510
vt 0.796875 0.760509
vt 0.765625 0.500000
vt 0.765625 0.760510
vt 0.750000 0.500000
vt 0.750000 0.760510
vt 0.734375 0.500000
vt 0.734375 0.760510
vt 0.718750 0.500000
vt 0.718750 0.760510
vt 0.703125 0.500000
vt 0.703125 0.760510
vt 0.687500 0.500000
vt 0.687500 0.760510
vt 0.625000 0.500000
vt 0.609375 0.500000
vt 0.609375 0.760510
vt 0.625000 0.760509
vt 0.593750 0.500000
vt 0.593750 0.760510
vt 0.578125 0.500000
vt 0.578125 0.760510
vt 0.562500 0.500000
vt 0.562500 0.760510
vt 0.546875 0.500000
vt 0.546875 0.760510
vt 0.531250 0.500000
vt 0.531250 0.760510
vt 0.515625 0.500000
vt 0.515625 0.760510
vt 0.500000 0.500000
vt 0.500000 0.760510
vt 0.484375 0.500000
vt 0.484375 0.760510
vt 0.468750 0.500000
vt 0.468750 0.760510
vt 0.453125 0.500000
vt 0.453125 0.760510
vt 0.437500 0.500000
vt 0.437500 0.760510
vt 0.421875 0.500000
vt 0.421875 0.760510
vt 0.406250 0.500000
vt 0.406250 0.760510
vt 0.390625 0.500000
vt 0.390625 0.760510
vt 0.375000 0.500000
vt 0.375000 0.760510
vt 0.156250 0.760509
vt 0.156250 0.500000
vt 0.140625 0.500000
vt 0.140625 0.760510
vt 0.125000 0.500000
vt 0.125000 0.760510
vt 0.109375 0.500000
vt 0.109375 0.760510
vt 0.062500 0.760510
vt 0.062500 0.500000
vt 0.046875 0.500000
vt 0.046875 0.760510
vt 0.031250 0.500000
vt 0.031250 0.760510
vt 0.015625 0.500000
vt 0.015625 0.760510
vt 0.000000 0.500000
vt 0.000000 0.760510
vt 0.000000 0.000000
vt 0.000000 0.000000
vt 0.000000 0.000000
vt 0.000000 0.000000
vt 0.375000 0.500000
vt 0.375000 0.500000
vt 0.375000 0.500000
vt 0.375000 0.500000
vt 0.375000 0.760509
vt 0.375000 0.500000
vt 0.375000 0.500000
vt 0.375000 0.760510
vt 0.375000 0.760554
vt 0.375000 0.760710
vt 0.000000 0.000000
vt 0.000000 0.000000
vt 0.375000 0.760509
vt 0.375000 0.760514
vt 0.000000 0.000000
vt 0.000000 0.000000
vt 0.000000 0.000000
vt 0.000000 0.000000
vt 0.000000 0.000000
vt 0.000000 0.000000
vt 0.000000 0.000000
vt 0.000000 0.000000
vt 0.000000 0.000000
vt 0.000000 0.000000
vt 0.000000 0.000000
vt 0.000000 0.000000
vt 0.000000 0.000000
vt 0.000000 0.000000
vt 0.000000 0.000000
vt 0.000000 0.000000
vt 0.000000 0.000000
vt 0.000000 0.000000
vt 0.000000 0.000000
vt 0.000000 0.000000
vt 0.000000 0.000000
vn -0.0000 0.0000 -1.0000
vn 1.0000 0.0000 -0.0000
vn 0.0000 0.0000 1.0000
vn -1.0000 0.0000 0.0000
vn 0.0000 -1.0000 0.0000
vn 0.0000 1.0000 0.0021
vn -0.0021 1.0000 -0.0000
vn 0.0022 1.0000 -0.0000
vn -0.0000 1.0000 -0.0021
vn 0.0000 1.0000 -0.0022
vn 0.0002 1.0000 0.0022
vn 0.0005 1.0000 0.0022
vn 0.0009 1.0000 0.0022
vn 0.0013 1.0000 0.0021
vn 0.0016 1.0000 0.0019
vn 0.0019 1.0000 0.0016
vn 0.0021 1.0000 0.0013
vn 0.0022 1.0000 0.0009
vn 0.0022 1.0000 0.0005
vn 0.0022 1.0000 0.0002
vn 0.0022 1.0000 -0.0002
vn 0.0022 1.0000 -0.0005
vn 0.0022 1.0000 -0.0009
vn 0.0021 1.0000 -0.0013
vn 0.0019 1.0000 -0.0016
vn 0.0016 1.0000 -0.0019
vn 0.0013 1.0000 -0.0021
vn 0.0009 1.0000 -0.0022
vn 0.0005 1.0000 -0.0022
vn 0.0002 1.0000 -0.0021
vn -0.0022 1.0000 0.0002
vn -0.0022 1.0000 0.0005
vn -0.0022 1.0000 0.0009
vn -0.0021 1.0000 0.0013
vn -0.0019 1.0000 0.0016
vn -0.0016 1.0000 0.0019
vn -0.0013 1.0000 0.0021
vn -0.0009 1.0000 0.0022
vn -0.0005 1.0000 0.0022
vn -0.0002 1.0000 0.0022
vn -0.0002 1.0000 -0.0022
vn -0.0005 1.0000 -0.0022
vn -0.0009 1.0000 -0.0022
vn -0.0013 1.0000 -0.0021
vn -0.0016 1.0000 -0.0019
vn -0.0019 1.0000 -0.0016
vn -0.0021 1.0000 -0.0013
vn -0.0022 1.0000 -0.0009
vn -0.0022 1.0000 -0.0005
vn -0.0022 1.0000 -0.0002
vn 0.8909 0.2649 -0.3690
vn 0.9409 0.2524 0.2259
vn -0.6239 0.2777 -0.7305
vn 0.0000 0.2265 0.9740
vn 0.8202 0.2734 -0.5026
vn 0.9688 0.2359 0.0762
vn -0.7305 0.2777 -0.6239
vn 0.9740 0.2265 0.0000
vn 0.7305 0.2777 -0.6239
vn -0.8202 0.2734 -0.5026
vn 0.6239 0.2777 -0.7305
vn -0.8909 0.2649 -0.3690
vn -0.9688 0.2359 0.0762
vn 0.5026 0.2734 -0.8201
vn -0.9409 0.2524 -0.2259
vn -0.9409 0.2524 0.2259
vn 0.3690 0.2649 -0.8909
vn -0.9688 0.2359 -0.0762
vn 0.0762 0.2359 0.9688
vn -0.8909 0.2649 0.3690
vn 0.2259 0.2524 -0.9409
vn 0.2259 0.2524 0.9409
vn -0.8201 0.2734 0.5026
vn 0.0762 0.2359 -0.9688
vn 0.3690 0.2649 0.8909
vn -0.7305 0.2777 0.6239
vn 0.5026 0.2734 0.8201
vn -0.6239 0.2777 0.7305
vn 0.6239 0.2777 0.7305
vn -0.0762 0.2359 -0.9688
vn -0.5026 0.2734 0.8201
vn 0.7305 0.2777 0.6239
vn -0.2259 0.2524 -0.9409
vn -0.3690 0.2649 0.8909
vn 0.9688 0.2359 -0.0762
vn 0.8201 0.2734 0.5026
vn -0.3690 0.2649 -0.8909
vn -0.2259 0.2524 0.9409
vn -0.9740 0.2265 0.0000
vn 0.9409 0.2524 -0.2259
vn 0.8909 0.2649 0.3690
vn -0.5026 0.2734 -0.8201
vn -0.0762 0.2359 0.9688
vn 0.0000 0.2265 -0.9740
vn -0.9908 -0.1355 -0.0000
vn 0.0000 -0.1355 -0.9908
vn 0.0000 -0.1355 0.9908
vn 0.9908 -0.1355 -0.0000
vn 0.0003 -1.0000 -0.0000
vn 0.0000 -1.0000 0.0001
vn 0.0000 1.0000 0.0000
vn 0.4808 0.0000 -0.8768
vn 0.5644 0.0000 -0.8255
vn 0.6426 0.0000 -0.7662
vn 0.7146 0.0000 -0.6995
vn 0.7798 0.0000 -0.6261
vn 0.8374 0.0000 -0.5466
vn 0.9830 0.0000 -0.1837
vn 0.9963 0.0000 -0.0864
vn 0.9999 0.0000 0.0116
vn 0.9940 0.0000 0.1096
vn 0.9784 0.0000 0.2065
vn 0.9535 0.0000 0.3014
vn 0.9194 0.0000 0.3934
vn 0.6716 0.0000 0.7410
vn 0.5957 0.0000 0.8032
vn 0.5141 0.0000 0.8577
vn 0.4276 0.0000 0.9040
vn 0.3369 0.0000 0.9415
vn 0.2430 0.0000 0.9700
vn 0.1467 0.0000 0.9892
vn 0.0491 0.0000 0.9988
vn -0.0491 0.0000 0.9988
vn -0.1467 0.0000 0.9892
vn -0.2430 0.0000 0.9700
vn -0.3369 0.0000 0.9415
vn -0.4276 0.0000 0.9040
vn -0.5141 0.0000 0.8577
vn -0.5957 0.0000 0.8032
vn -0.7067 0.0000 0.7075
vn -0.7335 0.0000 -0.6797
vn -0.6634 0.0000 -0.7483
vn -0.5868 0.0000 -0.8097
vn -0.1957 0.0000 -0.9807
vn -0.0986 0.0000 -0.9951
vn -0.0006 0.0000 -1.0000
vn 0.0974 0.0000 -0.9952
vn -0.4808 0.0000 0.8768
vn -0.5644 0.0000 0.8255
vn -0.6426 0.0000 0.7662
vn -0.7146 0.0000 0.6995
vn -0.7798 0.0000 0.6261
vn -0.8374 0.0000 0.5466
vn -0.9830 0.0000 0.1837
vn -0.9963 0.0000 0.0864
vn -0.9999 0.0000 -0.0116
vn -0.9940 0.0000 -0.1096
vn -0.9784 0.0000 -0.2065
vn -0.9535 0.0000 -0.3014
vn -0.9194 0.0000 -0.3934
vn -0.6716 0.0000 -0.7410
vn -0.5957 0.0000 -0.8032
vn -0.5141 0.0000 -0.8577
vn -0.4276 0.0000 -0.9040
vn -0.3369 0.0000 -0.9415
vn -0.2430 0.0000 -0.9700
vn -0.1467 0.0000 -0.9892
vn -0.0491 0.0000 -0.9988
vn 0.0491 0.0000 -0.9988
vn 0.1467 0.0000 -0.9892
vn 0.2430 0.0000 -0.9700
vn 0.3369 0.0000 -0.9415
vn 0.4276 0.0000 -0.9040
vn 0.3897 0.0000 -0.9209
vn 0.6196 0.0000 -0.7849
vn 0.7724 0.0000 -0.6352
vn 0.7335 0.0000 0.6797
vn 0.6634 0.0000 0.7483
vn 0.5868 0.0000 0.8097
vn 0.1957 0.0000 0.9807
vn 0.0986 0.0000 0.9951
vn 0.0006 0.0000 1.0000
vn -0.0974 0.0000 0.9952
vn -0.6429 0.0000 0.7660
vn -0.5513 0.0000 -0.8343
vn 0.7670 0.0000 -0.6416
vn -0.8055 0.0000 0.5926
vn 0.2462 -0.0008 -0.9692
vn 0.5518 0.0000 0.8340
vn -0.9911 0.0000 -0.1333
vn 0.5723 -0.0141 0.8199
vn -0.9699 0.0000 0.2435
vn -0.8994 0.0000 -0.4372
vn -0.4380 0.0000 0.8990
vn 0.7071 0.0000 -0.7071
vn -0.2317 -0.0000 -0.9728
vn 0.9893 0.0000 0.1462
vn 0.8375 -0.0000 -0.5464
vn 0.5049 0.0000 0.8632
vn -0.0000 -1.0000 -0.0001
vn -0.0003 -1.0000 -0.0000
usemtl None
s off
f 1/1/1 4/2/1 6/3/1 3/4/1
f 4/2/2 10/5/2 12/6/2 6/3/2
f 10/5/3 7/7/3 9/8/3 12/6/3
f 7/7/4 1/9/4 3/10/4 9/8/4
f 15/11/3 16/12/3 18/13/3 13/14/3
f 13/14/4 18/13/4 21/15/4 20/16/4
f 20/16/1 21/15/1 24/17/1 23/18/1
f 23/18/2 24/17/2 16/19/2 15/20/2
f 4/2/5 1/1/5 15/11/5 13/14/5
f 7/7/5 10/5/5 20/16/5 23/18/5
f 1/9/5 7/7/5 23/18/5 15/20/5
f 10/5/5 4/2/5 13/14/5 20/16/5
f 3/21/5 6/22/5 12/23/5 9/24/5
f 69/25/5 70/26/5 28/27/5 25/28/5 34/29/5 31/30/5
f 87/31/5 89/32/5 30/33/5 28/34/5 70/35/5 68/36/5
f 33/37/5 34/38/5 25/39/5 27/40/5 52/41/5 49/42/5
f 51/43/5 52/41/5 27/40/5 30/33/5 89/32/5 85/44/5
f 31/45/5 34/46/5 36/47/5
f 36/47/5 34/46/5 37/48/5
f 37/48/5 34/46/5 39/49/5
f 39/49/5 34/46/5 40/50/5
f 40/50/5 34/46/5 42/51/5
f 42/51/5 34/46/5 44/52/5
f 44/52/5 34/46/5 45/53/5
f 45/53/5 34/46/5 47/54/5
f 47/54/5 34/46/5 48/55/5
f 48/55/5 34/46/5 33/56/5
f 49/57/5 52/58/5 54/59/5
f 54/59/5 52/58/5 56/60/5
f 56/60/5 52/58/5 57/61/5
f 57/61/5 52/58/5 58/62/5
f 58/62/5 52/58/5 60/63/5
f 60/63/5 52/58/5 61/64/5
f 61/64/5 52/58/5 63/65/5
f 63/65/5 52/58/5 65/66/5
f 65/66/5 52/58/5 66/67/5
f 66/67/5 52/58/5 51/68/5
f 68/69/5 70/70/5 72/71/5
f 72/71/5 70/70/5 74/72/5
f 74/72/5 70/70/5 75/73/5
f 75/73/5 70/70/5 77/74/5
f 77/74/5 70/70/5 78/75/5
f 78/75/5 70/70/5 79/76/5
f 79/76/5 70/70/5 81/77/5
f 81/77/5 70/70/5 82/78/5
f 82/78/5 70/70/5 84/79/5
f 84/79/5 70/70/5 69/25/5
f 85/44/5 89/32/5 90/80/5
f 90/80/5 89/32/5 92/81/5
f 92/81/5 89/32/5 93/82/5
f 93/82/5 89/32/5 95/83/5
f 95/83/5 89/32/5 96/84/5
f 96/84/5 89/32/5 98/85/5
f 98/85/5 89/32/5 99/86/5
f 99/86/5 89/32/5 101/87/5
f 101/87/5 89/32/5 102/88/5
f 102/88/5 89/32/5 87/31/5
f 218/89/6 224/90/6 225/91/6 219/92/6 107/93/6 145/94/6 162/95/6 111/96/6 109/97/6 105/98/6 213/99/6 216/100/6 215/101/6 214/102/6 220/103/6 222/104/6 221/105/6 226/106/6 223/107/6 217/108/6
f 215/101/6 216/100/6 213/99/6
f 230/109/7 229/110/7 235/111/7 239/112/7 236/113/7 237/114/7 238/115/7 234/116/7 233/117/7 232/118/7 228/119/7 108/120/7 163/121/7 180/122/7 147/123/7 145/124/7 107/125/7 231/126/7 227/127/7
f 243/128/8 105/129/8 109/130/8 126/131/8 129/132/8 128/133/8 242/134/8 241/135/8 240/136/8 244/137/8 245/138/8
f 246/139/9 242/134/9 128/133/9 144/140/9 165/141/9 163/121/9 108/120/9 249/142/9 250/143/9 258/144/9 259/145/9 257/146/9 260/147/9 255/148/9 256/149/9 261/150/9 253/151/9 254/152/9 252/153/9 251/154/9 248/155/9 247/156/9
f 104/157/10 242/134/10 246/139/10
f 111/158/11 113/159/11 109/160/11
f 113/159/12 114/161/12 109/160/12
f 114/161/13 116/162/13 109/160/13
f 116/162/14 117/163/14 109/160/14
f 117/163/15 119/164/15 109/160/15
f 119/164/16 120/165/16 109/160/16
f 120/165/17 122/166/17 109/160/17
f 122/166/18 123/167/18 109/160/18
f 123/167/19 125/168/19 109/160/19
f 125/168/20 126/169/20 109/160/20
f 129/170/21 131/171/21 128/172/21
f 131/171/22 132/173/22 128/172/22
f 132/173/23 134/174/23 128/172/23
f 134/174/24 135/175/24 128/172/24
f 135/175/25 137/176/25 128/172/25
f 137/176/26 138/177/26 128/172/26
f 138/177/27 140/178/27 128/172/27
f 140/178/28 141/179/28 128/172/28
f 141/179/29 143/180/29 128/172/29
f 143/180/30 144/181/30 128/172/30
f 147/182/31 149/183/31 145/184/31
f 149/183/32 150/185/32 145/184/32
f 150/185/33 151/186/33 145/184/33
f 151/186/34 153/187/34 145/184/34
f 153/187/35 155/188/35 145/184/35
f 155/188/36 156/189/36 145/184/36
f 156/189/37 158/190/37 145/184/37
f 158/190/38 159/191/38 145/184/38
f 159/191/39 161/192/39 145/184/39
f 161/192/40 162/95/40 145/184/40
f 165/141/41 167/193/41 163/121/41
f 167/193/42 168/194/42 163/121/42
f 168/194/43 169/195/43 163/121/43
f 169/195/44 171/196/44 163/121/44
f 171/196/45 172/197/45 163/121/45
f 172/197/46 174/198/46 163/121/46
f 174/198/47 176/199/47 163/121/47
f 176/199/48 177/200/48 163/121/48
f 177/200/49 179/201/49 163/121/49
f 179/201/50 180/122/50 163/121/50
f 74/72/51 75/73/51 151/186/51 150/185/51
f 101/87/52 102/88/52 179/201/52 177/200/52
f 40/50/53 42/51/53 119/164/53 117/163/53
f 51/43/54 85/44/54 165/141/54 144/140/54
f 75/73/55 77/74/55 153/187/55 151/186/55
f 102/88/56 87/31/56 180/122/56 179/201/56
f 42/51/57 44/52/57 120/165/57 119/164/57
f 87/31/58 68/36/58 147/123/58 180/122/58
f 77/74/59 78/75/59 155/188/59 153/187/59
f 44/52/60 45/53/60 122/166/60 120/165/60
f 78/75/61 79/76/61 156/189/61 155/188/61
f 45/53/62 47/54/62 123/167/62 122/166/62
f 49/57/63 54/59/63 131/171/63 129/170/63
f 79/76/64 81/77/64 158/190/64 156/189/64
f 47/54/65 48/55/65 125/168/65 123/167/65
f 54/59/66 56/60/66 132/173/66 131/171/66
f 81/77/67 82/78/67 159/191/67 158/190/67
f 48/55/68 33/56/68 126/169/68 125/168/68
f 85/44/69 90/80/69 167/193/69 165/141/69
f 56/60/70 57/61/70 134/174/70 132/173/70
f 82/78/71 84/79/71 161/192/71 159/191/71
f 90/80/72 92/81/72 168/194/72 167/193/72
f 57/61/73 58/62/73 135/175/73 134/174/73
f 84/79/74 69/25/74 162/95/74 161/192/74
f 92/81/75 93/82/75 169/195/75 168/194/75
f 58/62/76 60/63/76 137/176/76 135/175/76
f 93/82/77 95/83/77 171/196/77 169/195/77
f 60/63/78 61/64/78 138/177/78 137/176/78
f 95/83/79 96/84/79 172/197/79 171/196/79
f 31/45/80 36/47/80 113/159/80 111/158/80
f 61/64/81 63/65/81 140/178/81 138/177/81
f 96/84/82 98/85/82 174/198/82 172/197/82
f 36/47/83 37/48/83 114/161/83 113/159/83
f 63/65/84 65/66/84 141/179/84 140/178/84
f 68/69/85 72/71/85 149/183/85 147/182/85
f 98/85/86 99/86/86 176/199/86 174/198/86
f 37/48/87 39/49/87 116/162/87 114/161/87
f 65/66/88 66/67/88 143/180/88 141/179/88
f 33/37/89 49/42/89 129/132/89 126/131/89
f 72/71/90 74/72/90 150/185/90 149/183/90
f 99/86/91 101/87/91 177/200/91 176/199/91
f 39/49/92 40/50/92 117/163/92 116/162/92
f 66/67/93 51/68/93 144/181/93 143/180/93
f 69/25/94 31/30/94 111/96/94 162/95/94
f 28/34/95 30/33/95 186/202/95 184/203/95
f 30/33/96 27/40/96 183/204/96 186/202/96
f 25/28/97 28/27/97 184/205/97 182/206/97
f 27/40/98 25/39/98 182/207/98 183/204/98
f 184/203/99 186/202/99 16/208/99 24/209/99
f 183/204/100 18/13/100 16/12/100 186/202/100
f 293/210/101 246/139/101 247/156/101 292/211/101
f 274/212/101 275/213/101 272/214/101 273/215/101 218/216/101 217/217/101 269/218/101 270/219/101 271/220/101 268/221/101 267/222/101 214/223/101 215/224/101 266/225/101 265/226/101 264/227/101 301/228/101 291/229/101 262/230/101 263/231/101 213/232/101 105/129/101 243/128/101 297/233/101 296/234/101 300/235/101 299/236/101 298/237/101 294/238/101 295/239/101 315/240/101 314/241/101 313/242/101 310/243/101 311/244/101 312/245/101 302/246/101 309/247/101 303/248/101 305/249/101 304/250/101 308/251/101 307/252/101 306/253/101 249/142/101 108/120/101 228/119/101 286/254/101 277/255/101 278/256/101 287/257/101 281/258/101 282/259/101 284/260/101 279/261/101 229/110/101 230/109/101 280/262/101 276/263/101 288/264/101
f 231/126/101 107/125/101 219/265/101 290/266/101 289/267/101 285/268/101 283/269/101
f 8/270/102 5/271/102 224/272/102 225/273/102
f 11/274/103 8/270/103 225/273/103 219/275/103 290/276/103
f 14/277/104 11/274/104 290/276/104 289/278/104
f 285/279/105 17/280/105 14/277/105 289/278/105
f 283/281/106 19/282/106 17/280/106 285/279/106
f 227/283/107 22/284/107 19/282/107 283/281/107 231/285/107
f 239/286/108 29/287/108 26/288/108 235/289/108
f 236/290/109 32/291/109 29/287/109 239/286/109
f 237/292/110 35/293/110 32/291/110 236/290/110
f 238/294/111 38/295/111 35/293/111 237/292/111
f 234/296/112 41/297/112 38/295/112 238/294/112
f 233/298/113 43/299/113 41/297/113 234/296/113
f 232/300/114 46/301/114 43/299/114 233/298/114
f 306/302/115 53/303/115 50/304/115 307/305/115
f 250/306/116 55/307/116 53/303/116 306/302/116 249/308/116
f 258/309/117 59/310/117 55/307/117 250/306/117
f 259/311/118 62/312/118 59/310/118 258/309/118
f 257/313/119 64/314/119 62/312/119 259/311/119
f 260/315/120 67/316/120 64/314/120 257/313/120
f 255/317/121 71/318/121 67/316/121 260/315/121
f 256/319/122 73/320/122 71/318/122 255/317/122
f 261/321/123 76/322/123 73/320/123 256/319/123
f 253/323/124 80/324/124 76/322/124 261/321/124
f 254/325/125 83/326/125 80/324/125 253/323/125
f 252/327/126 86/328/126 83/326/126 254/325/126
f 251/329/127 88/330/127 86/328/127 252/327/127
f 248/331/128 91/332/128 88/330/128 251/329/128
f 292/333/129 94/334/129 91/332/129 248/331/129 247/335/129
f 293/336/130 97/337/130 94/334/130 292/333/130
f 103/338/131 100/339/131 291/340/131 262/341/131
f 106/342/132 103/338/132 262/341/132 263/343/132
f 110/344/133 106/342/133 263/343/133 213/345/133 216/346/133
f 115/347/134 112/348/134 220/349/134 222/350/134
f 118/351/135 115/347/135 222/350/135 221/352/135
f 121/353/136 118/351/136 221/352/136 226/354/136
f 2/355/137 121/353/137 226/354/137 223/356/137
f 273/357/138 127/358/138 130/359/138 272/360/138
f 272/360/139 130/359/139 133/361/139 275/362/139
f 275/362/140 133/361/140 136/363/140 274/364/140
f 136/363/141 139/365/141 288/366/141 274/364/141
f 139/365/142 142/367/142 276/368/142 288/366/142
f 142/367/143 146/369/143 280/370/143 276/368/143
f 148/371/144 152/372/144 284/373/144 279/374/144
f 152/372/145 154/375/145 282/376/145 284/373/145
f 154/375/146 157/377/146 281/378/146 282/376/146
f 157/377/147 160/379/147 287/380/147 281/378/147
f 160/379/148 164/381/148 278/382/148 287/380/148
f 164/381/149 166/383/149 277/384/149 278/382/149
f 166/383/150 170/385/150 286/386/150 277/384/150
f 173/387/151 175/388/151 304/389/151 308/390/151
f 175/388/152 178/391/152 305/392/152 304/389/152
f 178/391/153 181/393/153 303/394/153 305/392/153
f 181/393/154 185/395/154 309/396/154 303/394/154
f 185/395/155 187/397/155 302/398/155 309/396/155
f 187/397/156 188/399/156 312/400/156 302/398/156
f 188/399/157 189/401/157 311/402/157 312/400/157
f 189/401/158 190/403/158 310/404/158 311/402/158
f 190/403/159 191/405/159 313/406/159 310/404/159
f 191/405/160 192/407/160 314/408/160 313/406/160
f 192/407/161 193/409/161 315/410/161 314/408/161
f 193/409/162 194/411/162 295/412/162 315/410/162
f 194/411/163 195/413/163 294/414/163 295/412/163
f 195/413/164 196/415/164 298/416/164 294/414/164
f 196/415/165 197/417/165 299/418/165 298/416/165
f 299/418/166 197/417/166 198/419/166 300/420/166
f 301/421/167 199/422/167 200/423/167 264/424/167
f 264/424/168 200/423/168 201/425/168 265/426/168
f 265/426/169 201/425/169 202/427/169 266/428/169
f 267/429/170 203/430/170 204/431/170 268/432/170
f 268/432/171 204/431/171 205/433/171 271/434/171
f 271/434/172 205/433/172 206/435/172 270/436/172
f 270/436/173 206/435/173 124/437/173 269/438/173
f 32/291/5 154/375/5 152/372/5 29/287/5
f 76/322/5 191/405/5 190/403/5 73/320/5
f 35/293/5 157/377/5 154/375/5 32/291/5
f 80/324/5 192/407/5 191/405/5 76/322/5
f 38/295/5 160/379/5 157/377/5 35/293/5
f 83/326/5 193/409/5 192/407/5 80/324/5
f 41/297/5 164/381/5 160/379/5 38/295/5
f 86/328/5 194/411/5 193/409/5 83/326/5
f 43/299/5 166/383/5 164/381/5 41/297/5
f 88/330/5 195/413/5 194/411/5 86/328/5
f 46/301/5 170/385/5 166/383/5 43/299/5
f 103/338/5 200/423/5 199/422/5 100/339/5
f 91/332/5 196/415/5 195/413/5 88/330/5
f 8/270/5 130/359/5 127/358/5 5/271/5
f 106/342/5 201/425/5 200/423/5 103/338/5
f 94/334/5 197/417/5 196/415/5 91/332/5
f 11/274/5 133/361/5 130/359/5 8/270/5
f 291/229/174 100/439/174 199/440/174 301/228/174
f 110/344/5 202/427/5 201/425/5 106/342/5
f 97/337/5 198/419/5 197/417/5 94/334/5
f 14/277/5 136/363/5 133/361/5 11/274/5
f 17/280/5 139/365/5 136/363/5 14/277/5
f 53/303/5 175/388/5 173/387/5 50/304/5
f 19/282/5 142/367/5 139/365/5 17/280/5
f 55/307/5 178/391/5 175/388/5 53/303/5
f 22/284/5 146/369/5 142/367/5 19/282/5
f 115/347/5 204/431/5 203/430/5 112/348/5
f 59/310/5 181/393/5 178/391/5 55/307/5
f 118/351/5 205/433/5 204/431/5 115/347/5
f 62/312/5 185/395/5 181/393/5 59/310/5
f 121/353/5 206/435/5 205/433/5 118/351/5
f 64/314/5 187/397/5 185/395/5 62/312/5
f 2/355/5 124/437/5 206/435/5 121/353/5
f 67/316/5 188/399/5 187/397/5 64/314/5
f 71/318/5 189/401/5 188/399/5 67/316/5
f 29/287/5 152/372/5 148/371/5 26/288/5
f 73/320/5 190/403/5 189/401/5 71/318/5
f 208/441/175 207/442/175 244/137/175 245/138/175
f 97/337/5 207/443/5 208/444/5 198/419/5
f 97/337/5 209/445/5 211/446/5 207/443/5
f 296/447/176 210/448/176 212/449/176 297/450/176
f 211/446/177 209/445/177 241/451/177 240/452/177
f 212/453/178 208/441/178 245/138/178 243/128/178 297/233/178
f 208/444/5 212/449/5 210/448/5 198/419/5
f 300/420/179 198/419/179 210/448/179 296/447/179
f 207/442/180 211/454/180 240/136/180 244/137/180
f 241/451/181 209/445/181 97/337/181 293/336/181 246/455/181 242/456/181
f 220/457/182 112/458/182 203/459/182 267/222/182 214/223/182
f 224/460/183 5/461/183 127/462/183 273/215/183 218/216/183
f 286/254/184 170/463/184 46/464/184 232/118/184 228/119/184
f 50/465/185 173/466/185 308/251/185 307/252/185
f 235/111/186 26/467/186 148/468/186 279/261/186 229/110/186
f 269/218/187 124/469/187 2/470/187 223/471/187 217/217/187
f 266/225/188 202/472/188 110/473/188 216/474/188 215/224/188
f 280/262/189 146/475/189 22/476/189 227/127/189 230/109/189
f 182/207/190 184/203/190 24/209/190 21/477/190
f 18/13/191 183/204/191 182/207/191 21/477/191
