solid OpenSCAD_Model
  facet normal 0.8660254037844387 0.5 0
    outer loop
      vertex -14 0 13.5
      vertex -7 -12.12435565298214 0
      vertex -14 0 0
    endloop
  endfacet
  facet normal 0 1 0
    outer loop
      vertex -7 -12.12435565298214 13.5
      vertex 7 -12.12435565298214 0
      vertex -7 -12.12435565298214 0
    endloop
  endfacet
  facet normal 0.8660254037844387 0.5 0
    outer loop
      vertex -7 -12.12435565298214 13.5
      vertex -7 -12.12435565298214 0
      vertex -14 0 13.5
    endloop
  endfacet
  facet normal 0.8660254037844385 -0.5000000000000003 4.469548340740569e-16
    outer loop
      vertex -11.168245639629628 4.904742426716191 3.085786437626905
      vertex -11.292608470745625 4.689339684650177 3.3888595339607956
      vertex -14 0 0
    endloop
  endfacet
  facet normal 0.8660254037844376 -0.5000000000000016 2.777093275580454e-15
    outer loop
      vertex -11.292608470745625 4.689339684650177 3.3888595339607956
      vertex -11.385018390954368 4.529281007725251 3.7346331352698203
      vertex -14 0 0
    endloop
  endfacet
  facet normal 0.8660254037844399 -0.4999999999999978 -3.301945426177909e-15
    outer loop
      vertex -11.385018390954368 4.529281007725251 3.7346331352698203
      vertex -11.44192413884631 4.430717361133698 4.109819355967743
      vertex -14 0 0
    endloop
  endfacet
  facet normal 0.8660254037844385 -0.5000000000000003 2.899042028700372e-16
    outer loop
      vertex -11.44192413884631 4.430717361133698 4.109819355967743
      vertex -11.46113885844308 4.397436490538904 4.5
      vertex -14 0 0
    endloop
  endfacet
  facet normal 0.8660254037844389 -0.4999999999999994 -1.9437779429374078e-15
    outer loop
      vertex -10.84382229080817 5.4666601500365966 2.6522409349774265
      vertex -14 0 0
      vertex -10.656229180459208 5.791580948310874 2.538429439193539
    endloop
  endfacet
  facet normal 0.8660254037844377 -0.5000000000000016 3.782931744439956e-15
    outer loop
      vertex -11.016709091462683 5.16721142734495 2.8370607753949093
      vertex -14 0 0
      vertex -10.84382229080817 5.4666601500365966 2.6522409349774265
    endloop
  endfacet
  facet normal 0.8660254037844393 -0.49999999999999906 -2.2262448891405258e-15
    outer loop
      vertex -11.016709091462683 5.16721142734495 2.8370607753949093
      vertex -11.168245639629628 4.904742426716191 3.085786437626905
      vertex -14 0 0
    endloop
  endfacet
  facet normal 0.8660254037844405 -0.4999999999999969 -9.789977181921333e-15
    outer loop
      vertex -10.656229180459208 5.791580948310874 2.538429439193539
      vertex -14 0 0
      vertex -10.461138858443082 6.129487298107781 2.5
    endloop
  endfacet
  facet normal 0.8660254037844383 -0.5000000000000007 2.8408226528611123e-15
    outer loop
      vertex -10.461138858443082 6.129487298107781 2.5
      vertex -14 0 0
      vertex -10.266048536426954 6.467393647904688 2.538429439193539
    endloop
  endfacet
  facet normal 0.8660254037844193 -0.5000000000000336 1.1486873034676542e-13
    outer loop
      vertex -10.266048536426954 6.467393647904688 2.538429439193539
      vertex -14 0 0
      vertex -10.07845542607799 6.792314446178964 2.6522409349774265
    endloop
  endfacet
  facet normal 0.8660254037844386 -0.5 -9.5679566446939e-17
    outer loop
      vertex -10.07845542607799 6.792314446178964 2.6522409349774265
      vertex -14 0 0
      vertex -7 12.12435565298214 0
    endloop
  endfacet
  facet normal 0.8660254037844385 -0.5000000000000001 0
    outer loop
      vertex -11.46113885844308 4.397436490538904 4.5
      vertex -14 0 13.5
      vertex -14 0 0
    endloop
  endfacet
  facet normal 0.8660254037844383 -0.5000000000000006 -2.683606580909683e-16
    outer loop
      vertex -11.46113885844308 4.397436490538904 4.5
      vertex -11.44192413884631 4.430717361133698 4.890180644032257
      vertex -14 0 13.5
    endloop
  endfacet
  facet normal 0.8660254037844409 -0.4999999999999961 2.7186890497120983e-15
    outer loop
      vertex -11.44192413884631 4.430717361133698 4.890180644032257
      vertex -11.385018390954368 4.529281007725251 5.265366864730179
      vertex -14 0 13.5
    endloop
  endfacet
  facet normal 0.866025403784437 -0.5000000000000026 -2.083559961155691e-15
    outer loop
      vertex -11.385018390954368 4.529281007725251 5.265366864730179
      vertex -11.292608470745625 4.689339684650177 5.611140466039204
      vertex -14 0 13.5
    endloop
  endfacet
  facet normal 0.8660254037844398 -0.49999999999999795 5.186458013385906e-15
    outer loop
      vertex -10.07845542607799 6.792314446178964 2.6522409349774265
      vertex -7 12.12435565298214 0
      vertex -9.90556862542348 7.091763168870611 2.8370607753949093
    endloop
  endfacet
  facet normal 0.8660254037844376 -0.500000000000002 -4.238198787544657e-15
    outer loop
      vertex -9.90556862542348 7.091763168870611 2.8370607753949093
      vertex -7 12.12435565298214 0
      vertex -9.754032077256532 7.354232169499371 3.085786437626905
    endloop
  endfacet
  facet normal 0.8660254037844388 -0.4999999999999997 4.555956734348095e-16
    outer loop
      vertex -9.754032077256532 7.354232169499371 3.085786437626905
      vertex -7 12.12435565298214 0
      vertex -9.629669246140535 7.569634911565386 3.3888595339607956
    endloop
  endfacet
  facet normal 0.8660254037844384 -0.5000000000000002 -4.3139813265014164e-16
    outer loop
      vertex -9.629669246140535 7.569634911565386 3.3888595339607956
      vertex -7 12.12435565298214 0
      vertex -9.537259325931794 7.729693588490311 3.7346331352698203
    endloop
  endfacet
  facet normal 0.8660254037844388 -0.4999999999999998 -1.4009504024622632e-16
    outer loop
      vertex -9.537259325931794 7.729693588490311 3.7346331352698203
      vertex -7 12.12435565298214 13.5
      vertex -9.48035357803985 7.828257235081864 4.109819355967743
    endloop
  endfacet
  facet normal 0.8660254037844384 -0.5000000000000003 3.2189627600379365e-16
    outer loop
      vertex -9.537259325931794 7.729693588490311 5.265366864730179
      vertex -7 12.12435565298214 13.5
      vertex -9.629669246140535 7.569634911565386 5.611140466039204
    endloop
  endfacet
  facet normal 0.8660254037844358 -0.5000000000000049 3.040451308658867e-15
    outer loop
      vertex -9.48035357803985 7.828257235081864 4.109819355967743
      vertex -7 12.12435565298214 13.5
      vertex -9.461138858443082 7.861538105676657 4.5
    endloop
  endfacet
  facet normal 0.8660254037844405 -0.4999999999999968 -2.112489911095785e-15
    outer loop
      vertex -9.461138858443082 7.861538105676657 4.5
      vertex -7 12.12435565298214 13.5
      vertex -9.48035357803985 7.828257235081864 4.890180644032257
    endloop
  endfacet
  facet normal 0.8660254037844386 -0.49999999999999994 2.9308069079200393e-17
    outer loop
      vertex -9.48035357803985 7.828257235081864 4.890180644032257
      vertex -7 12.12435565298214 13.5
      vertex -9.537259325931794 7.729693588490311 5.265366864730179
    endloop
  endfacet
  facet normal 0.8660254037844387 -0.5 0
    outer loop
      vertex -9.537259325931794 7.729693588490311 3.7346331352698203
      vertex -7 12.12435565298214 0
      vertex -7 12.12435565298214 13.5
    endloop
  endfacet
  facet normal 0.8660254037844384 -0.5000000000000004 -3.0811824528809016e-16
    outer loop
      vertex -11.292608470745625 4.689339684650177 5.611140466039204
      vertex -11.168245639629628 4.904742426716191 5.914213562373095
      vertex -14 0 13.5
    endloop
  endfacet
  facet normal 0.8660254037844395 -0.49999999999999845 1.40735154450674e-15
    outer loop
      vertex -11.168245639629628 4.904742426716191 5.914213562373095
      vertex -11.016709091462683 5.16721142734495 6.162939224605091
      vertex -14 0 13.5
    endloop
  endfacet
  facet normal 0.8660254037844373 -0.5000000000000022 -2.1657206514034454e-15
    outer loop
      vertex -11.016709091462683 5.16721142734495 6.162939224605091
      vertex -10.84382229080817 5.4666601500365966 6.347759065022574
      vertex -14 0 13.5
    endloop
  endfacet
  facet normal 0.866025403784439 -0.4999999999999992 9.790784498463315e-16
    outer loop
      vertex -10.84382229080817 5.4666601500365966 6.347759065022574
      vertex -10.656229180459208 5.791580948310874 6.461570560806461
      vertex -14 0 13.5
    endloop
  endfacet
  facet normal 0.8660254037844408 -0.4999999999999964 4.066402448595411e-15
    outer loop
      vertex -10.656229180459208 5.791580948310874 6.461570560806461
      vertex -10.461138858443082 6.129487298107781 6.5
      vertex -14 0 13.5
    endloop
  endfacet
  facet normal 0.8660254037844385 -0.5000000000000006 -8.125989159161264e-16
    outer loop
      vertex -10.461138858443082 6.129487298107781 6.5
      vertex -10.266048536426954 6.467393647904688 6.461570560806461
      vertex -14 0 13.5
    endloop
  endfacet
  facet normal 0.8660254037844386 -0.5000000000000001 -1.442169819069981e-16
    outer loop
      vertex -10.266048536426954 6.467393647904688 6.461570560806461
      vertex -7 12.12435565298214 13.5
      vertex -14 0 13.5
    endloop
  endfacet
  facet normal 0.8660254037844405 -0.49999999999999695 -2.951596146494195e-15
    outer loop
      vertex -10.07845542607799 6.792314446178964 6.347759065022574
      vertex -9.90556862542348 7.091763168870611 6.162939224605091
      vertex -7 12.12435565298214 13.5
    endloop
  endfacet
  facet normal 0.8660254037844389 -0.49999999999999956 -3.122001534515896e-16
    outer loop
      vertex -9.754032077256532 7.354232169499371 5.914213562373095
      vertex -9.629669246140535 7.569634911565386 5.611140466039204
      vertex -7 12.12435565298214 13.5
    endloop
  endfacet
  facet normal 0.8660254037844368 -0.5000000000000031 2.662808291229346e-15
    outer loop
      vertex -9.754032077256532 7.354232169499371 5.914213562373095
      vertex -7 12.12435565298214 13.5
      vertex -9.90556862542348 7.091763168870611 6.162939224605091
    endloop
  endfacet
  facet normal 0.866025403784437 -0.5000000000000027 2.8213641477353328e-15
    outer loop
      vertex -10.266048536426954 6.467393647904688 6.461570560806461
      vertex -10.07845542607799 6.792314446178964 6.347759065022574
      vertex -7 12.12435565298214 13.5
    endloop
  endfacet
  facet normal 0 -1 0
    outer loop
      vertex -7 12.12435565298214 13.5
      vertex -7 12.12435565298214 0
      vertex 7 12.12435565298214 13.5
    endloop
  endfacet
  facet normal -0.8660254037844384 0.5000000000000004 0
    outer loop
      vertex 8.285898384862247 -9.897114317029974 10.25
      vertex 7 -12.12435565298214 0
      vertex 7 -12.12435565298214 13.5
    endloop
  endfacet
  facet normal -0.8660254037844394 0.49999999999999883 3.628385493483157e-15
    outer loop
      vertex 10.15617770919183 -6.657695502945544 2.6522409349774265
      vertex 10.343770819540792 -6.332774704671266 2.538429439193539
      vertex 7 -12.12435565298214 0
    endloop
  endfacet
  facet normal -0.8660254037844374 0.500000000000002 -5.114949964313184e-15
    outer loop
      vertex 9.983290908537317 -6.95714422563719 2.8370607753949093
      vertex 10.15617770919183 -6.657695502945544 2.6522409349774265
      vertex 7 -12.12435565298214 0
    endloop
  endfacet
  facet normal -0.8660254037844393 0.49999999999999895 2.1788779766056207e-15
    outer loop
      vertex 9.983290908537317 -6.95714422563719 2.8370607753949093
      vertex 7 -12.12435565298214 0
      vertex 9.831754360370372 -7.219613226265949 3.085786437626905
    endloop
  endfacet
  facet normal -0.866025403784438 0.5000000000000011 -3.3819921173910106e-15
    outer loop
      vertex 10.343770819540792 -6.332774704671266 2.538429439193539
      vertex 10.53886114155692 -5.99486835487436 2.5
      vertex 7 -12.12435565298214 0
    endloop
  endfacet
  facet normal -0.8660254037844402 0.4999999999999972 9.46940884287043e-15
    outer loop
      vertex 10.53886114155692 -5.99486835487436 2.5
      vertex 10.733951463573046 -5.656962005077455 2.538429439193539
      vertex 7 -12.12435565298214 0
    endloop
  endfacet
  facet normal -0.8660254037844417 0.49999999999999456 1.9506010813600154e-14
    outer loop
      vertex 10.733951463573046 -5.656962005077455 2.538429439193539
      vertex 10.92154457392201 -5.332041206803175 2.6522409349774265
      vertex 7 -12.12435565298214 0
    endloop
  endfacet
  facet normal -0.8660254037844388 0.49999999999999983 5.363458008888678e-16
    outer loop
      vertex 9.831754360370372 -7.219613226265949 3.085786437626905
      vertex 7 -12.12435565298214 0
      vertex 9.707391529254375 -7.435015968331964 3.3888595339607956
    endloop
  endfacet
  facet normal -0.8660254037844388 0.49999999999999983 5.554186551160916e-16
    outer loop
      vertex 9.707391529254375 -7.435015968331964 3.3888595339607956
      vertex 7 -12.12435565298214 0
      vertex 9.614981609045634 -7.59507464525689 3.7346331352698203
    endloop
  endfacet
  facet normal -0.8660254037844389 0.49999999999999956 9.766317457709283e-16
    outer loop
      vertex 9.614981609045634 -7.59507464525689 3.7346331352698203
      vertex 7 -12.12435565298214 0
      vertex 9.55807586115369 -7.693638291848444 4.109819355967743
    endloop
  endfacet
  facet normal -0.8660254037844375 0.5000000000000018 -2.3965414103923146e-15
    outer loop
      vertex 9.55807586115369 -7.693638291848444 4.109819355967743
      vertex 7 -12.12435565298214 0
      vertex 9.53886114155692 -7.726919162443236 4.5
    endloop
  endfacet
  facet normal -0.8660254037844399 0.49999999999999784 2.8549173976502523e-15
    outer loop
      vertex 9.53886114155692 -7.726919162443236 4.5
      vertex 7 -12.12435565298214 0
      vertex 9.55807586115369 -7.693638291848444 4.890180644032257
    endloop
  endfacet
  facet normal -0.8660254037844384 0.5000000000000003 0
    outer loop
      vertex 8.285898384862247 -9.897114317029974 7.75
      vertex 7 -12.12435565298214 0
      vertex 8.285898384862247 -9.897114317029974 10.25
    endloop
  endfacet
  facet normal -0.8660254037844386 0.5000000000000001 1.1482113908203942e-16
    outer loop
      vertex 8.285898384862247 -9.897114317029974 7.75
      vertex 9.55807586115369 -7.693638291848444 4.890180644032257
      vertex 7 -12.12435565298214 0
    endloop
  endfacet
  facet normal -0.866025403784439 0.4999999999999994 -1.0407631532287347e-15
    outer loop
      vertex 8.285898384862247 -9.897114317029974 7.75
      vertex 9.614981609045634 -7.59507464525689 5.265366864730179
      vertex 9.55807586115369 -7.693638291848444 4.890180644032257
    endloop
  endfacet
  facet normal -0.8660254037844389 0.4999999999999995 -3.2219290834113624e-16
    outer loop
      vertex 8.285898384862247 -9.897114317029974 7.75
      vertex 9.707391529254375 -7.435015968331964 5.611140466039204
      vertex 9.614981609045634 -7.59507464525689 5.265366864730179
    endloop
  endfacet
  facet normal -0.866025403784439 0.4999999999999993 -3.1865831487221335e-16
    outer loop
      vertex 8.285898384862247 -9.897114317029974 7.75
      vertex 9.831754360370372 -7.219613226265949 5.914213562373095
      vertex 9.707391529254375 -7.435015968331964 5.611140466039204
    endloop
  endfacet
  facet normal -0.8660254037844393 0.4999999999999989 -2.0104153108182177e-15
    outer loop
      vertex 8.285898384862247 -9.897114317029974 7.75
      vertex 9.983290908537317 -6.95714422563719 6.162939224605091
      vertex 9.831754360370372 -7.219613226265949 5.914213562373095
    endloop
  endfacet
  facet normal -0.8660254037844377 0.5000000000000017 5.285934196808236e-15
    outer loop
      vertex 8.285898384862247 -9.897114317029974 7.75
      vertex 10.15617770919183 -6.657695502945544 6.347759065022574
      vertex 9.983290908537317 -6.95714422563719 6.162939224605091
    endloop
  endfacet
  facet normal -0.8660254037844393 0.49999999999999883 -3.732547630385965e-15
    outer loop
      vertex 8.285898384862247 -9.897114317029974 7.75
      vertex 10.343770819540792 -6.332774704671266 6.461570560806461
      vertex 10.15617770919183 -6.657695502945544 6.347759065022574
    endloop
  endfacet
  facet normal -0.866025403784438 0.5000000000000012 5.375683102118935e-15
    outer loop
      vertex 8.285898384862247 -9.897114317029974 7.75
      vertex 10.53886114155692 -5.99486835487436 6.5
      vertex 10.343770819540792 -6.332774704671266 6.461570560806461
    endloop
  endfacet
  facet normal -0.8660254037844386 0.5 -1.91359132893878e-16
    outer loop
      vertex 10.92154457392201 -5.332041206803175 2.6522409349774265
      vertex 14 0 0
      vertex 7 -12.12435565298214 0
    endloop
  endfacet
  facet normal -0.8660254037844392 0.499999999999999 -2.7012802153051653e-15
    outer loop
      vertex 10.92154457392201 -5.332041206803175 2.6522409349774265
      vertex 11.09443137457652 -5.03259248411153 2.8370607753949093
      vertex 14 0 0
    endloop
  endfacet
  facet normal -0.866025403784438 0.5000000000000013 2.5525515424984946e-15
    outer loop
      vertex 11.09443137457652 -5.03259248411153 2.8370607753949093
      vertex 11.245967922743466 -4.770123483482772 3.085786437626905
      vertex 14 0 0
    endloop
  endfacet
  facet normal -0.8660254037844384 0.5000000000000006 9.11191346869616e-16
    outer loop
      vertex 11.245967922743466 -4.770123483482772 3.085786437626905
      vertex 11.370330753859465 -4.554720741416755 3.3888595339607956
      vertex 14 0 0
    endloop
  endfacet
  facet normal -0.8660254037844383 0.5000000000000008 1.3850150574557193e-15
    outer loop
      vertex 11.370330753859465 -4.554720741416755 3.3888595339607956
      vertex 11.462740674068206 -4.394662064491831 3.7346331352698203
      vertex 14 0 0
    endloop
  endfacet
  facet normal -0.8660254037844389 0.4999999999999992 -9.05746601830462e-16
    outer loop
      vertex 11.462740674068206 -4.394662064491831 3.7346331352698203
      vertex 11.51964642196015 -4.296098417900277 4.109819355967743
      vertex 14 0 0
    endloop
  endfacet
  facet normal -0.8660254037844397 0.4999999999999984 -2.286990208471223e-15
    outer loop
      vertex 11.51964642196015 -4.296098417900277 4.109819355967743
      vertex 11.538861141556918 -4.262817547305484 4.5
      vertex 14 0 0
    endloop
  endfacet
  facet normal -0.8660254037844386 0.5000000000000001 -5.599985890306372e-17
    outer loop
      vertex 11.538861141556918 -4.262817547305484 4.5
      vertex 13.285898384862245 -1.2368602791855876 7.75
      vertex 14 0 0
    endloop
  endfacet
  facet normal -0.8660254037844386 0.49999999999999994 0
    outer loop
      vertex 8.285898384862247 -9.897114317029974 7.75
      vertex 13.285898384862245 -1.2368602791855876 7.75
      vertex 10.53886114155692 -5.99486835487436 6.5
    endloop
  endfacet
  facet normal -0.8660254037844395 0.4999999999999985 6.35448023570537e-15
    outer loop
      vertex 10.53886114155692 -5.99486835487436 6.5
      vertex 13.285898384862245 -1.2368602791855876 7.75
      vertex 10.733951463573046 -5.656962005077455 6.461570560806461
    endloop
  endfacet
  facet normal -0.8660254037844383 0.5000000000000006 -1.5168664433489898e-15
    outer loop
      vertex 11.462740674068206 -4.394662064491831 5.265366864730179
      vertex 11.370330753859465 -4.554720741416755 5.611140466039204
      vertex 13.285898384862245 -1.2368602791855876 7.75
    endloop
  endfacet
  facet normal -0.8660254037844384 0.5000000000000003 -1.0819587983246998e-15
    outer loop
      vertex 11.370330753859465 -4.554720741416755 5.611140466039204
      vertex 11.245967922743466 -4.770123483482772 5.914213562373095
      vertex 13.285898384862245 -1.2368602791855876 7.75
    endloop
  endfacet
  facet normal -0.8660254037844379 0.5000000000000011 -2.8971982126754152e-15
    outer loop
      vertex 11.09443137457652 -5.03259248411153 6.162939224605091
      vertex 13.285898384862245 -1.2368602791855876 7.75
      vertex 11.245967922743466 -4.770123483482772 5.914213562373095
    endloop
  endfacet
  facet normal -0.8660254037844387 0.49999999999999967 1.1474820112232153e-15
    outer loop
      vertex 10.733951463573046 -5.656962005077455 6.461570560806461
      vertex 13.285898384862245 -1.2368602791855876 7.75
      vertex 10.92154457392201 -5.332041206803175 6.347759065022574
    endloop
  endfacet
  facet normal -0.8660254037844392 0.49999999999999917 3.023089596026052e-15
    outer loop
      vertex 11.09443137457652 -5.03259248411153 6.162939224605091
      vertex 10.92154457392201 -5.332041206803175 6.347759065022574
      vertex 13.285898384862245 -1.2368602791855876 7.75
    endloop
  endfacet
  facet normal -0.8660254037844397 0.4999999999999982 2.2706660414931514e-15
    outer loop
      vertex 11.538861141556918 -4.262817547305484 4.5
      vertex 11.51964642196015 -4.296098417900277 4.890180644032257
      vertex 13.285898384862245 -1.2368602791855876 7.75
    endloop
  endfacet
  facet normal -0.8660254037844392 0.49999999999999917 8.742829082094499e-16
    outer loop
      vertex 11.462740674068206 -4.394662064491831 5.265366864730179
      vertex 13.285898384862245 -1.2368602791855876 7.75
      vertex 11.51964642196015 -4.296098417900277 4.890180644032257
    endloop
  endfacet
  facet normal -0.8660254037844385 0.5000000000000003 0
    outer loop
      vertex 13.285898384862245 -1.2368602791855876 7.75
      vertex 13.285898384862245 -1.2368602791855876 10.25
      vertex 14 0 0
    endloop
  endfacet
  facet normal -0.8660254037844385 0.5000000000000003 0
    outer loop
      vertex 13.285898384862245 -1.2368602791855876 10.25
      vertex 14 0 13.5
      vertex 14 0 0
    endloop
  endfacet
  facet normal 0 1 0
    outer loop
      vertex -7 -12.12435565298214 13.5
      vertex 7 -12.12435565298214 13.5
      vertex 7 -12.12435565298214 0
    endloop
  endfacet
  facet normal -0.8660254037844386 0.5 -3.5136728691433524e-16
    outer loop
      vertex 8.285898384862247 -9.897114317029974 10.25
      vertex 7 -12.12435565298214 13.5
      vertex 14 0 13.5
    endloop
  endfacet
  facet normal -0.8660254037844387 0.4999999999999999 0
    outer loop
      vertex 8.285898384862247 -9.897114317029974 10.25
      vertex 14 0 13.5
      vertex 13.285898384862245 -1.2368602791855876 10.25
    endloop
  endfacet
  facet normal 0 -1 0
    outer loop
      vertex 7 12.12435565298214 13.5
      vertex -7 12.12435565298214 0
      vertex 7 12.12435565298214 0
    endloop
  endfacet
  facet normal -0.8660254037844387 -0.5 0
    outer loop
      vertex 14 0 13.5
      vertex 7 12.12435565298214 0
      vertex 14 0 0
    endloop
  endfacet
  facet normal -0.8660254037844387 -0.5 0
    outer loop
      vertex 14 0 13.5
      vertex 7 12.12435565298214 13.5
      vertex 7 12.12435565298214 0
    endloop
  endfacet
  facet normal 0 0 1
    outer loop
      vertex -7.15 -12.384163274117473 13.5
      vertex -7 -12.12435565298214 13.5
      vertex -14 0 13.5
    endloop
  endfacet
  facet normal 0.8660254037844386 0.5 0
    outer loop
      vertex -7.15 -12.384163274117473 13.5
      vertex -14.3 0 16.5
      vertex -7.15 -12.384163274117473 16.5
    endloop
  endfacet
  facet normal 0 0 1
    outer loop
      vertex -7.15 -12.384163274117473 13.5
      vertex -14 0 13.5
      vertex -14.3 0 13.5
    endloop
  endfacet
  facet normal 0.8660254037844386 0.5 0
    outer loop
      vertex -7.15 -12.384163274117473 13.5
      vertex -14.3 0 13.5
      vertex -14.3 0 16.5
    endloop
  endfacet
  facet normal 0 0 1
    outer loop
      vertex -7.15 -12.384163274117473 13.5
      vertex 7.15 -12.384163274117473 13.5
      vertex -7 -12.12435565298214 13.5
    endloop
  endfacet
  facet normal 0 1 0
    outer loop
      vertex -7.15 -12.384163274117473 13.5
      vertex -7.15 -12.384163274117473 16.5
      vertex 7.15 -12.384163274117473 13.5
    endloop
  endfacet
  facet normal 0 0 1
    outer loop
      vertex -14.3 0 13.5
      vertex -14 0 13.5
      vertex -7 12.12435565298214 13.5
    endloop
  endfacet
  facet normal 0.8660254037844386 -0.5 0
    outer loop
      vertex -14.3 0 13.5
      vertex -7.15 12.384163274117473 16.5
      vertex -14.3 0 16.5
    endloop
  endfacet
  facet normal 0 0 1
    outer loop
      vertex -14.3 0 13.5
      vertex -7 12.12435565298214 13.5
      vertex -7.15 12.384163274117473 13.5
    endloop
  endfacet
  facet normal 0.8660254037844386 -0.5 0
    outer loop
      vertex -14.3 0 13.5
      vertex -7.15 12.384163274117473 13.5
      vertex -7.15 12.384163274117473 16.5
    endloop
  endfacet
  facet normal 0 0 1
    outer loop
      vertex -7.15 12.384163274117473 13.5
      vertex -7 12.12435565298214 13.5
      vertex 7 12.12435565298214 13.5
    endloop
  endfacet
  facet normal 0 -1 0
    outer loop
      vertex -7.15 12.384163274117473 13.5
      vertex 7.15 12.384163274117473 16.5
      vertex -7.15 12.384163274117473 16.5
    endloop
  endfacet
  facet normal 0 0 1
    outer loop
      vertex -7 -12.12435565298214 13.5
      vertex 7.15 -12.384163274117473 13.5
      vertex 7 -12.12435565298214 13.5
    endloop
  endfacet
  facet normal 0 1 0
    outer loop
      vertex 7.15 -12.384163274117473 13.5
      vertex -7.15 -12.384163274117473 16.5
      vertex 7.15 -12.384163274117473 16.5
    endloop
  endfacet
  facet normal 0 0 1
    outer loop
      vertex 7 -12.12435565298214 13.5
      vertex 7.15 -12.384163274117473 13.5
      vertex 14.3 0 13.5
    endloop
  endfacet
  facet normal -0.8660254037844386 0.5 0
    outer loop
      vertex 7.15 -12.384163274117473 13.5
      vertex 7.15 -12.384163274117473 16.5
      vertex 14.3 0 13.5
    endloop
  endfacet
  facet normal 0 0 1
    outer loop
      vertex 7 -12.12435565298214 13.5
      vertex 14.3 0 13.5
      vertex 14 0 13.5
    endloop
  endfacet
  facet normal -0.8660254037844386 0.5 0
    outer loop
      vertex 14.3 0 13.5
      vertex 7.15 -12.384163274117473 16.5
      vertex 14.3 0 16.5
    endloop
  endfacet
  facet normal 0 0 1
    outer loop
      vertex -7.15 12.384163274117473 13.5
      vertex 7 12.12435565298214 13.5
      vertex 7.15 12.384163274117473 13.5
    endloop
  endfacet
  facet normal 0 -1 0
    outer loop
      vertex -7.15 12.384163274117473 13.5
      vertex 7.15 12.384163274117473 13.5
      vertex 7.15 12.384163274117473 16.5
    endloop
  endfacet
  facet normal 0 0 1
    outer loop
      vertex 14 0 13.5
      vertex 14.3 0 13.5
      vertex 7.15 12.384163274117473 13.5
    endloop
  endfacet
  facet normal -0.8660254037844386 -0.5 0
    outer loop
      vertex 14.3 0 13.5
      vertex 14.3 0 16.5
      vertex 7.15 12.384163274117473 13.5
    endloop
  endfacet
  facet normal 0 0 1
    outer loop
      vertex 14 0 13.5
      vertex 7.15 12.384163274117473 13.5
      vertex 7 12.12435565298214 13.5
    endloop
  endfacet
  facet normal -0.8660254037844386 -0.5 0
    outer loop
      vertex 7.15 12.384163274117473 13.5
      vertex 14.3 0 16.5
      vertex 7.15 12.384163274117473 16.5
    endloop
  endfacet
  facet normal 0 0 -1
    outer loop
      vertex -7.721687838435173 -13.374355651438236 0
      vertex -15.443375669419765 0 0
      vertex -7 -12.12435565298214 0
    endloop
  endfacet
  facet normal 0 0 -1
    outer loop
      vertex -15.443375669419765 0 0
      vertex -14 0 0
      vertex -7 -12.12435565298214 0
    endloop
  endfacet
  facet normal -0.8660254039137271 -0.49999999977606585 0
    outer loop
      vertex -7.721687838435173 -13.374355651438236 0
      vertex -15.443375669419765 0 16.5
      vertex -15.443375669419765 0 0
    endloop
  endfacet
  facet normal 0 0 -1
    outer loop
      vertex -7.721687838435173 -13.374355651438236 0
      vertex -7 -12.12435565298214 0
      vertex 7.721687838435173 -13.374355651438236 0
    endloop
  endfacet
  facet normal 0 -1 0
    outer loop
      vertex -7.721687838435173 -13.374355651438236 0
      vertex 7.721687838435173 -13.374355651438236 0
      vertex -7.721687838435173 -13.374355651438236 16.5
    endloop
  endfacet
  facet normal -0.8660254039137271 -0.49999999977606585 0
    outer loop
      vertex -7.721687838435173 -13.374355651438236 0
      vertex -7.721687838435173 -13.374355651438236 16.5
      vertex -15.443375669419765 0 16.5
    endloop
  endfacet
  facet normal 0 0 1
    outer loop
      vertex -7.721687838435173 -13.374355651438236 16.5
      vertex -7.15 -12.384163274117473 16.5
      vertex -14.3 0 16.5
    endloop
  endfacet
  facet normal 0 0 1
    outer loop
      vertex -7.721687838435173 -13.374355651438236 16.5
      vertex -14.3 0 16.5
      vertex -15.443375669419765 0 16.5
    endloop
  endfacet
  facet normal 0 0 1
    outer loop
      vertex -7.721687838435173 -13.374355651438236 16.5
      vertex 7.15 -12.384163274117473 16.5
      vertex -7.15 -12.384163274117473 16.5
    endloop
  endfacet
  facet normal 0 0 -1
    outer loop
      vertex -15.443375669419765 0 0
      vertex -7.721687838435173 13.374355651438236 0
      vertex -14 0 0
    endloop
  endfacet
  facet normal -0.8660254039137266 0.4999999997760665 -1.6024106370182553e-15
    outer loop
      vertex -15.443375669419765 0 0
      vertex -12.099240845025239 5.792211426670609 2.8370607753949093
      vertex -11.926354044448157 6.091660149406961 2.6522409349774265
    endloop
  endfacet
  facet normal -0.8660254039137271 0.4999999997760661 0
    outer loop
      vertex -15.443375669419765 0 0
      vertex -12.250777393124316 5.529742426002667 3.085786437626905
      vertex -12.099240845025239 5.792211426670609 2.8370607753949093
    endloop
  endfacet
  facet normal -0.8660254039137271 0.49999999977606585 3.46948480429937e-16
    outer loop
      vertex -15.443375669419765 0 0
      vertex -11.926354044448157 6.091660149406961 2.6522409349774265
      vertex -7.721687838435173 13.374355651438236 0
    endloop
  endfacet
  facet normal -0.8660254039137268 0.49999999977606635 -2.6290150644698768e-15
    outer loop
      vertex -15.443375669419765 0 0
      vertex -12.375140224184616 5.314339683904495 3.3888595339607956
      vertex -12.250777393124316 5.529742426002667 3.085786437626905
    endloop
  endfacet
  facet normal -0.8660254039137274 0.49999999977606513 6.463808714446054e-16
    outer loop
      vertex -15.443375669419765 0 0
      vertex -12.46755014435197 5.1542810069556735 3.7346331352698203
      vertex -12.375140224184616 5.314339683904495 3.3888595339607956
    endloop
  endfacet
  facet normal -0.8660254039137273 0.4999999997760655 6.683003655145933e-16
    outer loop
      vertex -15.443375669419765 0 0
      vertex -12.524455892218427 5.055717360349407 4.109819355967743
      vertex -12.46755014435197 5.1542810069556735 3.7346331352698203
    endloop
  endfacet
  facet normal -0.8660254039137276 0.4999999997760651 1.4585707088961422e-15
    outer loop
      vertex -15.443375669419765 0 0
      vertex -12.54367061180659 5.022436489749644 4.5
      vertex -12.524455892218427 5.055717360349407 4.109819355967743
    endloop
  endfacet
  facet normal -0.8660254039137267 0.49999999977606663 -1.6999564624416911e-15
    outer loop
      vertex -15.443375669419765 0 0
      vertex -12.524455892218427 5.055717360349407 4.890180644032257
      vertex -12.54367061180659 5.022436489749644 4.5
    endloop
  endfacet
  facet normal -0.8660254039137272 0.49999999977606563 -1.0873092151848126e-15
    outer loop
      vertex -15.443375669419765 0 0
      vertex -12.46755014435197 5.1542810069556735 5.265366864730179
      vertex -12.524455892218427 5.055717360349407 4.890180644032257
    endloop
  endfacet
  facet normal -0.8660254039137267 0.49999999977606663 -1.637527949246312e-15
    outer loop
      vertex -15.443375669419765 0 0
      vertex -12.375140224184616 5.314339683904495 5.611140466039204
      vertex -12.46755014435197 5.1542810069556735 5.265366864730179
    endloop
  endfacet
  facet normal -0.8660254039137322 0.499999999776057 1.530799045773238e-14
    outer loop
      vertex -15.443375669419765 0 0
      vertex -12.250777393124316 5.529742426002667 5.914213562373095
      vertex -12.375140224184616 5.314339683904495 5.611140466039204
    endloop
  endfacet
  facet normal -0.8660254039137268 0.4999999997760664 0
    outer loop
      vertex -15.443375669419765 0 0
      vertex -7.721687838435173 13.374355651438236 16.5
      vertex -12.250777393124316 5.529742426002667 5.914213562373095
    endloop
  endfacet
  facet normal -0.8660254039137113 0.49999999977609305 9.347880751223258e-14
    outer loop
      vertex -7.721687838435173 13.374355651438236 0
      vertex -11.926354044448157 6.091660149406961 2.6522409349774265
      vertex -11.738760934183212 6.416580947729745 2.538429439193539
    endloop
  endfacet
  facet normal -0.8660254039137285 0.49999999977606346 -5.211563055021957e-15
    outer loop
      vertex -7.721687838435173 13.374355651438236 0
      vertex -11.738760934183212 6.416580947729745 2.538429439193539
      vertex -11.54367061225446 6.754487297577097 2.5
    endloop
  endfacet
  facet normal -0.866025403913728 0.4999999997760643 -5.598329512332012e-15
    outer loop
      vertex -7.721687838435173 13.374355651438236 0
      vertex -11.54367061225446 6.754487297577097 2.5
      vertex -11.348580290325707 7.09239364742445 2.538429439193539
    endloop
  endfacet
  facet normal -0.8660254039137268 0.49999999977606624 1.9982102751152496e-15
    outer loop
      vertex -7.721687838435173 13.374355651438236 0
      vertex -11.348580290325707 7.09239364742445 2.538429439193539
      vertex -11.160987180060761 7.417314445747234 2.6522409349774265
    endloop
  endfacet
  facet normal -0.8660254039137271 0.49999999977606574 1.623447255568708e-15
    outer loop
      vertex -7.721687838435173 13.374355651438236 0
      vertex -11.160987180060761 7.417314445747234 2.6522409349774265
      vertex -10.98810037948368 7.716763168483586 2.8370607753949093
    endloop
  endfacet
  facet normal -0.8660254039137275 0.49999999977606524 -1.4298256875608961e-15
    outer loop
      vertex -7.721687838435173 13.374355651438236 0
      vertex -10.98810037948368 7.716763168483586 2.8370607753949093
      vertex -10.836563831384602 7.97923216915153 3.085786437626905
    endloop
  endfacet
  facet normal 0 0 -1
    outer loop
      vertex -7.721687838435173 13.374355651438236 0
      vertex -7 12.12435565298214 0
      vertex -14 0 0
    endloop
  endfacet
  facet normal -0.8660254039137263 0.49999999977606724 2.675654778867288e-15
    outer loop
      vertex -7.721687838435173 13.374355651438236 0
      vertex -10.836563831384602 7.97923216915153 3.085786437626905
      vertex -10.712201000324303 8.1946349112497 3.3888595339607956
    endloop
  endfacet
  facet normal -0.8660254039137272 0.49999999977606585 -6.592750083237424e-16
    outer loop
      vertex -7.721687838435173 13.374355651438236 0
      vertex -10.712201000324303 8.1946349112497 3.3888595339607956
      vertex -10.619791080156949 8.354693588198522 3.7346331352698203
    endloop
  endfacet
  facet normal -0.8660254039137277 0.4999999997760648 -2.04987825150536e-15
    outer loop
      vertex -7.721687838435173 13.374355651438236 0
      vertex -10.619791080156949 8.354693588198522 3.7346331352698203
      vertex -10.562885332290492 8.45325723480479 4.109819355967743
    endloop
  endfacet
  facet normal -0.8660254039137271 0.49999999977606585 0
    outer loop
      vertex -7.721687838435173 13.374355651438236 0
      vertex -10.562885332290492 8.45325723480479 4.109819355967743
      vertex -7.721687838435173 13.374355651438236 16.5
    endloop
  endfacet
  facet normal 0 0 -1
    outer loop
      vertex -7.721687838435173 13.374355651438236 0
      vertex 7 12.12435565298214 0
      vertex -7 12.12435565298214 0
    endloop
  endfacet
  facet normal -0.8660254039137271 0.49999999977606585 0
    outer loop
      vertex -15.443375669419765 0 0
      vertex -15.443375669419765 0 16.5
      vertex -7.721687838435173 13.374355651438236 16.5
    endloop
  endfacet
  facet normal 0 0 1
    outer loop
      vertex -15.443375669419765 0 16.5
      vertex -14.3 0 16.5
      vertex -7.15 12.384163274117473 16.5
    endloop
  endfacet
  facet normal -0.8660254039137252 0.49999999977606907 0
    outer loop
      vertex -7.721687838435173 13.374355651438236 16.5
      vertex -12.099240845025239 5.792211426670609 6.162939224605091
      vertex -12.250777393124316 5.529742426002667 5.914213562373095
    endloop
  endfacet
  facet normal -0.8660254039137274 0.49999999977606535 4.353220102482912e-16
    outer loop
      vertex -7.721687838435173 13.374355651438236 16.5
      vertex -10.619791080156949 8.354693588198522 5.265366864730179
      vertex -10.712201000324303 8.1946349112497 5.611140466039204
    endloop
  endfacet
  facet normal -0.8660254039137266 0.4999999997760667 -1.8161621795549416e-15
    outer loop
      vertex -7.721687838435173 13.374355651438236 16.5
      vertex -11.926354044448157 6.091660149406961 6.347759065022574
      vertex -12.099240845025239 5.792211426670609 6.162939224605091
    endloop
  endfacet
  facet normal -0.8660254039137271 0.499999999776066 -1.2457347484782952e-15
    outer loop
      vertex -7.721687838435173 13.374355651438236 16.5
      vertex -11.738760934183212 6.416580947729745 6.461570560806461
      vertex -11.926354044448157 6.091660149406961 6.347759065022574
    endloop
  endfacet
  facet normal -0.8660254039137282 0.4999999997760638 9.846622402245582e-16
    outer loop
      vertex -7.721687838435173 13.374355651438236 16.5
      vertex -11.54367061225446 6.754487297577097 6.5
      vertex -11.738760934183212 6.416580947729745 6.461570560806461
    endloop
  endfacet
  facet normal -0.8660254039137281 0.4999999997760641 1.693558853063409e-15
    outer loop
      vertex -7.721687838435173 13.374355651438236 16.5
      vertex -11.348580290325707 7.09239364742445 6.461570560806461
      vertex -11.54367061225446 6.754487297577097 6.5
    endloop
  endfacet
  facet normal -0.8660254039137261 0.4999999997760677 -7.737007793785013e-16
    outer loop
      vertex -7.721687838435173 13.374355651438236 16.5
      vertex -11.160987180060761 7.417314445747234 6.347759065022574
      vertex -11.348580290325707 7.09239364742445 6.461570560806461
    endloop
  endfacet
  facet normal -0.8660254039137263 0.499999999776067 -7.429846522586284e-16
    outer loop
      vertex -7.721687838435173 13.374355651438236 16.5
      vertex -10.98810037948368 7.716763168483586 6.162939224605091
      vertex -11.160987180060761 7.417314445747234 6.347759065022574
    endloop
  endfacet
  facet normal -0.8660254039137284 0.4999999997760637 7.467188347173255e-16
    outer loop
      vertex -7.721687838435173 13.374355651438236 16.5
      vertex -10.836563831384602 7.97923216915153 5.914213562373095
      vertex -10.98810037948368 7.716763168483586 6.162939224605091
    endloop
  endfacet
  facet normal -0.8660254039137262 0.49999999977606724 -1.571640118533539e-15
    outer loop
      vertex -7.721687838435173 13.374355651438236 16.5
      vertex -10.712201000324303 8.1946349112497 5.611140466039204
      vertex -10.836563831384602 7.97923216915153 5.914213562373095
    endloop
  endfacet
  facet normal -0.8660254039137291 0.49999999977606235 1.020300824459576e-15
    outer loop
      vertex -7.721687838435173 13.374355651438236 16.5
      vertex -10.562885332290492 8.45325723480479 4.109819355967743
      vertex -10.543670612702329 8.48653810540455 4.5
    endloop
  endfacet
  facet normal -0.8660254039137268 0.49999999977606624 -6.669710174894297e-16
    outer loop
      vertex -7.721687838435173 13.374355651438236 16.5
      vertex -10.543670612702329 8.48653810540455 4.5
      vertex -10.562885332290492 8.45325723480479 4.890180644032257
    endloop
  endfacet
  facet normal -0.8660254039137277 0.49999999977606446 1.5431877506416458e-15
    outer loop
      vertex -7.721687838435173 13.374355651438236 16.5
      vertex -10.562885332290492 8.45325723480479 4.890180644032257
      vertex -10.619791080156949 8.354693588198522 5.265366864730179
    endloop
  endfacet
  facet normal 0 0 1
    outer loop
      vertex -15.443375669419765 0 16.5
      vertex -7.15 12.384163274117473 16.5
      vertex -7.721687838435173 13.374355651438236 16.5
    endloop
  endfacet
  facet normal 0 1 0
    outer loop
      vertex -7.721687838435173 13.374355651438236 0
      vertex -7.721687838435173 13.374355651438236 16.5
      vertex 7.721687838435173 13.374355651438236 16.5
    endloop
  endfacet
  facet normal 0 0 1
    outer loop
      vertex -7.721687838435173 13.374355651438236 16.5
      vertex -7.15 12.384163274117473 16.5
      vertex 7.721687838435173 13.374355651438236 16.5
    endloop
  endfacet
  facet normal 0 0 -1
    outer loop
      vertex 7.721687838435173 -13.374355651438236 0
      vertex -7 -12.12435565298214 0
      vertex 7 -12.12435565298214 0
    endloop
  endfacet
  facet normal 0.866025403913727 -0.49999999977606613 1.769000880201349e-16
    outer loop
      vertex 7.721687838435173 -13.374355651438236 0
      vertex 10.621392895781359 -8.351919162151033 4.5
      vertex 9.368430139647845 -10.522114317061757 7.75
    endloop
  endfacet
  facet normal 0 0 -1
    outer loop
      vertex 7.721687838435173 -13.374355651438236 0
      vertex 7 -12.12435565298214 0
      vertex 15.443375669419765 0 0
    endloop
  endfacet
  facet normal 0.8660254039137265 -0.4999999997760669 0
    outer loop
      vertex 7.721687838435173 -13.374355651438236 0
      vertex 11.426302573404735 -6.957774704170932 2.538429439193539
      vertex 11.23870946313979 -7.282695502493716 2.6522409349774265
    endloop
  endfacet
  facet normal 0.8660254039137278 -0.4999999997760645 -4.807231911268756e-15
    outer loop
      vertex 7.721687838435173 -13.374355651438236 0
      vertex 11.23870946313979 -7.282695502493716 2.6522409349774265
      vertex 11.06582266256271 -7.582144225230069 2.8370607753949093
    endloop
  endfacet
  facet normal 0.866025403913727 -0.4999999997760661 1.4079180074040565e-15
    outer loop
      vertex 7.721687838435173 -13.374355651438236 0
      vertex 11.06582266256271 -7.582144225230069 2.8370607753949093
      vertex 10.914286114463632 -7.84461322589801 3.085786437626905
    endloop
  endfacet
  facet normal 0.8660254039137254 -0.4999999997760688 8.358155722514664e-15
    outer loop
      vertex 7.721687838435173 -13.374355651438236 0
      vertex 11.62139289533349 -6.61986835432358 2.5
      vertex 11.426302573404735 -6.957774704170932 2.538429439193539
    endloop
  endfacet
  facet normal 0.8660254039137267 -0.4999999997760666 5.257635135559663e-15
    outer loop
      vertex 7.721687838435173 -13.374355651438236 0
      vertex 11.816483217262242 -6.281962004476229 2.538429439193539
      vertex 11.62139289533349 -6.61986835432358 2.5
    endloop
  endfacet
  facet normal 0.8660254039138021 -0.49999999977593584 -5.246652585334297e-13
    outer loop
      vertex 7.721687838435173 -13.374355651438236 0
      vertex 12.004076327527187 -5.957041206153442 2.6522409349774265
      vertex 11.816483217262242 -6.281962004476229 2.538429439193539
    endloop
  endfacet
  facet normal 0.866025403913727 -0.49999999977606624 1.3145075323136488e-15
    outer loop
      vertex 7.721687838435173 -13.374355651438236 0
      vertex 10.914286114463632 -7.84461322589801 3.085786437626905
      vertex 10.789923283403333 -8.060015967996183 3.3888595339607956
    endloop
  endfacet
  facet normal 0.8660254039137275 -0.4999999997760651 -6.463808714880331e-16
    outer loop
      vertex 7.721687838435173 -13.374355651438236 0
      vertex 10.789923283403333 -8.060015967996183 3.3888595339607956
      vertex 10.697513363235979 -8.220074644945004 3.7346331352698203
    endloop
  endfacet
  facet normal 0.8660254039137267 -0.4999999997760664 2.0049010966948894e-15
    outer loop
      vertex 7.721687838435173 -13.374355651438236 0
      vertex 10.697513363235979 -8.220074644945004 3.7346331352698203
      vertex 10.64060761536952 -8.318638291551272 4.109819355967743
    endloop
  endfacet
  facet normal 0.8660254039137281 -0.4999999997760642 -2.9171414180418264e-15
    outer loop
      vertex 7.721687838435173 -13.374355651438236 0
      vertex 10.64060761536952 -8.318638291551272 4.109819355967743
      vertex 10.621392895781359 -8.351919162151033 4.5
    endloop
  endfacet
  facet normal 0.8660254039137274 -0.49999999977606535 0
    outer loop
      vertex 7.721687838435173 -13.374355651438236 0
      vertex 9.368430139647845 -10.522114317061757 7.75
      vertex 9.368430139647845 -10.522114317061757 10.25
    endloop
  endfacet
  facet normal 0.8660254039137283 -0.49999999977606396 2.8192066635113324e-15
    outer loop
      vertex 9.368430139647845 -10.522114317061757 7.75
      vertex 10.621392895781359 -8.351919162151033 4.5
      vertex 10.64060761536952 -8.318638291551272 4.890180644032257
    endloop
  endfacet
  facet normal 0.866025403913726 -0.49999999977606774 -1.7346052553812268e-15
    outer loop
      vertex 9.368430139647845 -10.522114317061757 7.75
      vertex 10.64060761536952 -8.318638291551272 4.890180644032257
      vertex 10.697513363235979 -8.220074644945004 5.265366864730179
    endloop
  endfacet
  facet normal 0.8660254039137273 -0.49999999977606546 9.665787250234081e-16
    outer loop
      vertex 9.368430139647845 -10.522114317061757 7.75
      vertex 10.697513363235979 -8.220074644945004 5.265366864730179
      vertex 10.789923283403333 -8.060015967996183 5.611140466039204
    endloop
  endfacet
  facet normal 0.866025403913727 -0.49999999977606596 -3.1865831487221335e-16
    outer loop
      vertex 9.368430139647845 -10.522114317061757 7.75
      vertex 10.789923283403333 -8.060015967996183 5.611140466039204
      vertex 10.914286114463632 -7.84461322589801 5.914213562373095
    endloop
  endfacet
  facet normal 0.8660254039137266 -0.49999999977606663 -6.701384369394061e-16
    outer loop
      vertex 9.368430139647845 -10.522114317061757 7.75
      vertex 10.914286114463632 -7.84461322589801 5.914213562373095
      vertex 11.06582266256271 -7.582144225230069 6.162939224605091
    endloop
  endfacet
  facet normal 0.8660254039137282 -0.49999999977606396 5.2859341968082336e-15
    outer loop
      vertex 9.368430139647845 -10.522114317061757 7.75
      vertex 11.06582266256271 -7.582144225230069 6.162939224605091
      vertex 11.23870946313979 -7.282695502493716 6.347759065022574
    endloop
  endfacet
  facet normal 0.8660254039137268 -0.49999999977606613 0
    outer loop
      vertex 11.816522294260336 -6.28189432113008 7.75
      vertex 11.23870946313979 -7.282695502493716 6.347759065022574
      vertex 11.426302573404735 -6.957774704170932 6.461570560806461
    endloop
  endfacet
  facet normal 0.8660254039137271 -0.49999999977606596 -4.527806535985941e-16
    outer loop
      vertex 11.816522294260336 -6.28189432113008 7.75
      vertex 9.368430139647845 -10.522114317061757 7.75
      vertex 11.23870946313979 -7.282695502493716 6.347759065022574
    endloop
  endfacet
  facet normal 0.8660254039137271 -0.49999999977606585 0
    outer loop
      vertex 7.721687838435173 -13.374355651438236 0
      vertex 15.443375669419765 0 0
      vertex 12.004076327527187 -5.957041206153442 2.6522409349774265
    endloop
  endfacet
  facet normal 0 0 -1
    outer loop
      vertex 15.443375669419765 0 0
      vertex 7 -12.12435565298214 0
      vertex 14 0 0
    endloop
  endfacet
  facet normal 0.8660254039137273 -0.49999999977606563 0
    outer loop
      vertex 15.443375669419765 0 0
      vertex 12.176963128104267 -5.657592483417092 2.8370607753949093
      vertex 12.004076327527187 -5.957041206153442 2.6522409349774265
    endloop
  endfacet
  facet normal 0.8660254039137268 -0.4999999997760665 -1.4298256874844717e-15
    outer loop
      vertex 15.443375669419765 0 0
      vertex 12.328499676203345 -5.395123482749151 3.085786437626905
      vertex 12.176963128104267 -5.657592483417092 2.8370607753949093
    endloop
  endfacet
  facet normal 0.8660254039137275 -0.4999999997760649 2.675654778704216e-15
    outer loop
      vertex 15.443375669419765 0 0
      vertex 12.452862507263644 -5.179720740650976 3.3888595339607956
      vertex 12.328499676203345 -5.395123482749151 3.085786437626905
    endloop
  endfacet
  facet normal 0.8660254039137267 -0.49999999977606663 -2.637100033114266e-15
    outer loop
      vertex 15.443375669419765 0 0
      vertex 12.545272427430998 -5.019662063702157 3.7346331352698203
      vertex 12.452862507263644 -5.179720740650976 3.3888595339607956
    endloop
  endfacet
  facet normal 0.8660254039137297 -0.49999999977606147 6.89157538415255e-15
    outer loop
      vertex 15.443375669419765 0 0
      vertex 12.452862507263644 -5.179720740650976 5.611140466039204
      vertex 12.545272427430998 -5.019662063702157 5.265366864730179
    endloop
  endfacet
  facet normal 0.8660254039137203 -0.4999999997760774 -1.703720668475591e-14
    outer loop
      vertex 15.443375669419765 0 0
      vertex 12.328499676203345 -5.395123482749151 5.914213562373095
      vertex 12.452862507263644 -5.179720740650976 5.611140466039204
    endloop
  endfacet
  facet normal 0.8660254039137268 -0.49999999977606624 -6.832927504491282e-16
    outer loop
      vertex 15.443375669419765 0 0
      vertex 12.602178175297457 -4.921098417095888 4.109819355967743
      vertex 12.545272427430998 -5.019662063702157 3.7346331352698203
    endloop
  endfacet
  facet normal 0.8660254039137275 -0.49999999977606513 7.479086749233601e-16
    outer loop
      vertex 15.443375669419765 0 0
      vertex 12.62139289488562 -4.887817546496127 4.5
      vertex 12.602178175297457 -4.921098417095888 4.109819355967743
    endloop
  endfacet
  facet normal 0.8660254039137271 -0.49999999977606596 -8.753831035618793e-16
    outer loop
      vertex 15.443375669419765 0 0
      vertex 12.602178175297457 -4.921098417095888 4.890180644032257
      vertex 12.62139289488562 -4.887817546496127 4.5
    endloop
  endfacet
  facet normal 0.8660254039137276 -0.499999999776065 1.1275610178092999e-15
    outer loop
      vertex 15.443375669419765 0 0
      vertex 12.545272427430998 -5.019662063702157 5.265366864730179
      vertex 12.602178175297457 -4.921098417095888 4.890180644032257
    endloop
  endfacet
  facet normal 0.8660254039137273 -0.4999999997760654 6.602811989670723e-16
    outer loop
      vertex 15.443375669419765 0 0
      vertex 11.816522294260336 -6.28189432113008 7.75
      vertex 12.328499676203345 -5.395123482749151 5.914213562373095
    endloop
  endfacet
  facet normal 0.8660254039137256 -0.4999999997760685 1.40912592804825e-15
    outer loop
      vertex 11.816522294260336 -6.28189432113008 7.75
      vertex 11.426302573404735 -6.957774704170932 6.461570560806461
      vertex 11.62139289533349 -6.61986835432358 6.5
    endloop
  endfacet
  facet normal 0.8660254039137266 -0.49999999977606696 8.214272954397828e-16
    outer loop
      vertex 11.816522294260336 -6.28189432113008 7.75
      vertex 11.62139289533349 -6.61986835432358 6.5
      vertex 11.816483217262242 -6.281962004476229 6.461570560806461
    endloop
  endfacet
  facet normal 0.8660254039137286 -0.4999999997760631 8.21163633393685e-16
    outer loop
      vertex 11.816522294260336 -6.28189432113008 7.75
      vertex 11.816483217262242 -6.281962004476229 6.461570560806461
      vertex 12.004076327527187 -5.957041206153442 6.347759065022574
    endloop
  endfacet
  facet normal 0.8660254039137274 -0.4999999997760654 1.335910438345014e-16
    outer loop
      vertex 11.816522294260336 -6.28189432113008 7.75
      vertex 12.004076327527187 -5.957041206153442 6.347759065022574
      vertex 12.176963128104267 -5.657592483417092 6.162939224605091
    endloop
  endfacet
  facet normal 0.8660254039137261 -0.49999999977606757 -1.2879888415022904e-15
    outer loop
      vertex 11.816522294260336 -6.28189432113008 7.75
      vertex 12.176963128104267 -5.657592483417092 6.162939224605091
      vertex 12.328499676203345 -5.395123482749151 5.914213562373095
    endloop
  endfacet
  facet normal 0.8660254039137271 -0.49999999977606585 -1.1227253691239512e-16
    outer loop
      vertex 15.443375669419765 0 0
      vertex 14.368430137408504 -1.8618602779244873 7.75
      vertex 11.816522294260336 -6.28189432113008 7.75
    endloop
  endfacet
  facet normal 0.8660254039137272 -0.4999999997760658 0
    outer loop
      vertex 15.443375669419765 0 0
      vertex 14.368430137408504 -1.8618602779244873 10.25
      vertex 14.368430137408504 -1.8618602779244873 7.75
    endloop
  endfacet
  facet normal 0 -1 0
    outer loop
      vertex -7.721687838435173 -13.374355651438236 16.5
      vertex 7.721687838435173 -13.374355651438236 0
      vertex 7.721687838435173 -13.374355651438236 16.5
    endloop
  endfacet
  facet normal 0 0 1
    outer loop
      vertex -7.721687838435173 -13.374355651438236 16.5
      vertex 7.721687838435173 -13.374355651438236 16.5
      vertex 7.15 -12.384163274117473 16.5
    endloop
  endfacet
  facet normal 0.8660254039137272 -0.49999999977606563 0
    outer loop
      vertex 7.721687838435173 -13.374355651438236 0
      vertex 9.368430139647845 -10.522114317061757 10.25
      vertex 7.721687838435173 -13.374355651438236 16.5
    endloop
  endfacet
  facet normal 0.8660254039137271 -0.4999999997760659 -1.7053025658242405e-16
    outer loop
      vertex 7.721687838435173 -13.374355651438236 16.5
      vertex 9.368430139647845 -10.522114317061757 10.25
      vertex 14.368430137408504 -1.8618602779244873 10.25
    endloop
  endfacet
  facet normal 0 0 1
    outer loop
      vertex 7.721687838435173 -13.374355651438236 16.5
      vertex 15.443375669419765 0 16.5
      vertex 7.15 -12.384163274117473 16.5
    endloop
  endfacet
  facet normal 0.8660254039137272 -0.4999999997760655 0
    outer loop
      vertex 15.443375669419765 0 0
      vertex 15.443375669419765 0 16.5
      vertex 14.368430137408504 -1.8618602779244873 10.25
    endloop
  endfacet
  facet normal 0.8660254039137272 -0.49999999977606585 1.4723055393991898e-16
    outer loop
      vertex 7.721687838435173 -13.374355651438236 16.5
      vertex 14.368430137408504 -1.8618602779244873 10.25
      vertex 15.443375669419765 0 16.5
    endloop
  endfacet
  facet normal 0 0 1
    outer loop
      vertex 15.443375669419765 0 16.5
      vertex 14.3 0 16.5
      vertex 7.15 -12.384163274117473 16.5
    endloop
  endfacet
  facet normal 0 0 -1
    outer loop
      vertex -7.721687838435173 13.374355651438236 0
      vertex 7.721687838435173 13.374355651438236 0
      vertex 7 12.12435565298214 0
    endloop
  endfacet
  facet normal 0 1 0
    outer loop
      vertex -7.721687838435173 13.374355651438236 0
      vertex 7.721687838435173 13.374355651438236 16.5
      vertex 7.721687838435173 13.374355651438236 0
    endloop
  endfacet
  facet normal 0 0 -1
    outer loop
      vertex 15.443375669419765 0 0
      vertex 14 0 0
      vertex 7 12.12435565298214 0
    endloop
  endfacet
  facet normal 0.8660254039137271 0.49999999977606585 0
    outer loop
      vertex 15.443375669419765 0 0
      vertex 7.721687838435173 13.374355651438236 0
      vertex 15.443375669419765 0 16.5
    endloop
  endfacet
  facet normal 0 0 -1
    outer loop
      vertex 15.443375669419765 0 0
      vertex 7 12.12435565298214 0
      vertex 7.721687838435173 13.374355651438236 0
    endloop
  endfacet
  facet normal 0 0 1
    outer loop
      vertex 7.721687838435173 13.374355651438236 16.5
      vertex -7.15 12.384163274117473 16.5
      vertex 7.15 12.384163274117473 16.5
    endloop
  endfacet
  facet normal 0 0 1
    outer loop
      vertex 15.443375669419765 0 16.5
      vertex 7.721687838435173 13.374355651438236 16.5
      vertex 14.3 0 16.5
    endloop
  endfacet
  facet normal 0.8660254039137271 0.49999999977606585 0
    outer loop
      vertex 7.721687838435173 13.374355651438236 0
      vertex 7.721687838435173 13.374355651438236 16.5
      vertex 15.443375669419765 0 16.5
    endloop
  endfacet
  facet normal 0 0 1
    outer loop
      vertex 7.721687838435173 13.374355651438236 16.5
      vertex 7.15 12.384163274117473 16.5
      vertex 14.3 0 16.5
    endloop
  endfacet
  facet normal 0.44096063217417675 0.7637662190633663 0.4713967368259991
    outer loop
      vertex -11.292608470745625 4.689339684650177 3.3888595339607956
      vertex -12.375140224184616 5.314339683904495 3.3888595339607956
      vertex -11.385018390954368 4.529281007725251 3.7346331352698203
    endloop
  endfacet
  facet normal 0.4409606321741773 0.7637662190633665 0.4713967368259983
    outer loop
      vertex -11.385018390954368 4.529281007725251 3.7346331352698203
      vertex -12.375140224184616 5.314339683904495 3.3888595339607956
      vertex -12.46755014435197 5.1542810069556735 3.7346331352698203
    endloop
  endfacet
  facet normal 0.4784701678661046 0.8287346406501023 0.29028467725446255
    outer loop
      vertex -11.44192413884631 4.430717361133698 4.109819355967743
      vertex -12.46755014435197 5.1542810069556735 3.7346331352698203
      vertex -12.524455892218427 5.055717360349407 4.109819355967743
    endloop
  endfacet
  facet normal 0.47847016786610425 0.8287346406501022 0.2902846772544635
    outer loop
      vertex -11.385018390954368 4.529281007725251 3.7346331352698203
      vertex -12.46755014435197 5.1542810069556735 3.7346331352698203
      vertex -11.44192413884631 4.430717361133698 4.109819355967743
    endloop
  endfacet
  facet normal 0.3171966420818223 0.5494007000759566 0.7730104533627374
    outer loop
      vertex -11.168245639629628 4.904742426716191 3.085786437626905
      vertex -12.099240845025239 5.792211426670609 2.8370607753949093
      vertex -12.250777393124316 5.529742426002667 3.085786437626905
    endloop
  endfacet
  facet normal 0.23569836841299888 0.4082415493524013 0.8819212643483549
    outer loop
      vertex -11.016709091462683 5.16721142734495 2.8370607753949093
      vertex -11.926354044448157 6.091660149406961 2.6522409349774265
      vertex -12.099240845025239 5.792211426670609 2.8370607753949093
    endloop
  endfacet
  facet normal 0.38650522668136916 0.669446690003058 0.6343932841636433
    outer loop
      vertex -11.292608470745625 4.689339684650177 3.3888595339607956
      vertex -12.250777393124316 5.529742426002667 3.085786437626905
      vertex -12.375140224184616 5.314339683904495 3.3888595339607956
    endloop
  endfacet
  facet normal 0.3171966420818227 0.5494007000759569 0.7730104533627371
    outer loop
      vertex -11.016709091462683 5.16721142734495 2.8370607753949093
      vertex -12.099240845025239 5.792211426670609 2.8370607753949093
      vertex -11.168245639629628 4.904742426716191 3.085786437626905
    endloop
  endfacet
  facet normal 0.23569836841299865 0.4082415493524012 0.8819212643483552
    outer loop
      vertex -11.016709091462683 5.16721142734495 2.8370607753949093
      vertex -10.84382229080817 5.4666601500365966 2.6522409349774265
      vertex -11.926354044448157 6.091660149406961 2.6522409349774265
    endloop
  endfacet
  facet normal 0.04900857016478049 0.08488533353170405 0.9951847266721968
    outer loop
      vertex -10.656229180459208 5.791580948310874 2.538429439193539
      vertex -11.54367061225446 6.754487297577097 2.5
      vertex -11.738760934183212 6.416580947729745 2.538429439193539
    endloop
  endfacet
  facet normal -0.04900857016478038 -0.08488533353170388 0.9951847266721968
    outer loop
      vertex -10.461138858443082 6.129487298107781 2.5
      vertex -11.348580290325707 7.09239364742445 2.538429439193539
      vertex -11.54367061225446 6.754487297577097 2.5
    endloop
  endfacet
  facet normal 0.1451423386272308 0.2513939048317306 0.9569403357322092
    outer loop
      vertex -10.84382229080817 5.4666601500365966 2.6522409349774265
      vertex -10.656229180459208 5.791580948310874 2.538429439193539
      vertex -11.738760934183212 6.416580947729745 2.538429439193539
    endloop
  endfacet
  facet normal 0.04900857016478046 0.08488533353170402 0.9951847266721968
    outer loop
      vertex -10.656229180459208 5.791580948310874 2.538429439193539
      vertex -10.461138858443082 6.129487298107781 2.5
      vertex -11.54367061225446 6.754487297577097 2.5
    endloop
  endfacet
  facet normal -0.04900857016478049 -0.08488533353170398 0.9951847266721969
    outer loop
      vertex -10.461138858443082 6.129487298107781 2.5
      vertex -10.266048536426954 6.467393647904688 2.538429439193539
      vertex -11.348580290325707 7.09239364742445 2.538429439193539
    endloop
  endfacet
  facet normal 0.14514233862723075 0.2513939048317305 0.956940335732209
    outer loop
      vertex -10.84382229080817 5.4666601500365966 2.6522409349774265
      vertex -11.738760934183212 6.416580947729745 2.538429439193539
      vertex -11.926354044448157 6.091660149406961 2.6522409349774265
    endloop
  endfacet
  facet normal 0.38650522668136944 0.6694466900030582 0.6343932841636427
    outer loop
      vertex -11.168245639629628 4.904742426716191 3.085786437626905
      vertex -12.250777393124316 5.529742426002667 3.085786437626905
      vertex -11.292608470745625 4.689339684650177 3.3888595339607956
    endloop
  endfacet
  facet normal 0.49759236333609896 0.8618552547563954 0.09801714032955915
    outer loop
      vertex -11.46113885844308 4.397436490538904 4.5
      vertex -12.524455892218427 5.055717360349407 4.109819355967743
      vertex -12.54367061180659 5.022436489749644 4.5
    endloop
  endfacet
  facet normal 0.4975923633360987 0.8618552547563955 0.09801714032956006
    outer loop
      vertex -11.44192413884631 4.430717361133698 4.109819355967743
      vertex -12.524455892218427 5.055717360349407 4.109819355967743
      vertex -11.46113885844308 4.397436490538904 4.5
    endloop
  endfacet
  facet normal 0.4975923633360989 0.8618552547563952 -0.09801714032956006
    outer loop
      vertex -11.46113885844308 4.397436490538904 4.5
      vertex -12.54367061180659 5.022436489749644 4.5
      vertex -11.44192413884631 4.430717361133698 4.890180644032257
    endloop
  endfacet
  facet normal 0.49759236333609874 0.8618552547563956 -0.09801714032955897
    outer loop
      vertex -11.44192413884631 4.430717361133698 4.890180644032257
      vertex -12.54367061180659 5.022436489749644 4.5
      vertex -12.524455892218427 5.055717360349407 4.890180644032257
    endloop
  endfacet
  facet normal 0.4784701678661043 0.8287346406501024 -0.2902846772544629
    outer loop
      vertex -11.385018390954368 4.529281007725251 5.265366864730179
      vertex -12.524455892218427 5.055717360349407 4.890180644032257
      vertex -12.46755014435197 5.1542810069556735 5.265366864730179
    endloop
  endfacet
  facet normal 0.4784701678661044 0.8287346406501019 -0.29028467725446383
    outer loop
      vertex -11.44192413884631 4.430717361133698 4.890180644032257
      vertex -12.524455892218427 5.055717360349407 4.890180644032257
      vertex -11.385018390954368 4.529281007725251 5.265366864730179
    endloop
  endfacet
  facet normal 0.4409606321741772 0.7637662190633664 -0.4713967368259986
    outer loop
      vertex -11.385018390954368 4.529281007725251 5.265366864730179
      vertex -12.46755014435197 5.1542810069556735 5.265366864730179
      vertex -11.292608470745625 4.689339684650177 5.611140466039204
    endloop
  endfacet
  facet normal 0.3865052266813693 0.6694466900030582 -0.6343932841636427
    outer loop
      vertex -11.292608470745625 4.689339684650177 5.611140466039204
      vertex -12.375140224184616 5.314339683904495 5.611140466039204
      vertex -11.168245639629628 4.904742426716191 5.914213562373095
    endloop
  endfacet
  facet normal 0.44096063217417714 0.7637662190633668 -0.471396736825998
    outer loop
      vertex -11.292608470745625 4.689339684650177 5.611140466039204
      vertex -12.46755014435197 5.1542810069556735 5.265366864730179
      vertex -12.375140224184616 5.314339683904495 5.611140466039204
    endloop
  endfacet
  facet normal 0.3865052266813693 0.6694466900030579 -0.6343932841636432
    outer loop
      vertex -11.168245639629628 4.904742426716191 5.914213562373095
      vertex -12.375140224184616 5.314339683904495 5.611140466039204
      vertex -12.250777393124316 5.529742426002667 5.914213562373095
    endloop
  endfacet
  facet normal 0.31719664208182247 0.5494007000759565 -0.7730104533627375
    outer loop
      vertex -11.016709091462683 5.16721142734495 6.162939224605091
      vertex -12.250777393124316 5.529742426002667 5.914213562373095
      vertex -12.099240845025239 5.792211426670609 6.162939224605091
    endloop
  endfacet
  facet normal 0.2356983684129993 0.4082415493524023 -0.8819212643483545
    outer loop
      vertex -10.84382229080817 5.4666601500365966 6.347759065022574
      vertex -12.099240845025239 5.792211426670609 6.162939224605091
      vertex -11.926354044448157 6.091660149406961 6.347759065022574
    endloop
  endfacet
  facet normal 0.3171966420818225 0.5494007000759571 -0.7730104533627371
    outer loop
      vertex -11.168245639629628 4.904742426716191 5.914213562373095
      vertex -12.250777393124316 5.529742426002667 5.914213562373095
      vertex -11.016709091462683 5.16721142734495 6.162939224605091
    endloop
  endfacet
  facet normal 0.2356983684129992 0.4082415493524019 -0.8819212643483546
    outer loop
      vertex -11.016709091462683 5.16721142734495 6.162939224605091
      vertex -12.099240845025239 5.792211426670609 6.162939224605091
      vertex -10.84382229080817 5.4666601500365966 6.347759065022574
    endloop
  endfacet
  facet normal 0.14514233862723025 0.2513939048317297 -0.9569403357322094
    outer loop
      vertex -10.84382229080817 5.4666601500365966 6.347759065022574
      vertex -11.926354044448157 6.091660149406961 6.347759065022574
      vertex -10.656229180459208 5.791580948310874 6.461570560806461
    endloop
  endfacet
  facet normal 0.14514233862723025 0.2513939048317296 -0.9569403357322095
    outer loop
      vertex -10.656229180459208 5.791580948310874 6.461570560806461
      vertex -11.926354044448157 6.091660149406961 6.347759065022574
      vertex -11.738760934183212 6.416580947729745 6.461570560806461
    endloop
  endfacet
  facet normal 0.04900857016478049 0.08488533353170406 -0.9951847266721968
    outer loop
      vertex -10.461138858443082 6.129487298107781 6.5
      vertex -11.738760934183212 6.416580947729745 6.461570560806461
      vertex -11.54367061225446 6.754487297577097 6.5
    endloop
  endfacet
  facet normal 0.049008570164780475 0.08488533353170402 -0.9951847266721968
    outer loop
      vertex -10.656229180459208 5.791580948310874 6.461570560806461
      vertex -11.738760934183212 6.416580947729745 6.461570560806461
      vertex -10.461138858443082 6.129487298107781 6.5
    endloop
  endfacet
  facet normal -0.04900857016478044 -0.084885333531704 -0.9951847266721968
    outer loop
      vertex -10.461138858443082 6.129487298107781 6.5
      vertex -11.54367061225446 6.754487297577097 6.5
      vertex -10.266048536426954 6.467393647904688 6.461570560806461
    endloop
  endfacet
  facet normal -0.14514233862723108 -0.25139390483173096 0.9569403357322089
    outer loop
      vertex -10.266048536426954 6.467393647904688 2.538429439193539
      vertex -11.160987180060761 7.417314445747234 2.6522409349774265
      vertex -11.348580290325707 7.09239364742445 2.538429439193539
    endloop
  endfacet
  facet normal -0.2356983684129987 -0.4082415493524016 0.8819212643483549
    outer loop
      vertex -10.07845542607799 6.792314446178964 2.6522409349774265
      vertex -10.98810037948368 7.716763168483586 2.8370607753949093
      vertex -11.160987180060761 7.417314445747234 2.6522409349774265
    endloop
  endfacet
  facet normal -0.14514233862723064 -0.2513939048317306 0.9569403357322092
    outer loop
      vertex -10.266048536426954 6.467393647904688 2.538429439193539
      vertex -10.07845542607799 6.792314446178964 2.6522409349774265
      vertex -11.160987180060761 7.417314445747234 2.6522409349774265
    endloop
  endfacet
  facet normal -0.23569836841299996 -0.40824154935240264 0.8819212643483542
    outer loop
      vertex -10.07845542607799 6.792314446178964 2.6522409349774265
      vertex -9.90556862542348 7.091763168870611 2.8370607753949093
      vertex -10.98810037948368 7.716763168483586 2.8370607753949093
    endloop
  endfacet
  facet normal -0.3171966420818212 -0.5494007000759542 0.7730104533627398
    outer loop
      vertex -9.90556862542348 7.091763168870611 2.8370607753949093
      vertex -9.754032077256532 7.354232169499371 3.085786437626905
      vertex -10.836563831384602 7.97923216915153 3.085786437626905
    endloop
  endfacet
  facet normal -0.3171966420818218 -0.5494007000759548 0.7730104533627391
    outer loop
      vertex -9.90556862542348 7.091763168870611 2.8370607753949093
      vertex -10.836563831384602 7.97923216915153 3.085786437626905
      vertex -10.98810037948368 7.716763168483586 2.8370607753949093
    endloop
  endfacet
  facet normal -0.3865052266813701 -0.6694466900030587 0.634393284163642
    outer loop
      vertex -9.754032077256532 7.354232169499371 3.085786437626905
      vertex -10.712201000324303 8.1946349112497 3.3888595339607956
      vertex -10.836563831384602 7.97923216915153 3.085786437626905
    endloop
  endfacet
  facet normal -0.44096063217417675 -0.7637662190633668 0.47139673682599836
    outer loop
      vertex -9.629669246140535 7.569634911565386 3.3888595339607956
      vertex -10.619791080156949 8.354693588198522 3.7346331352698203
      vertex -10.712201000324303 8.1946349112497 3.3888595339607956
    endloop
  endfacet
  facet normal -0.38650522668136866 -0.6694466900030577 0.6343932841636439
    outer loop
      vertex -9.754032077256532 7.354232169499371 3.085786437626905
      vertex -9.629669246140535 7.569634911565386 3.3888595339607956
      vertex -10.712201000324303 8.1946349112497 3.3888595339607956
    endloop
  endfacet
  facet normal -0.4784701678661043 -0.8287346406501018 0.2902846772544644
    outer loop
      vertex -9.537259325931794 7.729693588490311 3.7346331352698203
      vertex -10.562885332290492 8.45325723480479 4.109819355967743
      vertex -10.619791080156949 8.354693588198522 3.7346331352698203
    endloop
  endfacet
  facet normal -0.4409606321741782 -0.7637662190633676 0.47139673682599575
    outer loop
      vertex -9.629669246140535 7.569634911565386 3.3888595339607956
      vertex -9.537259325931794 7.729693588490311 3.7346331352698203
      vertex -10.619791080156949 8.354693588198522 3.7346331352698203
    endloop
  endfacet
  facet normal -0.47847016786610386 -0.8287346406501017 0.2902846772544655
    outer loop
      vertex -9.537259325931794 7.729693588490311 3.7346331352698203
      vertex -9.48035357803985 7.828257235081864 4.109819355967743
      vertex -10.562885332290492 8.45325723480479 4.109819355967743
    endloop
  endfacet
  facet normal -0.4975923633360986 -0.8618552547563961 0.09801714032955519
    outer loop
      vertex -9.48035357803985 7.828257235081864 4.109819355967743
      vertex -10.543670612702329 8.48653810540455 4.5
      vertex -10.562885332290492 8.45325723480479 4.109819355967743
    endloop
  endfacet
  facet normal -0.4975923633360984 -0.8618552547563962 -0.09801714032955516
    outer loop
      vertex -9.461138858443082 7.861538105676657 4.5
      vertex -10.562885332290492 8.45325723480479 4.890180644032257
      vertex -10.543670612702329 8.48653810540455 4.5
    endloop
  endfacet
  facet normal -0.49759236333609835 -0.8618552547563961 0.09801714032955586
    outer loop
      vertex -9.48035357803985 7.828257235081864 4.109819355967743
      vertex -9.461138858443082 7.861538105676657 4.5
      vertex -10.543670612702329 8.48653810540455 4.5
    endloop
  endfacet
  facet normal -0.47847016786610397 -0.8287346406501019 -0.29028467725446466
    outer loop
      vertex -9.48035357803985 7.828257235081864 4.890180644032257
      vertex -10.619791080156949 8.354693588198522 5.265366864730179
      vertex -10.562885332290492 8.45325723480479 4.890180644032257
    endloop
  endfacet
  facet normal -0.4975923633360986 -0.861855254756396 -0.09801714032955589
    outer loop
      vertex -9.461138858443082 7.861538105676657 4.5
      vertex -9.48035357803985 7.828257235081864 4.890180644032257
      vertex -10.562885332290492 8.45325723480479 4.890180644032257
    endloop
  endfacet
  facet normal -0.47847016786610413 -0.8287346406501014 -0.2902846772544659
    outer loop
      vertex -9.48035357803985 7.828257235081864 4.890180644032257
      vertex -9.537259325931794 7.729693588490311 5.265366864730179
      vertex -10.619791080156949 8.354693588198522 5.265366864730179
    endloop
  endfacet
  facet normal -0.31719664208182147 -0.549400700075954 -0.7730104533627398
    outer loop
      vertex -9.754032077256532 7.354232169499371 5.914213562373095
      vertex -9.90556862542348 7.091763168870611 6.162939224605091
      vertex -10.98810037948368 7.716763168483586 6.162939224605091
    endloop
  endfacet
  facet normal -0.44096063217417764 -0.7637662190633666 -0.47139673682599775
    outer loop
      vertex -9.537259325931794 7.729693588490311 5.265366864730179
      vertex -10.712201000324303 8.1946349112497 5.611140466039204
      vertex -10.619791080156949 8.354693588198522 5.265366864730179
    endloop
  endfacet
  facet normal -0.4409606321741775 -0.7637662190633681 -0.4713967368259953
    outer loop
      vertex -9.537259325931794 7.729693588490311 5.265366864730179
      vertex -9.629669246140535 7.569634911565386 5.611140466039204
      vertex -10.712201000324303 8.1946349112497 5.611140466039204
    endloop
  endfacet
  facet normal -0.38650522668136933 -0.6694466900030589 -0.6343932841636422
    outer loop
      vertex -9.629669246140535 7.569634911565386 5.611140466039204
      vertex -10.836563831384602 7.97923216915153 5.914213562373095
      vertex -10.712201000324303 8.1946349112497 5.611140466039204
    endloop
  endfacet
  facet normal -0.3171966420818215 -0.5494007000759549 -0.7730104533627391
    outer loop
      vertex -9.754032077256532 7.354232169499371 5.914213562373095
      vertex -10.98810037948368 7.716763168483586 6.162939224605091
      vertex -10.836563831384602 7.97923216915153 5.914213562373095
    endloop
  endfacet
  facet normal -0.3865052266813693 -0.6694466900030572 -0.6343932841636439
    outer loop
      vertex -9.754032077256532 7.354232169499371 5.914213562373095
      vertex -10.836563831384602 7.97923216915153 5.914213562373095
      vertex -9.629669246140535 7.569634911565386 5.611140466039204
    endloop
  endfacet
  facet normal -0.1451423386272304 -0.25139390483173013 -0.9569403357322093
    outer loop
      vertex -10.07845542607799 6.792314446178964 6.347759065022574
      vertex -11.348580290325707 7.09239364742445 6.461570560806461
      vertex -11.160987180060761 7.417314445747234 6.347759065022574
    endloop
  endfacet
  facet normal -0.049008570164780434 -0.0848853335317039 -0.9951847266721969
    outer loop
      vertex -10.266048536426954 6.467393647904688 6.461570560806461
      vertex -11.54367061225446 6.754487297577097 6.5
      vertex -11.348580290325707 7.09239364742445 6.461570560806461
    endloop
  endfacet
  facet normal -0.23569836841299963 -0.4082415493524021 -0.8819212643483545
    outer loop
      vertex -9.90556862542348 7.091763168870611 6.162939224605091
      vertex -11.160987180060761 7.417314445747234 6.347759065022574
      vertex -10.98810037948368 7.716763168483586 6.162939224605091
    endloop
  endfacet
  facet normal -0.14514233862723028 -0.2513939048317296 -0.9569403357322094
    outer loop
      vertex -10.266048536426954 6.467393647904688 6.461570560806461
      vertex -11.348580290325707 7.09239364742445 6.461570560806461
      vertex -10.07845542607799 6.792314446178964 6.347759065022574
    endloop
  endfacet
  facet normal -0.2356983684129999 -0.4082415493524037 -0.8819212643483536
    outer loop
      vertex -10.07845542607799 6.792314446178964 6.347759065022574
      vertex -11.160987180060761 7.417314445747234 6.347759065022574
      vertex -9.90556862542348 7.091763168870611 6.162939224605091
    endloop
  endfacet
  facet normal 0.3171966420818226 0.5494007000759571 0.7730104533627372
    outer loop
      vertex 9.983290908537317 -6.95714422563719 2.8370607753949093
      vertex 9.831754360370372 -7.219613226265949 3.085786437626905
      vertex 10.914286114463632 -7.84461322589801 3.085786437626905
    endloop
  endfacet
  facet normal 0.23569836841299924 0.40824154935240187 0.8819212643483547
    outer loop
      vertex 9.983290908537317 -6.95714422563719 2.8370607753949093
      vertex 11.06582266256271 -7.582144225230069 2.8370607753949093
      vertex 10.15617770919183 -6.657695502945544 2.6522409349774265
    endloop
  endfacet
  facet normal 0.14514233862723053 0.25139390483173013 0.9569403357322093
    outer loop
      vertex 10.15617770919183 -6.657695502945544 2.6522409349774265
      vertex 11.23870946313979 -7.282695502493716 2.6522409349774265
      vertex 10.343770819540792 -6.332774704671266 2.538429439193539
    endloop
  endfacet
  facet normal 0.14514233862723092 0.25139390483173046 0.9569403357322092
    outer loop
      vertex 10.343770819540792 -6.332774704671266 2.538429439193539
      vertex 11.23870946313979 -7.282695502493716 2.6522409349774265
      vertex 11.426302573404735 -6.957774704170932 2.538429439193539
    endloop
  endfacet
  facet normal 0.2356983684129989 0.4082415493524016 0.8819212643483549
    outer loop
      vertex 10.15617770919183 -6.657695502945544 2.6522409349774265
      vertex 11.06582266256271 -7.582144225230069 2.8370607753949093
      vertex 11.23870946313979 -7.282695502493716 2.6522409349774265
    endloop
  endfacet
  facet normal 0.31719664208182297 0.5494007000759574 0.7730104533627368
    outer loop
      vertex 9.983290908537317 -6.95714422563719 2.8370607753949093
      vertex 10.914286114463632 -7.84461322589801 3.085786437626905
      vertex 11.06582266256271 -7.582144225230069 2.8370607753949093
    endloop
  endfacet
  facet normal 0.38650522668136916 0.6694466900030572 0.6343932841636439
    outer loop
      vertex 9.831754360370372 -7.219613226265949 3.085786437626905
      vertex 9.707391529254375 -7.435015968331964 3.3888595339607956
      vertex 10.789923283403333 -8.060015967996183 3.3888595339607956
    endloop
  endfacet
  facet normal 0.38650522668136894 0.669446690003057 0.6343932841636445
    outer loop
      vertex 9.831754360370372 -7.219613226265949 3.085786437626905
      vertex 10.789923283403333 -8.060015967996183 3.3888595339607956
      vertex 10.914286114463632 -7.84461322589801 3.085786437626905
    endloop
  endfacet
  facet normal 0.4409606321741774 0.7637662190633664 0.47139673682599836
    outer loop
      vertex 9.707391529254375 -7.435015968331964 3.3888595339607956
      vertex 10.697513363235979 -8.220074644945004 3.7346331352698203
      vertex 10.789923283403333 -8.060015967996183 3.3888595339607956
    endloop
  endfacet
  facet normal 0.44096063217417797 0.7637662190633667 0.4713967368259973
    outer loop
      vertex 9.707391529254375 -7.435015968331964 3.3888595339607956
      vertex 9.614981609045634 -7.59507464525689 3.7346331352698203
      vertex 10.697513363235979 -8.220074644945004 3.7346331352698203
    endloop
  endfacet
  facet normal 0.47847016786610386 0.8287346406501009 0.2902846772544673
    outer loop
      vertex 9.614981609045634 -7.59507464525689 3.7346331352698203
      vertex 9.55807586115369 -7.693638291848444 4.109819355967743
      vertex 10.64060761536952 -8.318638291551272 4.109819355967743
    endloop
  endfacet
  facet normal 0.47847016786610425 0.8287346406501012 0.2902846772544665
    outer loop
      vertex 9.614981609045634 -7.59507464525689 3.7346331352698203
      vertex 10.64060761536952 -8.318638291551272 4.109819355967743
      vertex 10.697513363235979 -8.220074644945004 3.7346331352698203
    endloop
  endfacet
  facet normal 0.497592363336098 0.8618552547563963 0.09801714032955618
    outer loop
      vertex 9.55807586115369 -7.693638291848444 4.109819355967743
      vertex 9.53886114155692 -7.726919162443236 4.5
      vertex 10.621392895781359 -8.351919162151033 4.5
    endloop
  endfacet
  facet normal 0.497592363336099 0.861855254756396 0.09801714032955286
    outer loop
      vertex 9.55807586115369 -7.693638291848444 4.109819355967743
      vertex 10.621392895781359 -8.351919162151033 4.5
      vertex 10.64060761536952 -8.318638291551272 4.109819355967743
    endloop
  endfacet
  facet normal 0.49759236333609813 0.8618552547563966 -0.098017140329553
    outer loop
      vertex 9.53886114155692 -7.726919162443236 4.5
      vertex 10.64060761536952 -8.318638291551272 4.890180644032257
      vertex 10.621392895781359 -8.351919162151033 4.5
    endloop
  endfacet
  facet normal 0.49759236333609885 0.8618552547563958 -0.09801714032955618
    outer loop
      vertex 9.53886114155692 -7.726919162443236 4.5
      vertex 9.55807586115369 -7.693638291848444 4.890180644032257
      vertex 10.64060761536952 -8.318638291551272 4.890180644032257
    endloop
  endfacet
  facet normal 0.47847016786610413 0.8287346406501008 -0.29028467725446766
    outer loop
      vertex 9.55807586115369 -7.693638291848444 4.890180644032257
      vertex 9.614981609045634 -7.59507464525689 5.265366864730179
      vertex 10.697513363235979 -8.220074644945004 5.265366864730179
    endloop
  endfacet
  facet normal 0.4784701678661039 0.8287346406501012 -0.29028467725446677
    outer loop
      vertex 9.55807586115369 -7.693638291848444 4.890180644032257
      vertex 10.697513363235979 -8.220074644945004 5.265366864730179
      vertex 10.64060761536952 -8.318638291551272 4.890180644032257
    endloop
  endfacet
  facet normal 0.44096063217417786 0.7637662190633671 -0.47139673682599686
    outer loop
      vertex 9.614981609045634 -7.59507464525689 5.265366864730179
      vertex 9.707391529254375 -7.435015968331964 5.611140466039204
      vertex 10.789923283403333 -8.060015967996183 5.611140466039204
    endloop
  endfacet
  facet normal 0.44096063217417786 0.7637662190633665 -0.4713967368259979
    outer loop
      vertex 9.614981609045634 -7.59507464525689 5.265366864730179
      vertex 10.789923283403333 -8.060015967996183 5.611140466039204
      vertex 10.697513363235979 -8.220074644945004 5.265366864730179
    endloop
  endfacet
  facet normal 0.38650522668136905 0.669446690003057 -0.6343932841636444
    outer loop
      vertex 9.707391529254375 -7.435015968331964 5.611140466039204
      vertex 10.914286114463632 -7.84461322589801 5.914213562373095
      vertex 10.789923283403333 -8.060015967996183 5.611140466039204
    endloop
  endfacet
  facet normal 0.31719664208182285 0.5494007000759575 -0.7730104533627368
    outer loop
      vertex 9.831754360370372 -7.219613226265949 5.914213562373095
      vertex 11.06582266256271 -7.582144225230069 6.162939224605091
      vertex 10.914286114463632 -7.84461322589801 5.914213562373095
    endloop
  endfacet
  facet normal 0.38650522668136905 0.6694466900030575 -0.6343932841636439
    outer loop
      vertex 9.707391529254375 -7.435015968331964 5.611140466039204
      vertex 9.831754360370372 -7.219613226265949 5.914213562373095
      vertex 10.914286114463632 -7.84461322589801 5.914213562373095
    endloop
  endfacet
  facet normal 0.31719664208182274 0.549400700075957 -0.7730104533627371
    outer loop
      vertex 9.831754360370372 -7.219613226265949 5.914213562373095
      vertex 9.983290908537317 -6.95714422563719 6.162939224605091
      vertex 11.06582266256271 -7.582144225230069 6.162939224605091
    endloop
  endfacet
  facet normal 0.23569836841299954 0.40824154935240264 -0.8819212643483542
    outer loop
      vertex 9.983290908537317 -6.95714422563719 6.162939224605091
      vertex 10.15617770919183 -6.657695502945544 6.347759065022574
      vertex 11.23870946313979 -7.282695502493716 6.347759065022574
    endloop
  endfacet
  facet normal 0.2356983684129995 0.4082415493524023 -0.8819212643483545
    outer loop
      vertex 9.983290908537317 -6.95714422563719 6.162939224605091
      vertex 11.23870946313979 -7.282695502493716 6.347759065022574
      vertex 11.06582266256271 -7.582144225230069 6.162939224605091
    endloop
  endfacet
  facet normal 0.14514233862723022 0.2513939048317296 -0.9569403357322094
    outer loop
      vertex 10.15617770919183 -6.657695502945544 6.347759065022574
      vertex 11.426302573404735 -6.957774704170932 6.461570560806461
      vertex 11.23870946313979 -7.282695502493716 6.347759065022574
    endloop
  endfacet
  facet normal 0.0490085701647806 0.08488533353170412 0.9951847266721967
    outer loop
      vertex 10.343770819540792 -6.332774704671266 2.538429439193539
      vertex 11.426302573404735 -6.957774704170932 2.538429439193539
      vertex 10.53886114155692 -5.99486835487436 2.5
    endloop
  endfacet
  facet normal -0.04900857016478062 -0.08488533353170437 0.9951847266721968
    outer loop
      vertex 10.53886114155692 -5.99486835487436 2.5
      vertex 11.62139289533349 -6.61986835432358 2.5
      vertex 10.733951463573046 -5.656962005077455 2.538429439193539
    endloop
  endfacet
  facet normal 0.04900857016478036 0.08488533353170391 0.9951847266721968
    outer loop
      vertex 10.53886114155692 -5.99486835487436 2.5
      vertex 11.426302573404735 -6.957774704170932 2.538429439193539
      vertex 11.62139289533349 -6.61986835432358 2.5
    endloop
  endfacet
  facet normal -0.04900857016478066 -0.08488533353170441 0.9951847266721968
    outer loop
      vertex 10.733951463573046 -5.656962005077455 2.538429439193539
      vertex 11.62139289533349 -6.61986835432358 2.5
      vertex 11.816483217262242 -6.281962004476229 2.538429439193539
    endloop
  endfacet
  facet normal -0.14514233862723 -0.2513939048317291 0.9569403357322096
    outer loop
      vertex 10.92154457392201 -5.332041206803175 2.6522409349774265
      vertex 11.816483217262242 -6.281962004476229 2.538429439193539
      vertex 12.004076327527187 -5.957041206153442 2.6522409349774265
    endloop
  endfacet
  facet normal -0.14514233862722956 -0.2513939048317287 0.9569403357322098
    outer loop
      vertex 10.733951463573046 -5.656962005077455 2.538429439193539
      vertex 11.816483217262242 -6.281962004476229 2.538429439193539
      vertex 10.92154457392201 -5.332041206803175 2.6522409349774265
    endloop
  endfacet
  facet normal -0.23569836841300054 -0.4082415493524042 0.8819212643483532
    outer loop
      vertex 10.92154457392201 -5.332041206803175 2.6522409349774265
      vertex 12.004076327527187 -5.957041206153442 2.6522409349774265
      vertex 11.09443137457652 -5.03259248411153 2.8370607753949093
    endloop
  endfacet
  facet normal -0.31719664208182247 -0.549400700075957 0.7730104533627373
    outer loop
      vertex 11.09443137457652 -5.03259248411153 2.8370607753949093
      vertex 12.176963128104267 -5.657592483417092 2.8370607753949093
      vertex 11.245967922743466 -4.770123483482772 3.085786437626905
    endloop
  endfacet
  facet normal -0.23569836841300001 -0.40824154935240364 0.8819212643483537
    outer loop
      vertex 11.09443137457652 -5.03259248411153 2.8370607753949093
      vertex 12.004076327527187 -5.957041206153442 2.6522409349774265
      vertex 12.176963128104267 -5.657592483417092 2.8370607753949093
    endloop
  endfacet
  facet normal -0.31719664208182297 -0.5494007000759574 0.7730104533627369
    outer loop
      vertex 11.245967922743466 -4.770123483482772 3.085786437626905
      vertex 12.176963128104267 -5.657592483417092 2.8370607753949093
      vertex 12.328499676203345 -5.395123482749151 3.085786437626905
    endloop
  endfacet
  facet normal -0.3865052266813675 -0.6694466900030546 0.6343932841636479
    outer loop
      vertex 11.370330753859465 -4.554720741416755 3.3888595339607956
      vertex 12.328499676203345 -5.395123482749151 3.085786437626905
      vertex 12.452862507263644 -5.179720740650976 3.3888595339607956
    endloop
  endfacet
  facet normal -0.3865052266813677 -0.6694466900030547 0.6343932841636477
    outer loop
      vertex 11.245967922743466 -4.770123483482772 3.085786437626905
      vertex 12.328499676203345 -5.395123482749151 3.085786437626905
      vertex 11.370330753859465 -4.554720741416755 3.3888595339607956
    endloop
  endfacet
  facet normal -0.4409606321741784 -0.7637662190633684 0.4713967368259943
    outer loop
      vertex 11.370330753859465 -4.554720741416755 3.3888595339607956
      vertex 12.452862507263644 -5.179720740650976 3.3888595339607956
      vertex 11.462740674068206 -4.394662064491831 3.7346331352698203
    endloop
  endfacet
  facet normal -0.47847016786610386 -0.828734640650101 0.2902846772544673
    outer loop
      vertex 11.462740674068206 -4.394662064491831 3.7346331352698203
      vertex 12.545272427430998 -5.019662063702157 3.7346331352698203
      vertex 11.51964642196015 -4.296098417900277 4.109819355967743
    endloop
  endfacet
  facet normal -0.44096063217417875 -0.7637662190633685 0.4713967368259937
    outer loop
      vertex 11.462740674068206 -4.394662064491831 3.7346331352698203
      vertex 12.452862507263644 -5.179720740650976 3.3888595339607956
      vertex 12.545272427430998 -5.019662063702157 3.7346331352698203
    endloop
  endfacet
  facet normal -0.47847016786610347 -0.8287346406501009 0.29028467725446827
    outer loop
      vertex 11.51964642196015 -4.296098417900277 4.109819355967743
      vertex 12.545272427430998 -5.019662063702157 3.7346331352698203
      vertex 12.602178175297457 -4.921098417095888 4.109819355967743
    endloop
  endfacet
  facet normal -0.31719664208182263 -0.5494007000759569 -0.7730104533627373
    outer loop
      vertex 11.09443137457652 -5.03259248411153 6.162939224605091
      vertex 11.245967922743466 -4.770123483482772 5.914213562373095
      vertex 12.328499676203345 -5.395123482749151 5.914213562373095
    endloop
  endfacet
  facet normal 0.14514233862723014 0.25139390483172913 -0.9569403357322096
    outer loop
      vertex 10.15617770919183 -6.657695502945544 6.347759065022574
      vertex 10.343770819540792 -6.332774704671266 6.461570560806461
      vertex 11.426302573404735 -6.957774704170932 6.461570560806461
    endloop
  endfacet
  facet normal 0.04900857016478052 0.08488533353170419 -0.9951847266721968
    outer loop
      vertex 10.343770819540792 -6.332774704671266 6.461570560806461
      vertex 10.53886114155692 -5.99486835487436 6.5
      vertex 11.62139289533349 -6.61986835432358 6.5
    endloop
  endfacet
  facet normal -0.049008570164780635 -0.08488533353170437 -0.9951847266721968
    outer loop
      vertex 10.53886114155692 -5.99486835487436 6.5
      vertex 10.733951463573046 -5.656962005077455 6.461570560806461
      vertex 11.816483217262242 -6.281962004476229 6.461570560806461
    endloop
  endfacet
  facet normal 0.04900857016478044 0.08488533353170384 -0.9951847266721969
    outer loop
      vertex 10.343770819540792 -6.332774704671266 6.461570560806461
      vertex 11.62139289533349 -6.61986835432358 6.5
      vertex 11.426302573404735 -6.957774704170932 6.461570560806461
    endloop
  endfacet
  facet normal -0.04900857016478065 -0.08488533353170442 -0.9951847266721968
    outer loop
      vertex 10.53886114155692 -5.99486835487436 6.5
      vertex 11.816483217262242 -6.281962004476229 6.461570560806461
      vertex 11.62139289533349 -6.61986835432358 6.5
    endloop
  endfacet
  facet normal -0.1451423386272293 -0.25139390483172824 -0.9569403357322099
    outer loop
      vertex 10.733951463573046 -5.656962005077455 6.461570560806461
      vertex 12.004076327527187 -5.957041206153442 6.347759065022574
      vertex 11.816483217262242 -6.281962004476229 6.461570560806461
    endloop
  endfacet
  facet normal -0.1451423386272292 -0.2513939048317277 -0.95694033573221
    outer loop
      vertex 10.733951463573046 -5.656962005077455 6.461570560806461
      vertex 10.92154457392201 -5.332041206803175 6.347759065022574
      vertex 12.004076327527187 -5.957041206153442 6.347759065022574
    endloop
  endfacet
  facet normal -0.2356983684130008 -0.40824154935240503 -0.8819212643483527
    outer loop
      vertex 11.09443137457652 -5.03259248411153 6.162939224605091
      vertex 12.176963128104267 -5.657592483417092 6.162939224605091
      vertex 10.92154457392201 -5.332041206803175 6.347759065022574
    endloop
  endfacet
  facet normal -0.38650522668136755 -0.6694466900030545 -0.6343932841636478
    outer loop
      vertex 11.245967922743466 -4.770123483482772 5.914213562373095
      vertex 12.452862507263644 -5.179720740650976 5.611140466039204
      vertex 12.328499676203345 -5.395123482749151 5.914213562373095
    endloop
  endfacet
  facet normal -0.3171966420818227 -0.5494007000759574 -0.7730104533627368
    outer loop
      vertex 11.09443137457652 -5.03259248411153 6.162939224605091
      vertex 12.328499676203345 -5.395123482749151 5.914213562373095
      vertex 12.176963128104267 -5.657592483417092 6.162939224605091
    endloop
  endfacet
  facet normal -0.4975923633360985 -0.8618552547563959 0.09801714032955586
    outer loop
      vertex 11.51964642196015 -4.296098417900277 4.109819355967743
      vertex 12.602178175297457 -4.921098417095888 4.109819355967743
      vertex 11.538861141556918 -4.262817547305484 4.5
    endloop
  endfacet
  facet normal -0.49759236333609824 -0.861855254756396 -0.09801714032955589
    outer loop
      vertex 11.538861141556918 -4.262817547305484 4.5
      vertex 12.62139289488562 -4.887817546496127 4.5
      vertex 11.51964642196015 -4.296098417900277 4.890180644032257
    endloop
  endfacet
  facet normal -0.4975923633360982 -0.861855254756396 0.09801714032955725
    outer loop
      vertex 11.538861141556918 -4.262817547305484 4.5
      vertex 12.602178175297457 -4.921098417095888 4.109819355967743
      vertex 12.62139289488562 -4.887817546496127 4.5
    endloop
  endfacet
  facet normal -0.4784701678661036 -0.828734640650101 -0.29028467725446766
    outer loop
      vertex 11.462740674068206 -4.394662064491831 5.265366864730179
      vertex 11.51964642196015 -4.296098417900277 4.890180644032257
      vertex 12.602178175297457 -4.921098417095888 4.890180644032257
    endloop
  endfacet
  facet normal -0.49759236333609846 -0.8618552547563958 -0.09801714032955718
    outer loop
      vertex 11.51964642196015 -4.296098417900277 4.890180644032257
      vertex 12.62139289488562 -4.887817546496127 4.5
      vertex 12.602178175297457 -4.921098417095888 4.890180644032257
    endloop
  endfacet
  facet normal -0.4784701678661037 -0.8287346406501007 -0.29028467725446866
    outer loop
      vertex 11.462740674068206 -4.394662064491831 5.265366864730179
      vertex 12.602178175297457 -4.921098417095888 4.890180644032257
      vertex 12.545272427430998 -5.019662063702157 5.265366864730179
    endloop
  endfacet
  facet normal -0.44096063217417875 -0.7637662190633685 -0.47139673682599376
    outer loop
      vertex 11.462740674068206 -4.394662064491831 5.265366864730179
      vertex 12.545272427430998 -5.019662063702157 5.265366864730179
      vertex 11.370330753859465 -4.554720741416755 5.611140466039204
    endloop
  endfacet
  facet normal -0.44096063217417875 -0.7637662190633688 -0.47139673682599326
    outer loop
      vertex 11.370330753859465 -4.554720741416755 5.611140466039204
      vertex 12.545272427430998 -5.019662063702157 5.265366864730179
      vertex 12.452862507263644 -5.179720740650976 5.611140466039204
    endloop
  endfacet
  facet normal -0.3865052266813676 -0.6694466900030548 -0.6343932841636476
    outer loop
      vertex 11.370330753859465 -4.554720741416755 5.611140466039204
      vertex 12.452862507263644 -5.179720740650976 5.611140466039204
      vertex 11.245967922743466 -4.770123483482772 5.914213562373095
    endloop
  endfacet
  facet normal -0.23569836841300068 -0.4082415493524044 -0.881921264348353
    outer loop
      vertex 10.92154457392201 -5.332041206803175 6.347759065022574
      vertex 12.176963128104267 -5.657592483417092 6.162939224605091
      vertex 12.004076327527187 -5.957041206153442 6.347759065022574
    endloop
  endfacet
  facet normal 0 0 1
    outer loop
      vertex 8.285898384862247 -9.897114317029974 7.75
      vertex 9.368430139647845 -10.522114317061757 7.75
      vertex 11.816522294260336 -6.28189432113008 7.75
    endloop
  endfacet
  facet normal 0 0 1
    outer loop
      vertex 8.285898384862247 -9.897114317029974 7.75
      vertex 11.816522294260336 -6.28189432113008 7.75
      vertex 13.285898384862245 -1.2368602791855876 7.75
    endloop
  endfacet
  facet normal 0 0 1
    outer loop
      vertex 13.285898384862245 -1.2368602791855876 7.75
      vertex 11.816522294260336 -6.28189432113008 7.75
      vertex 14.368430137408504 -1.8618602779244873 7.75
    endloop
  endfacet
  facet normal 0.4999999999999995 0.8660254037844389 0
    outer loop
      vertex 8.285898384862247 -9.897114317029974 7.75
      vertex 9.368430139647845 -10.522114317061757 10.25
      vertex 9.368430139647845 -10.522114317061757 7.75
    endloop
  endfacet
  facet normal 0.4999999999999995 0.8660254037844389 0
    outer loop
      vertex 8.285898384862247 -9.897114317029974 7.75
      vertex 8.285898384862247 -9.897114317029974 10.25
      vertex 9.368430139647845 -10.522114317061757 10.25
    endloop
  endfacet
  facet normal 0 0 -1
    outer loop
      vertex 8.285898384862247 -9.897114317029974 10.25
      vertex 14.368430137408504 -1.8618602779244873 10.25
      vertex 9.368430139647845 -10.522114317061757 10.25
    endloop
  endfacet
  facet normal 0 0 -1
    outer loop
      vertex 8.285898384862247 -9.897114317029974 10.25
      vertex 13.285898384862245 -1.2368602791855876 10.25
      vertex 14.368430137408504 -1.8618602779244873 10.25
    endloop
  endfacet
  facet normal -0.49999999999999967 -0.8660254037844389 0
    outer loop
      vertex 13.285898384862245 -1.2368602791855876 7.75
      vertex 14.368430137408504 -1.8618602779244873 7.75
      vertex 13.285898384862245 -1.2368602791855876 10.25
    endloop
  endfacet
  facet normal -0.49999999999999967 -0.8660254037844389 0
    outer loop
      vertex 13.285898384862245 -1.2368602791855876 10.25
      vertex 14.368430137408504 -1.8618602779244873 7.75
      vertex 14.368430137408504 -1.8618602779244873 10.25
    endloop
  endfacet
endsolid OpenSCAD_Model
