solid switch
facet normal 0.0 0.0 -1.0
  outer loop
    vertex -18.68276944275121 12.099605309904462 0.0
    vertex -18.68276944275121 7.280394690095531 0.0
    vertex -18.99999999999997 9.69 0.0
  endloop
endfacet
facet normal 0.0 0.0 -1.0
  outer loop
    vertex -18.68276944275121 7.280394690095531 0.0
    vertex -18.68276944275121 12.099605309904462 0.0
    vertex -17.752696509233104 14.345000000000002 0.0
  endloop
endfacet
facet normal 0.0 0.0 -1.0
  outer loop
    vertex -18.68276944275121 7.280394690095531 0.0
    vertex -17.752696509233104 14.345000000000002 0.0
    vertex -17.752696509233107 5.035000000000002 0.0
  endloop
endfacet
facet normal 0.0 0.0 -1.0
  outer loop
    vertex -17.752696509233107 5.035000000000002 0.0
    vertex -17.752696509233104 14.345000000000002 0.0
    vertex -16.27316413284673 3.1068358671532463 0.0
  endloop
endfacet
facet normal 0.0 0.0 -1.0
  outer loop
    vertex -16.27316413284673 3.1068358671532463 0.0
    vertex -17.752696509233104 14.345000000000002 0.0
    vertex -16.27316413284673 16.27316413284673 0.0
  endloop
endfacet
facet normal 0.0 0.0 -1.0
  outer loop
    vertex -16.27316413284673 3.1068358671532463 0.0
    vertex -16.27316413284673 16.27316413284673 0.0
    vertex -14.344999999999988 17.752696509233107 0.0
  endloop
endfacet
facet normal 0.0 0.0 -1.0
  outer loop
    vertex -16.27316413284673 3.1068358671532463 0.0
    vertex -14.344999999999988 17.752696509233107 0.0
    vertex -14.345000000000002 1.6273034907668784 0.0
  endloop
endfacet
facet normal 0.0 0.0 -1.0
  outer loop
    vertex -14.345000000000002 1.6273034907668784 0.0
    vertex -14.344999999999988 17.752696509233107 0.0
    vertex -12.099605309904467 0.6972305572487772 0.0
  endloop
endfacet
facet normal 0.0 0.0 -1.0
  outer loop
    vertex -12.099605309904467 0.6972305572487772 0.0
    vertex -14.344999999999988 17.752696509233107 0.0
    vertex -12.099605309904462 18.68276944275121 0.0
  endloop
endfacet
facet normal 0.0 0.0 -1.0
  outer loop
    vertex -12.099605309904467 0.6972305572487772 0.0
    vertex -12.099605309904462 18.68276944275121 0.0
    vertex -9.69 0.3799999999999998 0.0
  endloop
endfacet
facet normal 0.0 0.0 -1.0
  outer loop
    vertex -9.69 0.3799999999999998 0.0
    vertex -12.099605309904462 18.68276944275121 0.0
    vertex -9.689999999999998 18.99999999999997 0.0
  endloop
endfacet
facet normal 0.0 0.0 -1.0
  outer loop
    vertex -9.69 0.3799999999999998 0.0
    vertex -9.689999999999998 18.99999999999997 0.0
    vertex -7.280394690095534 0.6972305572487725 0.0
  endloop
endfacet
facet normal 0.0 0.0 -1.0
  outer loop
    vertex -7.280394690095534 0.6972305572487725 0.0
    vertex -9.689999999999998 18.99999999999997 0.0
    vertex -7.280394690095527 18.68276944275121 0.0
  endloop
endfacet
facet normal 0.0 0.0 -1.0
  outer loop
    vertex -7.280394690095534 0.6972305572487725 0.0
    vertex -7.280394690095527 18.68276944275121 0.0
    vertex -5.0350000000000055 1.627303490766869 0.0
  endloop
endfacet
facet normal 0.0 0.0 -1.0
  outer loop
    vertex -5.0350000000000055 1.627303490766869 0.0
    vertex -7.280394690095527 18.68276944275121 0.0
    vertex -5.034999999999999 17.752696509233107 0.0
  endloop
endfacet
facet normal 0.0 0.0 -1.0
  outer loop
    vertex -5.0350000000000055 1.627303490766869 0.0
    vertex -5.034999999999999 17.752696509233107 0.0
    vertex -3.1068358671532414 3.106835867153237 0.0
  endloop
endfacet
facet normal 0.0 0.0 -1.0
  outer loop
    vertex -3.1068358671532414 3.106835867153237 0.0
    vertex -5.034999999999999 17.752696509233107 0.0
    vertex -3.106835867153239 16.27316413284673 0.0
  endloop
endfacet
facet normal 0.0 0.0 -1.0
  outer loop
    vertex -3.1068358671532414 3.106835867153237 0.0
    vertex -3.106835867153239 16.27316413284673 0.0
    vertex -1.6273034907668784 5.034999999999996 0.0
  endloop
endfacet
facet normal 0.0 0.0 -1.0
  outer loop
    vertex -1.6273034907668784 5.034999999999996 0.0
    vertex -3.106835867153239 16.27316413284673 0.0
    vertex -1.6273034907668718 14.344999999999988 0.0
  endloop
endfacet
facet normal 0.0 0.0 -1.0
  outer loop
    vertex -1.6273034907668784 5.034999999999996 0.0
    vertex -1.6273034907668718 14.344999999999988 0.0
    vertex -0.6972305572487772 7.280394690095522 0.0
  endloop
endfacet
facet normal 0.0 0.0 -1.0
  outer loop
    vertex -0.6972305572487772 7.280394690095522 0.0
    vertex -1.6273034907668718 14.344999999999988 0.0
    vertex -0.7139625857342053 12.139999999999993 0.0
  endloop
endfacet
facet normal 0.0 0.0 -1.0
  outer loop
    vertex -0.6972305572487772 7.280394690095522 0.0
    vertex -0.7139625857342053 12.139999999999993 0.0
    vertex -0.3799999999999998 9.689999999999998 0.0
  endloop
endfacet
facet normal 0.0 0.0 -1.0
  outer loop
    vertex -0.3799999999999998 9.689999999999998 0.0
    vertex -0.7139625857342053 12.139999999999993 0.0
    vertex 1.5799999999999979 12.139999999999993 0.0
  endloop
endfacet
facet normal 0.0 0.0 -1.0
  outer loop
    vertex -0.3799999999999998 9.689999999999998 0.0
    vertex 1.5799999999999979 12.139999999999993 0.0
    vertex 1.5799999999999979 9.689999999999998 0.0
  endloop
endfacet
facet normal 0.8660254037844385 0.5000000000000002 0.0
  outer loop
    vertex -1.6273034907668718 14.344999999999988 0.0
    vertex -0.7139625857342053 12.139999999999993 1.4699999999999995
    vertex -0.7139625857342053 12.139999999999993 0.0
  endloop
endfacet
facet normal 0.9238795325112868 0.3826834323650895 0.0
  outer loop
    vertex -0.7139625857342053 12.139999999999993 1.4699999999999995
    vertex -1.6273034907668718 14.344999999999988 0.0
    vertex -0.7139625857342053 12.139999999999993 18.669739409999963
  endloop
endfacet
facet normal 0.9238795325112868 0.3826834323650895 0.0
  outer loop
    vertex -0.7139625857342053 12.139999999999993 18.669739409999963
    vertex -1.6273034907668718 14.344999999999988 0.0
    vertex -1.6273034907668718 14.344999999999988 18.669739409999963
  endloop
endfacet
facet normal 0.0 1.0 0.0
  outer loop
    vertex -0.7139625857342053 12.139999999999993 1.4699999999999995
    vertex 1.5799999999999979 12.139999999999993 0.0
    vertex -0.7139625857342053 12.139999999999993 0.0
  endloop
endfacet
facet normal 0.0 1.0 0.0
  outer loop
    vertex 1.5799999999999979 12.139999999999993 0.0
    vertex -0.7139625857342053 12.139999999999993 1.4699999999999995
    vertex 1.5799999999999979 12.139999999999993 1.4699999999999995
  endloop
endfacet
facet normal 1.0 0.0 0.0
  outer loop
    vertex 1.5799999999999979 12.139999999999993 0.0
    vertex 1.5799999999999979 9.689999999999998 1.4699999999999995
    vertex 1.5799999999999979 9.689999999999998 0.0
  endloop
endfacet
facet normal 1.0 0.0 0.0
  outer loop
    vertex 1.5799999999999979 9.689999999999998 1.4699999999999995
    vertex 1.5799999999999979 12.139999999999993 0.0
    vertex 1.5799999999999979 12.139999999999993 1.4699999999999995
  endloop
endfacet
facet normal 0.0 -1.0 0.0
  outer loop
    vertex 1.5799999999999979 9.689999999999998 1.4699999999999995
    vertex -0.3799999999999998 9.689999999999998 0.0
    vertex 1.5799999999999979 9.689999999999998 0.0
  endloop
endfacet
facet normal 0.0 -1.0 0.0
  outer loop
    vertex -0.3799999999999998 9.689999999999998 0.0
    vertex 1.5799999999999979 9.689999999999998 1.4699999999999995
    vertex -0.3799999999999998 9.689999999999998 1.4699999999999995
  endloop
endfacet
facet normal 0.9659258262890681 -0.2588190451025214 0.0
  outer loop
    vertex -0.6972305572487772 7.280394690095522 0.0
    vertex -1.6273034907668784 5.034999999999996 18.669739409999963
    vertex -1.6273034907668784 5.034999999999996 0.0
  endloop
endfacet
facet normal 0.8660254037844383 -0.5000000000000006 0.0
  outer loop
    vertex -1.6273034907668784 5.034999999999996 18.669739409999963
    vertex -0.6972305572487772 7.280394690095522 0.0
    vertex -0.6972305572487772 7.280394690095522 18.669739409999963
  endloop
endfacet
facet normal 0.8660254037844383 -0.5000000000000006 0.0
  outer loop
    vertex -1.6273034907668784 5.034999999999996 0.0
    vertex -3.1068358671532414 3.106835867153237 18.669739409999963
    vertex -3.1068358671532414 3.106835867153237 0.0
  endloop
endfacet
facet normal 0.7071067811865471 -0.707106781186548 0.0
  outer loop
    vertex -3.1068358671532414 3.106835867153237 18.669739409999963
    vertex -1.6273034907668784 5.034999999999996 0.0
    vertex -1.6273034907668784 5.034999999999996 18.669739409999963
  endloop
endfacet
facet normal 0.7071067811865471 -0.707106781186548 0.0
  outer loop
    vertex -3.1068358671532414 3.106835867153237 18.669739409999963
    vertex -5.0350000000000055 1.627303490766869 0.0
    vertex -3.1068358671532414 3.106835867153237 0.0
  endloop
endfacet
facet normal 0.49999999999999956 -0.8660254037844389 0.0
  outer loop
    vertex -5.0350000000000055 1.627303490766869 0.0
    vertex -3.1068358671532414 3.106835867153237 18.669739409999963
    vertex -5.0350000000000055 1.627303490766869 18.669739409999963
  endloop
endfacet
facet normal 0.49999999999999956 -0.8660254037844389 0.0
  outer loop
    vertex -5.0350000000000055 1.627303490766869 18.669739409999963
    vertex -7.280394690095534 0.6972305572487725 0.0
    vertex -5.0350000000000055 1.627303490766869 0.0
  endloop
endfacet
facet normal 0.2588190451025205 -0.9659258262890684 0.0
  outer loop
    vertex -7.280394690095534 0.6972305572487725 0.0
    vertex -5.0350000000000055 1.627303490766869 18.669739409999963
    vertex -7.280394690095534 0.6972305572487725 18.669739409999963
  endloop
endfacet
facet normal 0.2588190451025205 -0.9659258262890684 0.0
  outer loop
    vertex -7.280394690095534 0.6972305572487725 18.669739409999963
    vertex -9.69 0.3799999999999998 0.0
    vertex -7.280394690095534 0.6972305572487725 0.0
  endloop
endfacet
facet normal -2.940666265563479e-16 -1.0 0.0
  outer loop
    vertex -9.69 0.3799999999999998 0.0
    vertex -7.280394690095534 0.6972305572487725 18.669739409999963
    vertex -9.69 0.3799999999999998 18.669739409999963
  endloop
endfacet
facet normal -2.940666265563479e-16 -1.0 0.0
  outer loop
    vertex -9.69 0.3799999999999998 18.669739409999963
    vertex -12.099605309904467 0.6972305572487772 0.0
    vertex -9.69 0.3799999999999998 0.0
  endloop
endfacet
facet normal -0.25881904510252146 -0.9659258262890681 0.0
  outer loop
    vertex -12.099605309904467 0.6972305572487772 0.0
    vertex -9.69 0.3799999999999998 18.669739409999963
    vertex -12.099605309904467 0.6972305572487772 18.669739409999963
  endloop
endfacet
facet normal -0.25881904510252146 -0.9659258262890681 0.0
  outer loop
    vertex -12.099605309904467 0.6972305572487772 18.669739409999963
    vertex -14.345000000000002 1.6273034907668784 0.0
    vertex -12.099605309904467 0.6972305572487772 0.0
  endloop
endfacet
facet normal -0.5000000000000009 -0.866025403784438 0.0
  outer loop
    vertex -14.345000000000002 1.6273034907668784 0.0
    vertex -12.099605309904467 0.6972305572487772 18.669739409999963
    vertex -14.345000000000002 1.6273034907668784 18.669739409999963
  endloop
endfacet
facet normal -0.5000000000000009 -0.866025403784438 0.0
  outer loop
    vertex -14.345000000000002 1.6273034907668784 18.669739409999963
    vertex -16.27316413284673 3.1068358671532463 0.0
    vertex -14.345000000000002 1.6273034907668784 0.0
  endloop
endfacet
facet normal -0.7071067811865477 -0.7071067811865474 0.0
  outer loop
    vertex -16.27316413284673 3.1068358671532463 0.0
    vertex -14.345000000000002 1.6273034907668784 18.669739409999963
    vertex -16.27316413284673 3.1068358671532463 18.669739409999963
  endloop
endfacet
facet normal -0.8660254037844386 -0.5 0.0
  outer loop
    vertex -17.752696509233107 5.035000000000002 18.669739409999963
    vertex -16.27316413284673 3.1068358671532463 0.0
    vertex -16.27316413284673 3.1068358671532463 18.669739409999963
  endloop
endfacet
facet normal -0.7071067811865477 -0.7071067811865474 0.0
  outer loop
    vertex -16.27316413284673 3.1068358671532463 0.0
    vertex -17.752696509233107 5.035000000000002 18.669739409999963
    vertex -17.752696509233107 5.035000000000002 0.0
  endloop
endfacet
facet normal -0.9659258262890684 -0.2588190451025206 0.0
  outer loop
    vertex -18.68276944275121 7.280394690095531 18.669739409999963
    vertex -17.752696509233107 5.035000000000002 0.0
    vertex -17.752696509233107 5.035000000000002 18.669739409999963
  endloop
endfacet
facet normal -0.8660254037844386 -0.5 0.0
  outer loop
    vertex -17.752696509233107 5.035000000000002 0.0
    vertex -18.68276944275121 7.280394690095531 18.669739409999963
    vertex -18.68276944275121 7.280394690095531 0.0
  endloop
endfacet
facet normal -1.0 1.1584442864340977e-16 0.0
  outer loop
    vertex -18.99999999999997 9.69 18.669739409999963
    vertex -18.68276944275121 7.280394690095531 0.0
    vertex -18.68276944275121 7.280394690095531 18.669739409999963
  endloop
endfacet
facet normal -0.9659258262890684 -0.2588190451025206 0.0
  outer loop
    vertex -18.68276944275121 7.280394690095531 0.0
    vertex -18.99999999999997 9.69 18.669739409999963
    vertex -18.99999999999997 9.69 0.0
  endloop
endfacet
facet normal -0.9659258262890681 0.2588190451025212 0.0
  outer loop
    vertex -18.68276944275121 12.099605309904462 18.669739409999963
    vertex -18.99999999999997 9.69 0.0
    vertex -18.99999999999997 9.69 18.669739409999963
  endloop
endfacet
facet normal -1.0 1.1584442864340977e-16 0.0
  outer loop
    vertex -18.99999999999997 9.69 0.0
    vertex -18.68276944275121 12.099605309904462 18.669739409999963
    vertex -18.68276944275121 12.099605309904462 0.0
  endloop
endfacet
facet normal -0.8660254037844383 0.5000000000000008 0.0
  outer loop
    vertex -17.752696509233104 14.345000000000002 18.669739409999963
    vertex -18.68276944275121 12.099605309904462 0.0
    vertex -18.68276944275121 12.099605309904462 18.669739409999963
  endloop
endfacet
facet normal -0.9659258262890681 0.2588190451025212 0.0
  outer loop
    vertex -18.68276944275121 12.099605309904462 0.0
    vertex -17.752696509233104 14.345000000000002 18.669739409999963
    vertex -17.752696509233104 14.345000000000002 0.0
  endloop
endfacet
facet normal -0.7071067811865474 0.7071067811865477 0.0
  outer loop
    vertex -16.27316413284673 16.27316413284673 18.669739409999963
    vertex -17.752696509233104 14.345000000000002 0.0
    vertex -17.752696509233104 14.345000000000002 18.669739409999963
  endloop
endfacet
facet normal -0.8660254037844383 0.5000000000000008 0.0
  outer loop
    vertex -17.752696509233104 14.345000000000002 0.0
    vertex -16.27316413284673 16.27316413284673 18.669739409999963
    vertex -16.27316413284673 16.27316413284673 0.0
  endloop
endfacet
facet normal -0.7071067811865474 0.7071067811865477 0.0
  outer loop
    vertex -16.27316413284673 16.27316413284673 18.669739409999963
    vertex -14.344999999999988 17.752696509233107 0.0
    vertex -16.27316413284673 16.27316413284673 0.0
  endloop
endfacet
facet normal -0.5 0.8660254037844387 0.0
  outer loop
    vertex -14.344999999999988 17.752696509233107 0.0
    vertex -16.27316413284673 16.27316413284673 18.669739409999963
    vertex -14.344999999999988 17.752696509233107 18.669739409999963
  endloop
endfacet
facet normal -0.5 0.8660254037844387 0.0
  outer loop
    vertex -14.344999999999988 17.752696509233107 18.669739409999963
    vertex -12.099605309904462 18.68276944275121 0.0
    vertex -14.344999999999988 17.752696509233107 0.0
  endloop
endfacet
facet normal -0.25881904510252063 0.9659258262890682 0.0
  outer loop
    vertex -12.099605309904462 18.68276944275121 0.0
    vertex -14.344999999999988 17.752696509233107 18.669739409999963
    vertex -12.099605309904462 18.68276944275121 18.669739409999963
  endloop
endfacet
facet normal -0.25881904510252063 0.9659258262890682 0.0
  outer loop
    vertex -12.099605309904462 18.68276944275121 18.669739409999963
    vertex -9.689999999999998 18.99999999999997 0.0
    vertex -12.099605309904462 18.68276944275121 0.0
  endloop
endfacet
facet normal -2.6733329686940716e-17 1.0 0.0
  outer loop
    vertex -9.689999999999998 18.99999999999997 0.0
    vertex -12.099605309904462 18.68276944275121 18.669739409999963
    vertex -9.689999999999998 18.99999999999997 18.669739409999963
  endloop
endfacet
facet normal -2.6733329686940716e-17 1.0 0.0
  outer loop
    vertex -9.689999999999998 18.99999999999997 18.669739409999963
    vertex -7.280394690095527 18.68276944275121 0.0
    vertex -9.689999999999998 18.99999999999997 0.0
  endloop
endfacet
facet normal 0.25881904510252085 0.9659258262890682 0.0
  outer loop
    vertex -7.280394690095527 18.68276944275121 0.0
    vertex -9.689999999999998 18.99999999999997 18.669739409999963
    vertex -7.280394690095527 18.68276944275121 18.669739409999963
  endloop
endfacet
facet normal 0.25881904510252085 0.9659258262890682 0.0
  outer loop
    vertex -7.280394690095527 18.68276944275121 18.669739409999963
    vertex -5.034999999999999 17.752696509233107 0.0
    vertex -7.280394690095527 18.68276944275121 0.0
  endloop
endfacet
facet normal 0.5000000000000006 0.8660254037844384 0.0
  outer loop
    vertex -5.034999999999999 17.752696509233107 0.0
    vertex -7.280394690095527 18.68276944275121 18.669739409999963
    vertex -5.034999999999999 17.752696509233107 18.669739409999963
  endloop
endfacet
facet normal 0.5000000000000006 0.8660254037844384 0.0
  outer loop
    vertex -5.034999999999999 17.752696509233107 18.669739409999963
    vertex -3.106835867153239 16.27316413284673 0.0
    vertex -5.034999999999999 17.752696509233107 0.0
  endloop
endfacet
facet normal 0.7071067811865476 0.7071067811865476 0.0
  outer loop
    vertex -3.106835867153239 16.27316413284673 0.0
    vertex -5.034999999999999 17.752696509233107 18.669739409999963
    vertex -3.106835867153239 16.27316413284673 18.669739409999963
  endloop
endfacet
facet normal 0.7071067811865476 0.7071067811865476 0.0
  outer loop
    vertex -3.106835867153239 16.27316413284673 0.0
    vertex -1.6273034907668718 14.344999999999988 18.669739409999963
    vertex -1.6273034907668718 14.344999999999988 0.0
  endloop
endfacet
facet normal 0.8660254037844385 0.5000000000000002 0.0
  outer loop
    vertex -1.6273034907668718 14.344999999999988 18.669739409999963
    vertex -3.106835867153239 16.27316413284673 0.0
    vertex -3.106835867153239 16.27316413284673 18.669739409999963
  endloop
endfacet
facet normal 0.0 0.0 1.0
  outer loop
    vertex -0.3799999999999998 9.689999999999998 1.4699999999999995
    vertex 1.5799999999999979 12.139999999999993 1.4699999999999995
    vertex -0.7139625857342053 12.139999999999993 1.4699999999999995
  endloop
endfacet
facet normal 0.0 0.0 1.0
  outer loop
    vertex 1.5799999999999979 12.139999999999993 1.4699999999999995
    vertex -0.3799999999999998 9.689999999999998 1.4699999999999995
    vertex 1.5799999999999979 9.689999999999998 1.4699999999999995
  endloop
endfacet
facet normal 6.882274822050894e-33 1.146876886951195e-32 1.0
  outer loop
    vertex -18.68276944275121 7.280394690095531 18.669739409999963
    vertex -18.68276944275121 12.099605309904462 18.669739409999963
    vertex -18.99999999999997 9.69 18.669739409999963
  endloop
endfacet
facet normal 6.882274822050894e-33 1.146876886951195e-32 1.0
  outer loop
    vertex -18.68276944275121 12.099605309904462 18.669739409999963
    vertex -18.68276944275121 7.280394690095531 18.669739409999963
    vertex -17.752696509233107 5.035000000000002 18.669739409999963
  endloop
endfacet
facet normal 6.882274822050894e-33 1.146876886951195e-32 1.0
  outer loop
    vertex -18.68276944275121 12.099605309904462 18.669739409999963
    vertex -17.752696509233107 5.035000000000002 18.669739409999963
    vertex -17.752696509233104 14.345000000000002 18.669739409999963
  endloop
endfacet
facet normal 6.882274822050894e-33 1.146876886951195e-32 1.0
  outer loop
    vertex -17.752696509233104 14.345000000000002 18.669739409999963
    vertex -17.752696509233107 5.035000000000002 18.669739409999963
    vertex -16.27316413284673 3.1068358671532463 18.669739409999963
  endloop
endfacet
facet normal 6.882274822050894e-33 1.146876886951195e-32 1.0
  outer loop
    vertex -17.752696509233104 14.345000000000002 18.669739409999963
    vertex -16.27316413284673 3.1068358671532463 18.669739409999963
    vertex -16.27316413284673 16.27316413284673 18.669739409999963
  endloop
endfacet
facet normal 6.882274822050894e-33 1.146876886951195e-32 1.0
  outer loop
    vertex -16.27316413284673 16.27316413284673 18.669739409999963
    vertex -16.27316413284673 3.1068358671532463 18.669739409999963
    vertex -14.345000000000002 1.6273034907668784 18.669739409999963
  endloop
endfacet
facet normal 6.882274822050894e-33 1.146876886951195e-32 1.0
  outer loop
    vertex -16.27316413284673 16.27316413284673 18.669739409999963
    vertex -14.345000000000002 1.6273034907668784 18.669739409999963
    vertex -14.344999999999988 17.752696509233107 18.669739409999963
  endloop
endfacet
facet normal 6.882274822050894e-33 1.146876886951195e-32 1.0
  outer loop
    vertex -14.344999999999988 17.752696509233107 18.669739409999963
    vertex -14.345000000000002 1.6273034907668784 18.669739409999963
    vertex -12.099605309904467 0.6972305572487772 18.669739409999963
  endloop
endfacet
facet normal 6.882274822050894e-33 1.146876886951195e-32 1.0
  outer loop
    vertex -14.344999999999988 17.752696509233107 18.669739409999963
    vertex -12.099605309904467 0.6972305572487772 18.669739409999963
    vertex -12.099605309904462 18.68276944275121 18.669739409999963
  endloop
endfacet
facet normal 6.882274822050894e-33 1.146876886951195e-32 1.0
  outer loop
    vertex -12.099605309904462 18.68276944275121 18.669739409999963
    vertex -12.099605309904467 0.6972305572487772 18.669739409999963
    vertex -9.69 0.3799999999999998 18.669739409999963
  endloop
endfacet
facet normal 6.882274822050894e-33 1.146876886951195e-32 1.0
  outer loop
    vertex -12.099605309904462 18.68276944275121 18.669739409999963
    vertex -9.69 0.3799999999999998 18.669739409999963
    vertex -9.689999999999998 18.99999999999997 18.669739409999963
  endloop
endfacet
facet normal 6.882274822050894e-33 1.146876886951195e-32 1.0
  outer loop
    vertex -9.689999999999998 18.99999999999997 18.669739409999963
    vertex -9.69 0.3799999999999998 18.669739409999963
    vertex -7.280394690095534 0.6972305572487725 18.669739409999963
  endloop
endfacet
facet normal 6.882274822050894e-33 1.146876886951195e-32 1.0
  outer loop
    vertex -9.689999999999998 18.99999999999997 18.669739409999963
    vertex -7.280394690095534 0.6972305572487725 18.669739409999963
    vertex -7.280394690095527 18.68276944275121 18.669739409999963
  endloop
endfacet
facet normal 6.882274822050894e-33 1.146876886951195e-32 1.0
  outer loop
    vertex -7.280394690095527 18.68276944275121 18.669739409999963
    vertex -7.280394690095534 0.6972305572487725 18.669739409999963
    vertex -5.0350000000000055 1.627303490766869 18.669739409999963
  endloop
endfacet
facet normal 6.882274822050894e-33 1.146876886951195e-32 1.0
  outer loop
    vertex -7.280394690095527 18.68276944275121 18.669739409999963
    vertex -5.0350000000000055 1.627303490766869 18.669739409999963
    vertex -5.034999999999999 17.752696509233107 18.669739409999963
  endloop
endfacet
facet normal 6.882274822050894e-33 1.146876886951195e-32 1.0
  outer loop
    vertex -5.034999999999999 17.752696509233107 18.669739409999963
    vertex -5.0350000000000055 1.627303490766869 18.669739409999963
    vertex -3.1068358671532414 3.106835867153237 18.669739409999963
  endloop
endfacet
facet normal 6.882274822050894e-33 1.146876886951195e-32 1.0
  outer loop
    vertex -5.034999999999999 17.752696509233107 18.669739409999963
    vertex -3.1068358671532414 3.106835867153237 18.669739409999963
    vertex -3.106835867153239 16.27316413284673 18.669739409999963
  endloop
endfacet
facet normal 6.882274822050894e-33 1.146876886951195e-32 1.0
  outer loop
    vertex -3.106835867153239 16.27316413284673 18.669739409999963
    vertex -3.1068358671532414 3.106835867153237 18.669739409999963
    vertex -1.6273034907668784 5.034999999999996 18.669739409999963
  endloop
endfacet
facet normal 6.882274822050894e-33 1.146876886951195e-32 1.0
  outer loop
    vertex -3.106835867153239 16.27316413284673 18.669739409999963
    vertex -1.6273034907668784 5.034999999999996 18.669739409999963
    vertex -1.6273034907668718 14.344999999999988 18.669739409999963
  endloop
endfacet
facet normal 6.882274822050894e-33 1.146876886951195e-32 1.0
  outer loop
    vertex -1.6273034907668718 14.344999999999988 18.669739409999963
    vertex -1.6273034907668784 5.034999999999996 18.669739409999963
    vertex -0.6972305572487772 7.280394690095522 18.669739409999963
  endloop
endfacet
facet normal 6.882274822050894e-33 1.146876886951195e-32 1.0
  outer loop
    vertex -1.6273034907668718 14.344999999999988 18.669739409999963
    vertex -0.6972305572487772 7.280394690095522 18.669739409999963
    vertex -0.7139625857342053 12.139999999999993 18.669739409999963
  endloop
endfacet
facet normal 6.882274822050894e-33 1.146876886951195e-32 1.0
  outer loop
    vertex -0.7139625857342053 12.139999999999993 18.669739409999963
    vertex -0.6972305572487772 7.280394690095522 18.669739409999963
    vertex -0.3799999999999998 9.689999999999998 18.669739409999963
  endloop
endfacet
facet normal 0.9908371143999919 0.135062255006709 -8.368211110855655e-33
  outer loop
    vertex -0.7139625857342053 12.139999999999993 1.4699999999999995
    vertex -0.3799999999999998 9.689999999999998 18.669739409999963
    vertex -0.3799999999999998 9.689999999999998 1.4699999999999995
  endloop
endfacet
facet normal 0.9908371143999919 0.135062255006709 -8.368211110855655e-33
  outer loop
    vertex -0.3799999999999998 9.689999999999998 18.669739409999963
    vertex -0.7139625857342053 12.139999999999993 1.4699999999999995
    vertex -0.7139625857342053 12.139999999999993 18.669739409999963
  endloop
endfacet
facet normal 0.9914448613738105 -0.13052619222005177 0.0
  outer loop
    vertex -0.3799999999999998 9.689999999999998 0.0
    vertex -0.6972305572487772 7.280394690095522 18.669739409999963
    vertex -0.6972305572487772 7.280394690095522 0.0
  endloop
endfacet
facet normal 0.9659258262890681 -0.2588190451025214 0.0
  outer loop
    vertex -0.6972305572487772 7.280394690095522 18.669739409999963
    vertex -0.3799999999999998 9.689999999999998 0.0
    vertex -0.3799999999999998 9.689999999999998 18.669739409999963
  endloop
endfacet
facet normal 0.9914448613738105 -0.13052619222005177 0.0
  outer loop
    vertex -0.3799999999999998 9.689999999999998 18.669739409999963
    vertex -0.3799999999999998 9.689999999999998 0.0
    vertex -0.3799999999999998 9.689999999999998 1.4699999999999995
  endloop
endfacet
endsolid switch
