solid switch-base
facet normal 0.0 0.0 -1.0
  outer loop
    vertex 50.0 50.0 0.0
    vertex 0.0 0.0 0.0
    vertex 0.0 50.0 0.0
  endloop
endfacet
facet normal 0.0 0.0 -1.0
  outer loop
    vertex 0.0 0.0 0.0
    vertex 50.0 50.0 0.0
    vertex 50.0 0.0 0.0
  endloop
endfacet
facet normal -0.0 -0.0 1.0
  outer loop
    vertex 18.983897376269038 23.460853102087256 3.0
    vertex 10.85786437626905 26.500000000000007 3.0
    vertex 10.85786437626905 23.460853102087256 3.0
  endloop
endfacet
facet normal -0.0 -0.0 1.0
  outer loop
    vertex 10.85786437626905 26.500000000000007 3.0
    vertex 18.983897376269038 23.460853102087256 3.0
    vertex 18.983897376269038 26.500000000000007 3.0
  endloop
endfacet
facet normal -0.0 -0.0 1.0
  outer loop
    vertex 18.983897376269038 26.500000000000007 3.0
    vertex 18.983897376269038 23.460853102087256 3.0
    vertex 19.000000000000004 20.199999999999978 3.0
  endloop
endfacet
facet normal -0.0 -0.0 1.0
  outer loop
    vertex 18.983897376269038 26.500000000000007 3.0
    vertex 19.000000000000004 20.199999999999978 3.0
    vertex 19.000000000000004 29.80000000000001 3.0
  endloop
endfacet
facet normal -0.0 -0.0 1.0
  outer loop
    vertex 19.000000000000004 29.80000000000001 3.0
    vertex 19.000000000000004 20.199999999999978 3.0
    vertex 30.999999999999993 20.199999999999978 3.0
  endloop
endfacet
facet normal -0.0 -0.0 1.0
  outer loop
    vertex 19.000000000000004 29.80000000000001 3.0
    vertex 30.999999999999993 20.199999999999978 3.0
    vertex 30.999999999999993 29.80000000000001 3.0
  endloop
endfacet
facet normal -0.0 -0.0 1.0
  outer loop
    vertex 0.0 0.0 3.0
    vertex 10.85786437626905 10.857864376269053 3.0
    vertex 0.0 50.0 3.0
  endloop
endfacet
facet normal -0.0 -0.0 1.0
  outer loop
    vertex 10.85786437626905 10.857864376269053 3.0
    vertex 0.0 0.0 3.0
    vertex 50.0 0.0 3.0
  endloop
endfacet
facet normal -0.0 -0.0 1.0
  outer loop
    vertex 10.85786437626905 10.857864376269053 3.0
    vertex 50.0 0.0 3.0
    vertex 39.14213562373095 10.857864376269053 3.0
  endloop
endfacet
facet normal -0.0 -0.0 1.0
  outer loop
    vertex 39.14213562373095 10.857864376269053 3.0
    vertex 50.0 0.0 3.0
    vertex 39.14213562373095 39.14213562373095 3.0
  endloop
endfacet
facet normal -0.0 -0.0 1.0
  outer loop
    vertex 0.0 50.0 3.0
    vertex 10.85786437626905 39.14213562373095 3.0
    vertex 50.0 50.0 3.0
  endloop
endfacet
facet normal -0.0 -0.0 1.0
  outer loop
    vertex 10.85786437626905 39.14213562373095 3.0
    vertex 0.0 50.0 3.0
    vertex 10.85786437626905 10.857864376269053 3.0
  endloop
endfacet
facet normal -0.0 -0.0 1.0
  outer loop
    vertex 10.85786437626905 39.14213562373095 3.0
    vertex 10.85786437626905 10.857864376269053 3.0
    vertex 10.85786437626905 23.460853102087256 3.0
  endloop
endfacet
facet normal -0.0 -0.0 1.0
  outer loop
    vertex 10.85786437626905 39.14213562373095 3.0
    vertex 10.85786437626905 23.460853102087256 3.0
    vertex 10.85786437626905 26.500000000000007 3.0
  endloop
endfacet
facet normal -0.0 -0.0 1.0
  outer loop
    vertex 50.0 50.0 3.0
    vertex 10.85786437626905 39.14213562373095 3.0
    vertex 30.999999999999993 39.14213562373095 3.0
  endloop
endfacet
facet normal -0.0 -0.0 1.0
  outer loop
    vertex 50.0 50.0 3.0
    vertex 30.999999999999993 39.14213562373095 3.0
    vertex 39.14213562373095 39.14213562373095 3.0
  endloop
endfacet
facet normal -0.0 -0.0 1.0
  outer loop
    vertex 50.0 50.0 3.0
    vertex 39.14213562373095 39.14213562373095 3.0
    vertex 50.0 0.0 3.0
  endloop
endfacet
facet normal -0.0 1.0 0.0
  outer loop
    vertex 0.0 50.0 3.0
    vertex 50.0 50.0 0.0
    vertex 0.0 50.0 0.0
  endloop
endfacet
facet normal -0.0 1.0 0.0
  outer loop
    vertex 50.0 50.0 0.0
    vertex 0.0 50.0 3.0
    vertex 50.0 50.0 3.0
  endloop
endfacet
facet normal 1.0 0.0 0.0
  outer loop
    vertex 50.0 50.0 0.0
    vertex 50.0 0.0 3.0
    vertex 50.0 0.0 0.0
  endloop
endfacet
facet normal 1.0 0.0 0.0
  outer loop
    vertex 50.0 0.0 3.0
    vertex 50.0 50.0 0.0
    vertex 50.0 50.0 3.0
  endloop
endfacet
facet normal -0.0 -1.0 -0.0
  outer loop
    vertex 50.0 0.0 3.0
    vertex 0.0 0.0 0.0
    vertex 50.0 0.0 0.0
  endloop
endfacet
facet normal -0.0 -1.0 -0.0
  outer loop
    vertex 0.0 0.0 0.0
    vertex 50.0 0.0 3.0
    vertex 0.0 0.0 3.0
  endloop
endfacet
facet normal -1.0 0.0 0.0
  outer loop
    vertex 0.0 50.0 3.0
    vertex 0.0 0.0 0.0
    vertex 0.0 0.0 3.0
  endloop
endfacet
facet normal -1.0 0.0 0.0
  outer loop
    vertex 0.0 0.0 0.0
    vertex 0.0 50.0 3.0
    vertex 0.0 50.0 0.0
  endloop
endfacet
facet normal 1.0080625375783871e-32 7.859465116419152e-33 1.0
  outer loop
    vertex 15.50504949846542 21.86217990104463 5.5
    vertex 18.983897376269038 23.460853102087256 5.5
    vertex 15.20045349706711 23.460853102087256 5.5
  endloop
endfacet
facet normal 1.0080625375783871e-32 7.859465116419152e-33 1.0
  outer loop
    vertex 18.983897376269038 23.460853102087256 5.5
    vertex 15.50504949846542 21.86217990104463 5.5
    vertex 16.64070969294653 19.511624506067214 5.5
  endloop
endfacet
facet normal 1.0080625375783871e-32 7.859465116419152e-33 1.0
  outer loop
    vertex 18.983897376269038 23.460853102087256 5.5
    vertex 16.64070969294653 19.511624506067214 5.5
    vertex 18.346041707472942 17.535092831031957 5.5
  endloop
endfacet
facet normal 1.0080625375783871e-32 7.859465116419152e-33 1.0
  outer loop
    vertex 18.983897376269038 23.460853102087256 5.5
    vertex 18.346041707472942 17.535092831031957 5.5
    vertex 19.000000000000004 20.199999999999978 5.5
  endloop
endfacet
facet normal 1.0080625375783871e-32 7.859465116419152e-33 1.0
  outer loop
    vertex 19.000000000000004 20.199999999999978 5.5
    vertex 18.346041707472942 17.535092831031957 5.5
    vertex 20.50482998344907 16.0672822432195 5.5
  endloop
endfacet
facet normal 1.0080625375783871e-32 7.859465116419152e-33 1.0
  outer loop
    vertex 19.000000000000004 20.199999999999978 5.5
    vertex 20.50482998344907 16.0672822432195 5.5
    vertex 30.999999999999993 20.199999999999978 5.5
  endloop
endfacet
facet normal 1.0080625375783871e-32 7.859465116419152e-33 1.0
  outer loop
    vertex 30.999999999999993 20.199999999999978 5.5
    vertex 20.50482998344907 16.0672822432195 5.5
    vertex 22.969956667433458 15.208221608517569 5.5
  endloop
endfacet
facet normal 1.0080625375783871e-32 7.859465116419152e-33 1.0
  outer loop
    vertex 30.999999999999993 20.199999999999978 5.5
    vertex 22.969956667433458 15.208221608517569 5.5
    vertex 25.573427449727028 15.01645448951628 5.5
  endloop
endfacet
facet normal 1.0080625375783871e-32 7.859465116419152e-33 1.0
  outer loop
    vertex 30.999999999999993 20.199999999999978 5.5
    vertex 25.573427449727028 15.01645448951628 5.5
    vertex 28.137820098955366 15.505049498465414 5.5
  endloop
endfacet
facet normal 1.0080625375783871e-32 7.859465116419152e-33 1.0
  outer loop
    vertex 30.999999999999993 20.199999999999978 5.5
    vertex 28.137820098955366 15.505049498465414 5.5
    vertex 30.488375493932786 16.640709692946526 5.5
  endloop
endfacet
facet normal 1.0080625375783871e-32 7.859465116419152e-33 1.0
  outer loop
    vertex 30.999999999999993 20.199999999999978 5.5
    vertex 30.488375493932786 16.640709692946526 5.5
    vertex 32.46490716896804 18.346041707472935 5.5
  endloop
endfacet
facet normal 1.0080625375783871e-32 7.859465116419152e-33 1.0
  outer loop
    vertex 30.999999999999993 20.199999999999978 5.5
    vertex 32.46490716896804 18.346041707472935 5.5
    vertex 30.999999999999993 29.80000000000001 5.5
  endloop
endfacet
facet normal 1.0080625375783871e-32 7.859465116419152e-33 1.0
  outer loop
    vertex 30.999999999999993 29.80000000000001 5.5
    vertex 32.46490716896804 18.346041707472935 5.5
    vertex 30.999999999999993 32.90954869145589 5.5
  endloop
endfacet
facet normal 1.0080625375783871e-32 7.859465116419152e-33 1.0
  outer loop
    vertex 30.999999999999993 32.90954869145589 5.5
    vertex 32.46490716896804 18.346041707472935 5.5
    vertex 31.65395829252706 32.464907168968026 5.5
  endloop
endfacet
facet normal 1.0080625375783871e-32 7.859465116419152e-33 1.0
  outer loop
    vertex 31.65395829252706 32.464907168968026 5.5
    vertex 32.46490716896804 18.346041707472935 5.5
    vertex 33.35929030705346 30.48837549393278 5.5
  endloop
endfacet
facet normal 1.0080625375783871e-32 7.859465116419152e-33 1.0
  outer loop
    vertex 33.35929030705346 30.48837549393278 5.5
    vertex 32.46490716896804 18.346041707472935 5.5
    vertex 33.93271775678049 20.504829983449063 5.5
  endloop
endfacet
facet normal 1.0080625375783871e-32 7.859465116419152e-33 1.0
  outer loop
    vertex 33.35929030705346 30.48837549393278 5.5
    vertex 33.93271775678049 20.504829983449063 5.5
    vertex 34.494950501534575 28.137820098955356 5.5
  endloop
endfacet
facet normal 1.0080625375783871e-32 7.859465116419152e-33 1.0
  outer loop
    vertex 34.494950501534575 28.137820098955356 5.5
    vertex 33.93271775678049 20.504829983449063 5.5
    vertex 34.791778391482424 22.96995666743345 5.5
  endloop
endfacet
facet normal 1.0080625375783871e-32 7.859465116419152e-33 1.0
  outer loop
    vertex 34.494950501534575 28.137820098955356 5.5
    vertex 34.791778391482424 22.96995666743345 5.5
    vertex 34.983545510483715 25.57342744972702 5.5
  endloop
endfacet
facet normal 1.0080625375783871e-32 7.859465116419152e-33 1.0
  outer loop
    vertex 18.983897376269038 26.500000000000007 5.5
    vertex 15.208221608517576 27.030043332566542 5.5
    vertex 15.169179540704324 26.500000000000007 5.5
  endloop
endfacet
facet normal 1.0080625375783871e-32 7.859465116419152e-33 1.0
  outer loop
    vertex 15.208221608517576 27.030043332566542 5.5
    vertex 18.983897376269038 26.500000000000007 5.5
    vertex 16.067282243219505 29.49517001655093 5.5
  endloop
endfacet
facet normal 1.0080625375783871e-32 7.859465116419152e-33 1.0
  outer loop
    vertex 16.067282243219505 29.49517001655093 5.5
    vertex 18.983897376269038 26.500000000000007 5.5
    vertex 17.535092831031964 31.653958292527054 5.5
  endloop
endfacet
facet normal 1.0080625375783871e-32 7.859465116419152e-33 1.0
  outer loop
    vertex 17.535092831031964 31.653958292527054 5.5
    vertex 18.983897376269038 26.500000000000007 5.5
    vertex 19.000000000000004 29.80000000000001 5.5
  endloop
endfacet
facet normal 1.0080625375783871e-32 7.859465116419152e-33 1.0
  outer loop
    vertex 17.535092831031964 31.653958292527054 5.5
    vertex 19.000000000000004 29.80000000000001 5.5
    vertex 19.511624506067218 33.35929030705346 5.5
  endloop
endfacet
facet normal 1.0080625375783871e-32 7.859465116419152e-33 1.0
  outer loop
    vertex 19.511624506067218 33.35929030705346 5.5
    vertex 19.000000000000004 29.80000000000001 5.5
    vertex 30.999999999999993 29.80000000000001 5.5
  endloop
endfacet
facet normal 1.0080625375783871e-32 7.859465116419152e-33 1.0
  outer loop
    vertex 19.511624506067218 33.35929030705346 5.5
    vertex 30.999999999999993 29.80000000000001 5.5
    vertex 21.862179901044637 34.494950501534575 5.5
  endloop
endfacet
facet normal 1.0080625375783871e-32 7.859465116419152e-33 1.0
  outer loop
    vertex 21.862179901044637 34.494950501534575 5.5
    vertex 30.999999999999993 29.80000000000001 5.5
    vertex 24.426572550272976 34.983545510483715 5.5
  endloop
endfacet
facet normal 1.0080625375783871e-32 7.859465116419152e-33 1.0
  outer loop
    vertex 24.426572550272976 34.983545510483715 5.5
    vertex 30.999999999999993 29.80000000000001 5.5
    vertex 25.0 34.94130784423515 5.5
  endloop
endfacet
facet normal 1.0080625375783871e-32 7.859465116419152e-33 1.0
  outer loop
    vertex 25.0 34.94130784423515 5.5
    vertex 30.999999999999993 29.80000000000001 5.5
    vertex 27.030043332566542 34.791778391482424 5.5
  endloop
endfacet
facet normal 1.0080625375783871e-32 7.859465116419152e-33 1.0
  outer loop
    vertex 27.030043332566542 34.791778391482424 5.5
    vertex 30.999999999999993 29.80000000000001 5.5
    vertex 29.49517001655093 33.932717756780484 5.5
  endloop
endfacet
facet normal 1.0080625375783871e-32 7.859465116419152e-33 1.0
  outer loop
    vertex 29.49517001655093 33.932717756780484 5.5
    vertex 30.999999999999993 29.80000000000001 5.5
    vertex 30.999999999999993 32.90954869145589 5.5
  endloop
endfacet
facet normal 0.0 -1.0 0.0
  outer loop
    vertex 39.14213562373095 10.857864376269053 23.500000000000004
    vertex 10.85786437626905 10.857864376269053 3.0
    vertex 39.14213562373095 10.857864376269053 3.0
  endloop
endfacet
facet normal 0.0 -1.0 0.0
  outer loop
    vertex 10.85786437626905 10.857864376269053 3.0
    vertex 39.14213562373095 10.857864376269053 23.500000000000004
    vertex 10.85786437626905 10.857864376269053 23.500000000000004
  endloop
endfacet
facet normal 1.0 -0.0 0.0
  outer loop
    vertex 39.14213562373095 39.14213562373095 3.0
    vertex 39.14213562373095 10.857864376269053 23.500000000000004
    vertex 39.14213562373095 10.857864376269053 3.0
  endloop
endfacet
facet normal 1.0 -0.0 0.0
  outer loop
    vertex 39.14213562373095 10.857864376269053 23.500000000000004
    vertex 39.14213562373095 39.14213562373095 3.0
    vertex 39.14213562373095 39.14213562373095 23.500000000000004
  endloop
endfacet
facet normal 0.0 1.0 0.0
  outer loop
    vertex 19.000000000000004 20.199999999999978 5.5
    vertex 30.999999999999993 20.199999999999978 3.0
    vertex 19.000000000000004 20.199999999999978 3.0
  endloop
endfacet
facet normal 0.0 1.0 0.0
  outer loop
    vertex 30.999999999999993 20.199999999999978 3.0
    vertex 19.000000000000004 20.199999999999978 5.5
    vertex 30.999999999999993 20.199999999999978 5.5
  endloop
endfacet
facet normal 0.9999878074966971 0.004938102666865159 -0.0
  outer loop
    vertex 18.983897376269038 23.460853102087256 3.0
    vertex 19.000000000000004 20.199999999999978 5.5
    vertex 19.000000000000004 20.199999999999978 3.0
  endloop
endfacet
facet normal 0.9999878074966971 0.004938102666865159 -0.0
  outer loop
    vertex 19.000000000000004 20.199999999999978 5.5
    vertex 18.983897376269038 23.460853102087256 3.0
    vertex 18.983897376269038 23.460853102087256 5.5
  endloop
endfacet
facet normal 0.0 -1.0 0.0
  outer loop
    vertex 30.999999999999993 29.80000000000001 5.5
    vertex 19.000000000000004 29.80000000000001 3.0
    vertex 30.999999999999993 29.80000000000001 3.0
  endloop
endfacet
facet normal 0.0 -1.0 0.0
  outer loop
    vertex 19.000000000000004 29.80000000000001 3.0
    vertex 30.999999999999993 29.80000000000001 5.5
    vertex 19.000000000000004 29.80000000000001 5.5
  endloop
endfacet
facet normal -1.0 -0.0 -0.0
  outer loop
    vertex 30.999999999999993 29.80000000000001 5.5
    vertex 30.999999999999993 20.199999999999978 3.0
    vertex 30.999999999999993 20.199999999999978 5.5
  endloop
endfacet
facet normal -1.0 -0.0 -0.0
  outer loop
    vertex 30.999999999999993 20.199999999999978 3.0
    vertex 30.999999999999993 29.80000000000001 5.5
    vertex 30.999999999999993 29.80000000000001 3.0
  endloop
endfacet
facet normal -1.0 0.0 0.0
  outer loop
    vertex 10.85786437626905 39.14213562373095 23.500000000000004
    vertex 10.85786437626905 10.857864376269053 3.0
    vertex 10.85786437626905 10.857864376269053 23.500000000000004
  endloop
endfacet
facet normal -1.0 0.0 0.0
  outer loop
    vertex 10.85786437626905 10.857864376269053 3.0
    vertex 10.85786437626905 39.14213562373095 23.500000000000004
    vertex 10.85786437626905 23.460853102087256 5.5
  endloop
endfacet
facet normal -1.0 0.0 0.0
  outer loop
    vertex 10.85786437626905 23.460853102087256 5.5
    vertex 10.85786437626905 39.14213562373095 23.500000000000004
    vertex 10.85786437626905 26.500000000000007 5.5
  endloop
endfacet
facet normal -1.0 0.0 0.0
  outer loop
    vertex 10.85786437626905 26.500000000000007 5.5
    vertex 10.85786437626905 39.14213562373095 23.500000000000004
    vertex 10.85786437626905 26.500000000000007 3.0
  endloop
endfacet
facet normal -1.0 0.0 0.0
  outer loop
    vertex 10.85786437626905 26.500000000000007 3.0
    vertex 10.85786437626905 39.14213562373095 23.500000000000004
    vertex 10.85786437626905 39.14213562373095 3.0
  endloop
endfacet
facet normal -1.0 0.0 0.0
  outer loop
    vertex 10.85786437626905 23.460853102087256 3.0
    vertex 10.85786437626905 10.857864376269053 3.0
    vertex 10.85786437626905 23.460853102087256 5.5
  endloop
endfacet
facet normal 0.9999880950477181 -0.004879524857575326 -0.0
  outer loop
    vertex 19.000000000000004 29.80000000000001 3.0
    vertex 18.983897376269038 26.500000000000007 5.5
    vertex 18.983897376269038 26.500000000000007 3.0
  endloop
endfacet
facet normal 0.9999880950477181 -0.004879524857575326 -0.0
  outer loop
    vertex 18.983897376269038 26.500000000000007 5.5
    vertex 19.000000000000004 29.80000000000001 3.0
    vertex 19.000000000000004 29.80000000000001 5.5
  endloop
endfacet
facet normal -0.0 1.0 -0.0
  outer loop
    vertex 25.0 39.14213562373095 23.500000000000004
    vertex 30.999999999999993 39.14213562373095 13.5
    vertex 25.0 39.14213562373095 13.5
  endloop
endfacet
facet normal -0.0 1.0 -0.0
  outer loop
    vertex 30.999999999999993 39.14213562373095 5.5
    vertex 39.14213562373095 39.14213562373095 3.0
    vertex 30.999999999999993 39.14213562373095 3.0
  endloop
endfacet
facet normal -0.0 1.0 -0.0
  outer loop
    vertex 39.14213562373095 39.14213562373095 3.0
    vertex 30.999999999999993 39.14213562373095 5.5
    vertex 39.14213562373095 39.14213562373095 23.500000000000004
  endloop
endfacet
facet normal -0.0 1.0 -0.0
  outer loop
    vertex 39.14213562373095 39.14213562373095 23.500000000000004
    vertex 30.999999999999993 39.14213562373095 5.5
    vertex 30.999999999999993 39.14213562373095 13.5
  endloop
endfacet
facet normal -0.0 1.0 -0.0
  outer loop
    vertex 39.14213562373095 39.14213562373095 23.500000000000004
    vertex 30.999999999999993 39.14213562373095 13.5
    vertex 25.0 39.14213562373095 23.500000000000004
  endloop
endfacet
facet normal -0.0 1.0 -0.0
  outer loop
    vertex 30.999999999999993 39.14213562373095 5.5
    vertex 30.999999999999993 39.14213562373095 3.0
    vertex 25.0 39.14213562373095 5.5
  endloop
endfacet
facet normal -0.0 1.0 -0.0
  outer loop
    vertex 10.85786437626905 39.14213562373095 3.0
    vertex 25.0 39.14213562373095 5.5
    vertex 30.999999999999993 39.14213562373095 3.0
  endloop
endfacet
facet normal -0.0 1.0 -0.0
  outer loop
    vertex 25.0 39.14213562373095 5.5
    vertex 10.85786437626905 39.14213562373095 3.0
    vertex 19.182147789111784 39.14213562373095 10.5
  endloop
endfacet
facet normal -0.0 1.0 -0.0
  outer loop
    vertex 19.182147789111784 39.14213562373095 10.5
    vertex 10.85786437626905 39.14213562373095 3.0
    vertex 10.85786437626905 39.14213562373095 23.500000000000004
  endloop
endfacet
facet normal -0.0 1.0 -0.0
  outer loop
    vertex 19.182147789111784 39.14213562373095 10.5
    vertex 10.85786437626905 39.14213562373095 23.500000000000004
    vertex 19.182147789111784 39.14213562373095 23.500000000000004
  endloop
endfacet
facet normal -0.0 1.0 -0.0
  outer loop
    vertex 25.0 39.14213562373095 10.5
    vertex 25.0 39.14213562373095 5.5
    vertex 19.182147789111784 39.14213562373095 10.5
  endloop
endfacet
facet normal -0.0 -0.0 1.0
  outer loop
    vertex 27.030043332566542 34.791778391482424 5.5
    vertex 25.0 39.14213562373095 5.5
    vertex 25.0 34.94130784423515 5.5
  endloop
endfacet
facet normal -0.0 -0.0 1.0
  outer loop
    vertex 25.0 39.14213562373095 5.5
    vertex 27.030043332566542 34.791778391482424 5.5
    vertex 30.999999999999993 39.14213562373095 5.5
  endloop
endfacet
facet normal -0.0 -0.0 1.0
  outer loop
    vertex 30.999999999999993 39.14213562373095 5.5
    vertex 27.030043332566542 34.791778391482424 5.5
    vertex 29.49517001655093 33.932717756780484 5.5
  endloop
endfacet
facet normal -0.0 -0.0 1.0
  outer loop
    vertex 30.999999999999993 39.14213562373095 5.5
    vertex 29.49517001655093 33.932717756780484 5.5
    vertex 30.999999999999993 32.90954869145589 5.5
  endloop
endfacet
facet normal -0.0 -0.0 1.0
  outer loop
    vertex 19.511624506067218 33.35929030705346 10.5
    vertex 19.182147789111784 39.14213562373095 10.5
    vertex 19.182147789111784 33.07502104865408 10.5
  endloop
endfacet
facet normal -0.0 -0.0 1.0
  outer loop
    vertex 19.182147789111784 39.14213562373095 10.5
    vertex 19.511624506067218 33.35929030705346 10.5
    vertex 25.0 39.14213562373095 10.5
  endloop
endfacet
facet normal -0.0 -0.0 1.0
  outer loop
    vertex 25.0 39.14213562373095 10.5
    vertex 19.511624506067218 33.35929030705346 10.5
    vertex 21.862179901044637 34.494950501534575 10.5
  endloop
endfacet
facet normal -0.0 -0.0 1.0
  outer loop
    vertex 25.0 39.14213562373095 10.5
    vertex 21.862179901044637 34.494950501534575 10.5
    vertex 24.426572550272976 34.983545510483715 10.5
  endloop
endfacet
facet normal -0.0 -0.0 1.0
  outer loop
    vertex 25.0 39.14213562373095 10.5
    vertex 24.426572550272976 34.983545510483715 10.5
    vertex 25.0 34.94130784423515 10.5
  endloop
endfacet
facet normal -0.07345924819364433 -0.997298219618798 2.3891133483599996e-32
  outer loop
    vertex 25.0 34.94130784423515 10.5
    vertex 24.426572550272976 34.983545510483715 5.5
    vertex 25.0 34.94130784423515 5.5
  endloop
endfacet
facet normal 0.05734274497270524 -0.9983545510483715 2.1625920653125966e-32
  outer loop
    vertex 24.426572550272976 34.983545510483715 5.5
    vertex 25.0 34.94130784423515 10.5
    vertex 24.426572550272976 34.983545510483715 10.5
  endloop
endfacet
facet normal 1.0 -0.0 -0.0
  outer loop
    vertex 25.0 39.14213562373095 5.5
    vertex 25.0 34.94130784423515 10.5
    vertex 25.0 34.94130784423515 5.5
  endloop
endfacet
facet normal 1.0 -0.0 -0.0
  outer loop
    vertex 25.0 34.94130784423515 10.5
    vertex 25.0 39.14213562373095 5.5
    vertex 25.0 39.14213562373095 10.5
  endloop
endfacet
facet normal 0.3137820098955374 -0.9494950501534575 1.603050815596901e-32
  outer loop
    vertex 21.862179901044637 34.494950501534575 10.5
    vertex 19.511624506067218 33.35929030705346 5.5
    vertex 21.862179901044637 34.494950501534575 5.5
  endloop
endfacet
facet normal 0.5488375493932783 -0.835929030705347 9.342643019650086e-33
  outer loop
    vertex 19.511624506067218 33.35929030705346 5.5
    vertex 21.862179901044637 34.494950501534575 10.5
    vertex 19.511624506067218 33.35929030705346 10.5
  endloop
endfacet
facet normal 0.05734274497270524 -0.9983545510483715 2.1625920653125966e-32
  outer loop
    vertex 24.426572550272976 34.983545510483715 10.5
    vertex 21.862179901044637 34.494950501534575 5.5
    vertex 24.426572550272976 34.983545510483715 5.5
  endloop
endfacet
facet normal 0.3137820098955374 -0.9494950501534575 1.603050815596901e-32
  outer loop
    vertex 21.862179901044637 34.494950501534575 5.5
    vertex 24.426572550272976 34.983545510483715 10.5
    vertex 21.862179901044637 34.494950501534575 10.5
  endloop
endfacet
facet normal 0.0 0.0 -1.0
  outer loop
    vertex 30.999999999999993 39.14213562373095 13.5
    vertex 25.0 35.010112745541 13.5
    vertex 25.0 39.14213562373095 13.5
  endloop
endfacet
facet normal 0.0 0.0 -1.0
  outer loop
    vertex 25.0 35.010112745541 13.5
    vertex 30.999999999999993 39.14213562373095 13.5
    vertex 27.030043332566542 34.86058329278827 13.5
  endloop
endfacet
facet normal 0.0 0.0 -1.0
  outer loop
    vertex 27.030043332566542 34.86058329278827 13.5
    vertex 30.999999999999993 39.14213562373095 13.5
    vertex 29.49517001655093 34.00152265808634 13.5
  endloop
endfacet
facet normal 0.0 0.0 -1.0
  outer loop
    vertex 29.49517001655093 34.00152265808634 13.5
    vertex 30.999999999999993 39.14213562373095 13.5
    vertex 30.999999999999993 32.97835359276174 13.5
  endloop
endfacet
facet normal -0.5622666848880056 -0.8269559692420464 -7.773910747238446e-18
  outer loop
    vertex 30.999999999999993 32.97835359276174 23.500000000000004
    vertex 29.49517001655093 34.00152265808634 13.5
    vertex 30.999999999999993 32.97835359276174 13.5
  endloop
endfacet
facet normal -0.44951700165509423 -0.8932717756780486 -3.9204957583149955e-18
  outer loop
    vertex 29.49517001655093 34.00152265808634 13.5
    vertex 30.999999999999993 32.97835359276174 23.500000000000004
    vertex 29.49517001655093 34.00152265808634 23.500000000000004
  endloop
endfacet
facet normal -1.0 -0.0 -0.0
  outer loop
    vertex 25.0 39.14213562373095 23.500000000000004
    vertex 25.0 35.010112745541 13.5
    vertex 25.0 35.010112745541 23.500000000000004
  endloop
endfacet
facet normal -1.0 -0.0 -0.0
  outer loop
    vertex 25.0 35.010112745541 13.5
    vertex 25.0 39.14213562373095 23.500000000000004
    vertex 25.0 39.14213562373095 13.5
  endloop
endfacet
facet normal -0.20300433325665548 -0.9791778391482421 0.0
  outer loop
    vertex 27.030043332566542 34.86058329278827 23.500000000000004
    vertex 25.0 35.010112745541 13.5
    vertex 27.030043332566542 34.86058329278827 13.5
  endloop
endfacet
facet normal -0.07345924819364913 -0.9972982196187978 -0.0
  outer loop
    vertex 25.0 35.010112745541 13.5
    vertex 27.030043332566542 34.86058329278827 23.500000000000004
    vertex 25.0 35.010112745541 23.500000000000004
  endloop
endfacet
facet normal -0.44951700165509423 -0.8932717756780486 -3.9204957583149955e-18
  outer loop
    vertex 29.49517001655093 34.00152265808634 23.500000000000004
    vertex 27.030043332566542 34.86058329278827 13.5
    vertex 29.49517001655093 34.00152265808634 13.5
  endloop
endfacet
facet normal -0.20300433325665548 -0.9791778391482421 0.0
  outer loop
    vertex 27.030043332566542 34.86058329278827 13.5
    vertex 29.49517001655093 34.00152265808634 23.500000000000004
    vertex 27.030043332566542 34.86058329278827 23.500000000000004
  endloop
endfacet
facet normal 0.8359290307053471 0.5488375493932782 -2.706990891923939e-32
  outer loop
    vertex 16.64070969294653 19.511624506067214 5.5
    vertex 18.346041707472942 17.535092831031957 23.500000000000004
    vertex 18.346041707472942 17.535092831031957 5.5
  endloop
endfacet
facet normal 0.6653958292527061 0.7464907168968034 -2.8565578085465684e-32
  outer loop
    vertex 18.346041707472942 17.535092831031957 23.500000000000004
    vertex 16.64070969294653 19.511624506067214 5.5
    vertex 16.64070969294653 19.511624506067214 23.500000000000004
  endloop
endfacet
facet normal 0.9494950501534578 0.3137820098955366 -2.8520670126723335e-19
  outer loop
    vertex 15.50504949846542 21.86217990104463 5.5
    vertex 16.64070969294653 19.511624506067214 23.500000000000004
    vertex 16.64070969294653 19.511624506067214 5.5
  endloop
endfacet
facet normal 0.8359290307053471 0.5488375493932782 -2.706990891923939e-32
  outer loop
    vertex 16.64070969294653 19.511624506067214 23.500000000000004
    vertex 15.50504949846542 21.86217990104463 5.5
    vertex 15.50504949846542 21.86217990104463 23.500000000000004
  endloop
endfacet
facet normal 0.9823287593133331 0.18716358787415852 -5.655334368015223e-19
  outer loop
    vertex 15.20045349706711 23.460853102087256 5.5
    vertex 15.50504949846542 21.86217990104463 23.500000000000004
    vertex 15.50504949846542 21.86217990104463 5.5
  endloop
endfacet
facet normal 0.9494950501534578 0.3137820098955366 -2.8520670126723335e-19
  outer loop
    vertex 15.50504949846542 21.86217990104463 23.500000000000004
    vertex 15.20045349706711 23.460853102087256 5.5
    vertex 15.20045349706711 23.460853102087256 23.500000000000004
  endloop
endfacet
facet normal 0.9823287593133331 0.18716358787415852 -5.655334368015223e-19
  outer loop
    vertex 15.20045349706711 23.460853102087256 23.500000000000004
    vertex 15.20045349706711 23.460853102087256 5.5
    vertex 15.016454489516281 24.42657255027297 5.5
  endloop
endfacet
facet normal 0.9823287593133331 0.18716358787415852 -5.655334368015223e-19
  outer loop
    vertex 15.20045349706711 23.460853102087256 23.500000000000004
    vertex 15.016454489516281 24.42657255027297 5.5
    vertex 15.016454489516281 24.42657255027297 23.500000000000004
  endloop
endfacet
facet normal 0.7464907168968026 -0.665395829252707 2.0180922009895887e-33
  outer loop
    vertex 17.535092831031964 31.653958292527054 5.5
    vertex 16.067282243219505 29.49517001655093 23.500000000000004
    vertex 16.067282243219505 29.49517001655093 5.5
  endloop
endfacet
facet normal 0.893271775678049 -0.44951700165509334 -5.443988266113358e-33
  outer loop
    vertex 16.067282243219505 29.49517001655093 23.500000000000004
    vertex 17.535092831031964 31.653958292527054 5.5
    vertex 17.535092831031964 31.653958292527054 23.500000000000004
  endloop
endfacet
facet normal -0.057342744972702725 0.9983545510483716 -2.1625920653126015e-32
  outer loop
    vertex 25.573427449727028 15.01645448951628 23.500000000000004
    vertex 28.137820098955366 15.505049498465414 5.5
    vertex 25.573427449727028 15.01645448951628 5.5
  endloop
endfacet
facet normal -0.31378200989553634 0.9494950501534579 -1.6030508155969042e-32
  outer loop
    vertex 28.137820098955366 15.505049498465414 5.5
    vertex 25.573427449727028 15.01645448951628 23.500000000000004
    vertex 28.137820098955366 15.505049498465414 23.500000000000004
  endloop
endfacet
facet normal 0.5488375493932783 -0.835929030705347 9.342643019650086e-33
  outer loop
    vertex 19.511624506067218 33.35929030705346 10.5
    vertex 17.535092831031964 31.653958292527054 5.5
    vertex 19.511624506067218 33.35929030705346 5.5
  endloop
endfacet
facet normal 0.7464907168968026 -0.665395829252707 2.0180922009895887e-33
  outer loop
    vertex 17.535092831031964 31.653958292527054 5.5
    vertex 19.511624506067218 33.35929030705346 10.5
    vertex 19.182147789111784 33.07502104865408 10.5
  endloop
endfacet
facet normal 0.7464907168968026 -0.665395829252707 2.0180922009895887e-33
  outer loop
    vertex 17.535092831031964 31.653958292527054 5.5
    vertex 19.182147789111784 33.07502104865408 10.5
    vertex 17.535092831031964 31.653958292527054 23.500000000000004
  endloop
endfacet
facet normal 0.7464907168968026 -0.665395829252707 2.0180922009895887e-33
  outer loop
    vertex 17.535092831031964 31.653958292527054 23.500000000000004
    vertex 19.182147789111784 33.07502104865408 10.5
    vertex 19.182147789111784 33.07502104865408 23.500000000000004
  endloop
endfacet
facet normal 0.20300433325665385 0.9791778391482425 -2.5747562396296105e-32
  outer loop
    vertex 22.969956667433458 15.208221608517569 23.500000000000004
    vertex 25.573427449727028 15.01645448951628 5.5
    vertex 22.969956667433458 15.208221608517569 5.5
  endloop
endfacet
facet normal -0.057342744972702725 0.9983545510483716 -2.1625920653126015e-32
  outer loop
    vertex 25.573427449727028 15.01645448951628 5.5
    vertex 22.969956667433458 15.208221608517569 23.500000000000004
    vertex 25.573427449727028 15.01645448951628 23.500000000000004
  endloop
endfacet
facet normal 0.6653958292527061 0.7464907168968034 -2.8565578085465684e-32
  outer loop
    vertex 18.346041707472942 17.535092831031957 23.500000000000004
    vertex 20.50482998344907 16.0672822432195 5.5
    vertex 18.346041707472942 17.535092831031957 5.5
  endloop
endfacet
facet normal 0.449517001655093 0.8932717756780492 -2.8114550312017303e-32
  outer loop
    vertex 20.50482998344907 16.0672822432195 5.5
    vertex 18.346041707472942 17.535092831031957 23.500000000000004
    vertex 20.50482998344907 16.0672822432195 23.500000000000004
  endloop
endfacet
facet normal 0.449517001655093 0.8932717756780492 -2.8114550312017303e-32
  outer loop
    vertex 20.50482998344907 16.0672822432195 23.500000000000004
    vertex 22.969956667433458 15.208221608517569 5.5
    vertex 20.50482998344907 16.0672822432195 5.5
  endloop
endfacet
facet normal 0.20300433325665385 0.9791778391482425 -2.5747562396296105e-32
  outer loop
    vertex 22.969956667433458 15.208221608517569 5.5
    vertex 20.50482998344907 16.0672822432195 23.500000000000004
    vertex 22.969956667433458 15.208221608517569 23.500000000000004
  endloop
endfacet
facet normal 0.893271775678049 -0.44951700165509334 -5.443988266113358e-33
  outer loop
    vertex 16.067282243219505 29.49517001655093 5.5
    vertex 15.208221608517576 27.030043332566542 23.500000000000004
    vertex 15.208221608517576 27.030043332566542 5.5
  endloop
endfacet
facet normal 0.9791778391482425 -0.20300433325665446 -6.593259921565346e-33
  outer loop
    vertex 15.208221608517576 27.030043332566542 23.500000000000004
    vertex 16.067282243219505 29.49517001655093 5.5
    vertex 16.067282243219505 29.49517001655093 23.500000000000004
  endloop
endfacet
facet normal 0.9972982196187979 -0.07345924819364902 -4.006607947851596e-33
  outer loop
    vertex 15.169179540704324 26.500000000000007 5.5
    vertex 15.016454489516281 24.42657255027297 23.500000000000004
    vertex 15.016454489516281 24.42657255027297 5.5
  endloop
endfacet
facet normal 0.9983545510483716 0.05734274497270245 -2.8520670126722247e-19
  outer loop
    vertex 15.016454489516281 24.42657255027297 23.500000000000004
    vertex 15.169179540704324 26.500000000000007 5.5
    vertex 15.169179540704324 26.500000000000007 23.500000000000004
  endloop
endfacet
facet normal 0.9972982196187979 -0.07345924819364902 -4.006607947851596e-33
  outer loop
    vertex 15.169179540704324 26.500000000000007 23.500000000000004
    vertex 15.169179540704324 26.500000000000007 5.5
    vertex 15.208221608517576 27.030043332566542 5.5
  endloop
endfacet
facet normal 0.9972982196187979 -0.07345924819364902 -4.006607947851596e-33
  outer loop
    vertex 15.169179540704324 26.500000000000007 23.500000000000004
    vertex 15.208221608517576 27.030043332566542 5.5
    vertex 15.208221608517576 27.030043332566542 23.500000000000004
  endloop
endfacet
facet normal -0.949495050153458 -0.3137820098955362 2.372947019530656e-32
  outer loop
    vertex 34.494950501534575 28.137820098955356 23.500000000000004
    vertex 34.983545510483715 25.57342744972702 5.5
    vertex 34.983545510483715 25.57342744972702 23.500000000000004
  endloop
endfacet
facet normal -0.9983545510483716 -0.05734274497270243 1.8771907292367222e-32
  outer loop
    vertex 34.983545510483715 25.57342744972702 5.5
    vertex 34.494950501534575 28.137820098955356 23.500000000000004
    vertex 34.494950501534575 28.137820098955356 5.5
  endloop
endfacet
facet normal -0.8932717756780495 0.44951700165509223 5.443988266113392e-33
  outer loop
    vertex 33.93271775678049 20.504829983449063 23.500000000000004
    vertex 32.46490716896804 18.346041707472935 5.5
    vertex 32.46490716896804 18.346041707472935 23.500000000000004
  endloop
endfacet
facet normal -0.7464907168968037 0.6653958292527061 -2.0180922009895425e-33
  outer loop
    vertex 32.46490716896804 18.346041707472935 5.5
    vertex 33.93271775678049 20.504829983449063 23.500000000000004
    vertex 33.93271775678049 20.504829983449063 5.5
  endloop
endfacet
facet normal -0.9983545510483716 -0.05734274497270243 1.8771907292367222e-32
  outer loop
    vertex 34.983545510483715 25.57342744972702 23.500000000000004
    vertex 34.791778391482424 22.96995666743345 5.5
    vertex 34.791778391482424 22.96995666743345 23.500000000000004
  endloop
endfacet
facet normal -0.9791778391482425 0.20300433325665393 1.2535069929496653e-32
  outer loop
    vertex 34.791778391482424 22.96995666743345 5.5
    vertex 34.983545510483715 25.57342744972702 23.500000000000004
    vertex 34.983545510483715 25.57342744972702 5.5
  endloop
endfacet
facet normal -0.9791778391482425 0.20300433325665393 1.2535069929496653e-32
  outer loop
    vertex 34.791778391482424 22.96995666743345 23.500000000000004
    vertex 33.93271775678049 20.504829983449063 5.5
    vertex 33.93271775678049 20.504829983449063 23.500000000000004
  endloop
endfacet
facet normal -0.8932717756780495 0.44951700165509223 5.443988266113392e-33
  outer loop
    vertex 33.93271775678049 20.504829983449063 5.5
    vertex 34.791778391482424 22.96995666743345 23.500000000000004
    vertex 34.791778391482424 22.96995666743345 5.5
  endloop
endfacet
facet normal -0.8359290307053467 -0.5488375493932784 2.7069908919239386e-32
  outer loop
    vertex 33.35929030705346 30.48837549393278 23.500000000000004
    vertex 34.494950501534575 28.137820098955356 5.5
    vertex 34.494950501534575 28.137820098955356 23.500000000000004
  endloop
endfacet
facet normal -0.949495050153458 -0.3137820098955362 2.372947019530656e-32
  outer loop
    vertex 34.494950501534575 28.137820098955356 5.5
    vertex 33.35929030705346 30.48837549393278 23.500000000000004
    vertex 33.35929030705346 30.48837549393278 5.5
  endloop
endfacet
facet normal -0.31378200989553634 0.9494950501534579 -1.6030508155969042e-32
  outer loop
    vertex 28.137820098955366 15.505049498465414 23.500000000000004
    vertex 30.488375493932786 16.640709692946526 5.5
    vertex 28.137820098955366 15.505049498465414 5.5
  endloop
endfacet
facet normal -0.5488375493932786 0.8359290307053467 -9.342643019650074e-33
  outer loop
    vertex 30.488375493932786 16.640709692946526 5.5
    vertex 28.137820098955366 15.505049498465414 23.500000000000004
    vertex 30.488375493932786 16.640709692946526 23.500000000000004
  endloop
endfacet
facet normal -0.5488375493932786 0.8359290307053467 -9.342643019650074e-33
  outer loop
    vertex 30.488375493932786 16.640709692946526 23.500000000000004
    vertex 32.46490716896804 18.346041707472935 5.5
    vertex 30.488375493932786 16.640709692946526 5.5
  endloop
endfacet
facet normal -0.7464907168968037 0.6653958292527061 -2.0180922009895425e-33
  outer loop
    vertex 32.46490716896804 18.346041707472935 5.5
    vertex 30.488375493932786 16.640709692946526 23.500000000000004
    vertex 32.46490716896804 18.346041707472935 23.500000000000004
  endloop
endfacet
facet normal -1.0 0.0 0.0
  outer loop
    vertex 30.999999999999993 32.97835359276174 13.5
    vertex 30.999999999999993 32.90954869145589 5.5
    vertex 30.999999999999993 32.90954869145589 13.5
  endloop
endfacet
facet normal -1.0 0.0 0.0
  outer loop
    vertex 30.999999999999993 32.90954869145589 5.5
    vertex 30.999999999999993 32.97835359276174 13.5
    vertex 30.999999999999993 39.14213562373095 5.5
  endloop
endfacet
facet normal -1.0 0.0 0.0
  outer loop
    vertex 30.999999999999993 39.14213562373095 5.5
    vertex 30.999999999999993 32.97835359276174 13.5
    vertex 30.999999999999993 39.14213562373095 13.5
  endloop
endfacet
facet normal 0.9999999999999999 -0.0 0.0
  outer loop
    vertex 19.182147789111784 39.14213562373095 10.5
    vertex 19.182147789111784 33.07502104865408 23.500000000000004
    vertex 19.182147789111784 33.07502104865408 10.5
  endloop
endfacet
facet normal 0.9999999999999999 -0.0 0.0
  outer loop
    vertex 19.182147789111784 33.07502104865408 23.500000000000004
    vertex 19.182147789111784 39.14213562373095 10.5
    vertex 19.182147789111784 39.14213562373095 23.500000000000004
  endloop
endfacet
facet normal -1.82281669770937e-31 -5.967655100493984e-33 1.0
  outer loop
    vertex 31.65395829252706 32.464907168968026 23.500000000000004
    vertex 30.999999999999993 32.97835359276174 23.500000000000004
    vertex 30.999999999999993 32.90954869145589 23.500000000000004
  endloop
endfacet
facet normal -1.82281669770937e-31 -5.967655100493984e-33 1.0
  outer loop
    vertex 10.85786437626905 10.857864376269053 23.500000000000004
    vertex 15.50504949846542 21.86217990104463 23.500000000000004
    vertex 10.85786437626905 39.14213562373095 23.500000000000004
  endloop
endfacet
facet normal -1.82281669770937e-31 -5.967655100493984e-33 1.0
  outer loop
    vertex 15.50504949846542 21.86217990104463 23.500000000000004
    vertex 10.85786437626905 10.857864376269053 23.500000000000004
    vertex 16.64070969294653 19.511624506067214 23.500000000000004
  endloop
endfacet
facet normal -1.82281669770937e-31 -5.967655100493984e-33 1.0
  outer loop
    vertex 16.64070969294653 19.511624506067214 23.500000000000004
    vertex 10.85786437626905 10.857864376269053 23.500000000000004
    vertex 18.346041707472942 17.535092831031957 23.500000000000004
  endloop
endfacet
facet normal -1.82281669770937e-31 -5.967655100493984e-33 1.0
  outer loop
    vertex 18.346041707472942 17.535092831031957 23.500000000000004
    vertex 10.85786437626905 10.857864376269053 23.500000000000004
    vertex 20.50482998344907 16.0672822432195 23.500000000000004
  endloop
endfacet
facet normal -1.82281669770937e-31 -5.967655100493984e-33 1.0
  outer loop
    vertex 20.50482998344907 16.0672822432195 23.500000000000004
    vertex 10.85786437626905 10.857864376269053 23.500000000000004
    vertex 22.969956667433458 15.208221608517569 23.500000000000004
  endloop
endfacet
facet normal -1.82281669770937e-31 -5.967655100493984e-33 1.0
  outer loop
    vertex 22.969956667433458 15.208221608517569 23.500000000000004
    vertex 10.85786437626905 10.857864376269053 23.500000000000004
    vertex 39.14213562373095 10.857864376269053 23.500000000000004
  endloop
endfacet
facet normal -1.82281669770937e-31 -5.967655100493984e-33 1.0
  outer loop
    vertex 10.85786437626905 39.14213562373095 23.500000000000004
    vertex 15.50504949846542 21.86217990104463 23.500000000000004
    vertex 15.016454489516281 24.42657255027297 23.500000000000004
  endloop
endfacet
facet normal -1.82281669770937e-31 -5.967655100493984e-33 1.0
  outer loop
    vertex 15.016454489516281 24.42657255027297 23.500000000000004
    vertex 15.50504949846542 21.86217990104463 23.500000000000004
    vertex 15.20045349706711 23.460853102087256 23.500000000000004
  endloop
endfacet
facet normal -1.82281669770937e-31 -5.967655100493984e-33 1.0
  outer loop
    vertex 22.969956667433458 15.208221608517569 23.500000000000004
    vertex 39.14213562373095 10.857864376269053 23.500000000000004
    vertex 25.573427449727028 15.01645448951628 23.500000000000004
  endloop
endfacet
facet normal -1.82281669770937e-31 -5.967655100493984e-33 1.0
  outer loop
    vertex 25.573427449727028 15.01645448951628 23.500000000000004
    vertex 39.14213562373095 10.857864376269053 23.500000000000004
    vertex 28.137820098955366 15.505049498465414 23.500000000000004
  endloop
endfacet
facet normal -1.82281669770937e-31 -5.967655100493984e-33 1.0
  outer loop
    vertex 28.137820098955366 15.505049498465414 23.500000000000004
    vertex 39.14213562373095 10.857864376269053 23.500000000000004
    vertex 30.488375493932786 16.640709692946526 23.500000000000004
  endloop
endfacet
facet normal -1.82281669770937e-31 -5.967655100493984e-33 1.0
  outer loop
    vertex 30.488375493932786 16.640709692946526 23.500000000000004
    vertex 39.14213562373095 10.857864376269053 23.500000000000004
    vertex 32.46490716896804 18.346041707472935 23.500000000000004
  endloop
endfacet
facet normal -1.82281669770937e-31 -5.967655100493984e-33 1.0
  outer loop
    vertex 32.46490716896804 18.346041707472935 23.500000000000004
    vertex 39.14213562373095 10.857864376269053 23.500000000000004
    vertex 33.93271775678049 20.504829983449063 23.500000000000004
  endloop
endfacet
facet normal -1.82281669770937e-31 -5.967655100493984e-33 1.0
  outer loop
    vertex 33.93271775678049 20.504829983449063 23.500000000000004
    vertex 39.14213562373095 10.857864376269053 23.500000000000004
    vertex 34.791778391482424 22.96995666743345 23.500000000000004
  endloop
endfacet
facet normal -1.82281669770937e-31 -5.967655100493984e-33 1.0
  outer loop
    vertex 34.791778391482424 22.96995666743345 23.500000000000004
    vertex 39.14213562373095 10.857864376269053 23.500000000000004
    vertex 34.983545510483715 25.57342744972702 23.500000000000004
  endloop
endfacet
facet normal -1.82281669770937e-31 -5.967655100493984e-33 1.0
  outer loop
    vertex 27.030043332566542 34.86058329278827 23.500000000000004
    vertex 25.0 39.14213562373095 23.500000000000004
    vertex 25.0 35.010112745541 23.500000000000004
  endloop
endfacet
facet normal -1.82281669770937e-31 -5.967655100493984e-33 1.0
  outer loop
    vertex 25.0 39.14213562373095 23.500000000000004
    vertex 27.030043332566542 34.86058329278827 23.500000000000004
    vertex 39.14213562373095 39.14213562373095 23.500000000000004
  endloop
endfacet
facet normal -1.82281669770937e-31 -5.967655100493984e-33 1.0
  outer loop
    vertex 39.14213562373095 39.14213562373095 23.500000000000004
    vertex 27.030043332566542 34.86058329278827 23.500000000000004
    vertex 29.49517001655093 34.00152265808634 23.500000000000004
  endloop
endfacet
facet normal -1.82281669770937e-31 -5.967655100493984e-33 1.0
  outer loop
    vertex 39.14213562373095 39.14213562373095 23.500000000000004
    vertex 29.49517001655093 34.00152265808634 23.500000000000004
    vertex 30.999999999999993 32.97835359276174 23.500000000000004
  endloop
endfacet
facet normal -1.82281669770937e-31 -5.967655100493984e-33 1.0
  outer loop
    vertex 39.14213562373095 39.14213562373095 23.500000000000004
    vertex 30.999999999999993 32.97835359276174 23.500000000000004
    vertex 31.65395829252706 32.464907168968026 23.500000000000004
  endloop
endfacet
facet normal -1.82281669770937e-31 -5.967655100493984e-33 1.0
  outer loop
    vertex 39.14213562373095 39.14213562373095 23.500000000000004
    vertex 31.65395829252706 32.464907168968026 23.500000000000004
    vertex 33.35929030705346 30.48837549393278 23.500000000000004
  endloop
endfacet
facet normal -1.82281669770937e-31 -5.967655100493984e-33 1.0
  outer loop
    vertex 39.14213562373095 39.14213562373095 23.500000000000004
    vertex 33.35929030705346 30.48837549393278 23.500000000000004
    vertex 34.494950501534575 28.137820098955356 23.500000000000004
  endloop
endfacet
facet normal -1.82281669770937e-31 -5.967655100493984e-33 1.0
  outer loop
    vertex 39.14213562373095 39.14213562373095 23.500000000000004
    vertex 34.494950501534575 28.137820098955356 23.500000000000004
    vertex 34.983545510483715 25.57342744972702 23.500000000000004
  endloop
endfacet
facet normal -1.82281669770937e-31 -5.967655100493984e-33 1.0
  outer loop
    vertex 39.14213562373095 39.14213562373095 23.500000000000004
    vertex 34.983545510483715 25.57342744972702 23.500000000000004
    vertex 39.14213562373095 10.857864376269053 23.500000000000004
  endloop
endfacet
facet normal -1.82281669770937e-31 -5.967655100493984e-33 1.0
  outer loop
    vertex 10.85786437626905 39.14213562373095 23.500000000000004
    vertex 15.208221608517576 27.030043332566542 23.500000000000004
    vertex 19.182147789111784 39.14213562373095 23.500000000000004
  endloop
endfacet
facet normal -1.82281669770937e-31 -5.967655100493984e-33 1.0
  outer loop
    vertex 15.208221608517576 27.030043332566542 23.500000000000004
    vertex 10.85786437626905 39.14213562373095 23.500000000000004
    vertex 15.016454489516281 24.42657255027297 23.500000000000004
  endloop
endfacet
facet normal -1.82281669770937e-31 -5.967655100493984e-33 1.0
  outer loop
    vertex 15.208221608517576 27.030043332566542 23.500000000000004
    vertex 15.016454489516281 24.42657255027297 23.500000000000004
    vertex 15.169179540704324 26.500000000000007 23.500000000000004
  endloop
endfacet
facet normal -1.82281669770937e-31 -5.967655100493984e-33 1.0
  outer loop
    vertex 19.182147789111784 39.14213562373095 23.500000000000004
    vertex 15.208221608517576 27.030043332566542 23.500000000000004
    vertex 16.067282243219505 29.49517001655093 23.500000000000004
  endloop
endfacet
facet normal -1.82281669770937e-31 -5.967655100493984e-33 1.0
  outer loop
    vertex 19.182147789111784 39.14213562373095 23.500000000000004
    vertex 16.067282243219505 29.49517001655093 23.500000000000004
    vertex 17.535092831031964 31.653958292527054 23.500000000000004
  endloop
endfacet
facet normal -1.82281669770937e-31 -5.967655100493984e-33 1.0
  outer loop
    vertex 19.182147789111784 39.14213562373095 23.500000000000004
    vertex 17.535092831031964 31.653958292527054 23.500000000000004
    vertex 19.182147789111784 33.07502104865408 23.500000000000004
  endloop
endfacet
facet normal -0.6653958292527048 -0.7464907168968046 2.481946838835355e-19
  outer loop
    vertex 31.65395829252706 32.464907168968026 23.500000000000004
    vertex 33.35929030705346 30.48837549393278 5.5
    vertex 33.35929030705346 30.48837549393278 23.500000000000004
  endloop
endfacet
facet normal -0.8359290307053467 -0.5488375493932784 2.7069908919239386e-32
  outer loop
    vertex 33.35929030705346 30.48837549393278 5.5
    vertex 31.65395829252706 32.464907168968026 23.500000000000004
    vertex 31.65395829252706 32.464907168968026 5.5
  endloop
endfacet
facet normal -0.6653958292527048 -0.7464907168968046 2.481946838835355e-19
  outer loop
    vertex 31.65395829252706 32.464907168968026 23.500000000000004
    vertex 30.999999999999993 32.90954869145589 5.5
    vertex 31.65395829252706 32.464907168968026 5.5
  endloop
endfacet
facet normal -0.5622666848880018 -0.8269559692420488 4.921426879132289e-19
  outer loop
    vertex 30.999999999999993 32.90954869145589 5.5
    vertex 31.65395829252706 32.464907168968026 23.500000000000004
    vertex 30.999999999999993 32.90954869145589 13.5
  endloop
endfacet
facet normal -0.5622666848880018 -0.8269559692420488 4.921426879132289e-19
  outer loop
    vertex 30.999999999999993 32.90954869145589 13.5
    vertex 31.65395829252706 32.464907168968026 23.500000000000004
    vertex 30.999999999999993 32.90954869145589 23.500000000000004
  endloop
endfacet
facet normal -1.0 0.0 0.0
  outer loop
    vertex 30.999999999999993 32.97835359276174 23.500000000000004
    vertex 30.999999999999993 32.90954869145589 13.5
    vertex 30.999999999999993 32.90954869145589 23.500000000000004
  endloop
endfacet
facet normal -1.0 0.0 0.0
  outer loop
    vertex 30.999999999999993 32.90954869145589 13.5
    vertex 30.999999999999993 32.97835359276174 23.500000000000004
    vertex 30.999999999999993 32.97835359276174 13.5
  endloop
endfacet
endsolid switch-base
