solid ascii
  facet normal 7.071068e-001 -7.071068e-001 0.000000e+000
    outer loop
      vertex   -5.500000e+001 4.800000e+001 1.000000e+001
      vertex   -5.500000e+001 4.800000e+001 1.000000e+000
      vertex   -5.400000e+001 4.900000e+001 1.100000e+001
    endloop
  endfacet
  facet normal 7.071068e-001 -7.071068e-001 0.000000e+000
    outer loop
      vertex   -5.400000e+001 4.900000e+001 1.100000e+001
      vertex   -5.500000e+001 4.800000e+001 1.000000e+000
      vertex   -5.400000e+001 4.900000e+001 0.000000e+000
    endloop
  endfacet
  facet normal 7.071068e-001 -3.140185e-016 -7.071068e-001
    outer loop
      vertex   -5.400000e+001 4.900000e+001 1.100000e+001
      vertex   -5.400000e+001 4.100000e+001 1.100000e+001
      vertex   -5.500000e+001 4.800000e+001 1.000000e+001
    endloop
  endfacet
  facet normal 7.071068e-001 0.000000e+000 -7.071068e-001
    outer loop
      vertex   -5.500000e+001 4.800000e+001 1.000000e+001
      vertex   -5.400000e+001 4.100000e+001 1.100000e+001
      vertex   -5.500000e+001 4.200000e+001 1.000000e+001
    endloop
  endfacet
  facet normal 7.071068e-001 7.071068e-001 -0.000000e+000
    outer loop
      vertex   -5.500000e+001 4.200000e+001 1.000000e+000
      vertex   -5.500000e+001 4.200000e+001 1.000000e+001
      vertex   -5.400000e+001 4.100000e+001 1.776357e-014
    endloop
  endfacet
  facet normal 7.071068e-001 7.071068e-001 0.000000e+000
    outer loop
      vertex   -5.400000e+001 4.100000e+001 1.776357e-014
      vertex   -5.500000e+001 4.200000e+001 1.000000e+001
      vertex   -5.400000e+001 4.100000e+001 1.100000e+001
    endloop
  endfacet
  facet normal 7.071068e-001 1.570092e-015 7.071068e-001
    outer loop
      vertex   -5.400000e+001 4.900000e+001 0.000000e+000
      vertex   -5.500000e+001 4.800000e+001 1.000000e+000
      vertex   -5.400000e+001 4.100000e+001 1.776357e-014
    endloop
  endfacet
  facet normal 7.071068e-001 0.000000e+000 7.071068e-001
    outer loop
      vertex   -5.400000e+001 4.100000e+001 1.776357e-014
      vertex   -5.500000e+001 4.800000e+001 1.000000e+000
      vertex   -5.500000e+001 4.200000e+001 1.000000e+000
    endloop
  endfacet
  facet normal 0.000000e+000 -0.000000e+000 1.000000e+000
    outer loop
      vertex   -5.500000e+001 4.200000e+001 1.000000e+000
      vertex   -5.500000e+001 4.800000e+001 1.000000e+000
      vertex   -6.300000e+001 4.200000e+001 1.000000e+000
    endloop
  endfacet
  facet normal 0.000000e+000 -0.000000e+000 1.000000e+000
    outer loop
      vertex   -6.300000e+001 4.200000e+001 1.000000e+000
      vertex   -5.500000e+001 4.800000e+001 1.000000e+000
      vertex   -6.300000e+001 4.800000e+001 1.000000e+000
    endloop
  endfacet
  facet normal -0.000000e+000 -1.000000e+000 0.000000e+000
    outer loop
      vertex   -5.500000e+001 4.800000e+001 1.000000e+000
      vertex   -5.500000e+001 4.800000e+001 1.000000e+001
      vertex   -6.300000e+001 4.800000e+001 1.000000e+000
    endloop
  endfacet
  facet normal 0.000000e+000 -1.000000e+000 0.000000e+000
    outer loop
      vertex   -6.300000e+001 4.800000e+001 1.000000e+000
      vertex   -5.500000e+001 4.800000e+001 1.000000e+001
      vertex   -6.300000e+001 4.800000e+001 1.000000e+001
    endloop
  endfacet
  facet normal 1.000000e+000 -0.000000e+000 0.000000e+000
    outer loop
      vertex   -5.400000e+001 4.900000e+001 1.100000e+001
      vertex   -5.400000e+001 4.900000e+001 0.000000e+000
      vertex   -5.400000e+001 4.950000e+001 1.100000e+001
    endloop
  endfacet
  facet normal 1.000000e+000 -0.000000e+000 0.000000e+000
    outer loop
      vertex   -5.400000e+001 4.950000e+001 1.100000e+001
      vertex   -5.400000e+001 4.900000e+001 0.000000e+000
      vertex   -5.400000e+001 4.950000e+001 0.000000e+000
    endloop
  endfacet
  facet normal 0.000000e+000 1.000000e+000 0.000000e+000
    outer loop
      vertex   -5.500000e+001 4.200000e+001 1.000000e+001
      vertex   -5.500000e+001 4.200000e+001 1.000000e+000
      vertex   -6.300000e+001 4.200000e+001 1.000000e+001
    endloop
  endfacet
  facet normal 0.000000e+000 1.000000e+000 0.000000e+000
    outer loop
      vertex   -6.300000e+001 4.200000e+001 1.000000e+001
      vertex   -5.500000e+001 4.200000e+001 1.000000e+000
      vertex   -6.300000e+001 4.200000e+001 1.000000e+000
    endloop
  endfacet
  facet normal -0.000000e+000 -0.000000e+000 -1.000000e+000
    outer loop
      vertex   -5.500000e+001 4.800000e+001 1.000000e+001
      vertex   -5.500000e+001 4.200000e+001 1.000000e+001
      vertex   -6.300000e+001 4.800000e+001 1.000000e+001
    endloop
  endfacet
  facet normal -0.000000e+000 -0.000000e+000 -1.000000e+000
    outer loop
      vertex   -6.300000e+001 4.800000e+001 1.000000e+001
      vertex   -5.500000e+001 4.200000e+001 1.000000e+001
      vertex   -6.300000e+001 4.200000e+001 1.000000e+001
    endloop
  endfacet
  facet normal 0.000000e+000 -0.000000e+000 1.000000e+000
    outer loop
      vertex   -5.400000e+001 4.050000e+001 1.100000e+001
      vertex   -5.400000e+001 4.100000e+001 1.100000e+001
      vertex   -6.300000e+001 4.050000e+001 1.100000e+001
    endloop
  endfacet
  facet normal -2.467162e-017 4.440892e-016 1.000000e+000
    outer loop
      vertex   -6.300000e+001 4.050000e+001 1.100000e+001
      vertex   -5.400000e+001 4.100000e+001 1.100000e+001
      vertex   -5.400000e+001 4.900000e+001 1.100000e+001
    endloop
  endfacet
  facet normal 0.000000e+000 -7.105427e-015 1.000000e+000
    outer loop
      vertex   -6.300000e+001 4.950000e+001 1.100000e+001
      vertex   -5.400000e+001 4.900000e+001 1.100000e+001
      vertex   -5.400000e+001 4.950000e+001 1.100000e+001
    endloop
  endfacet
  facet normal 3.947460e-016 0.000000e+000 1.000000e+000
    outer loop
      vertex   -6.300000e+001 4.950000e+001 1.100000e+001
      vertex   -6.300000e+001 4.050000e+001 1.100000e+001
      vertex   -5.400000e+001 4.900000e+001 1.100000e+001
    endloop
  endfacet
  facet normal -0.000000e+000 -0.000000e+000 -1.000000e+000
    outer loop
      vertex   -5.400000e+001 4.950000e+001 0.000000e+000
      vertex   -5.400000e+001 4.900000e+001 0.000000e+000
      vertex   -6.300000e+001 4.950000e+001 0.000000e+000
    endloop
  endfacet
  facet normal 0.000000e+000 -0.000000e+000 -1.000000e+000
    outer loop
      vertex   -6.300000e+001 4.950000e+001 0.000000e+000
      vertex   -5.400000e+001 4.900000e+001 0.000000e+000
      vertex   -6.300000e+001 4.050000e+001 0.000000e+000
    endloop
  endfacet
  facet normal 2.097088e-015 -2.220446e-015 -1.000000e+000
    outer loop
      vertex   -6.300000e+001 4.050000e+001 0.000000e+000
      vertex   -5.400000e+001 4.900000e+001 0.000000e+000
      vertex   -5.400000e+001 4.100000e+001 1.776357e-014
    endloop
  endfacet
  facet normal 0.000000e+000 3.552714e-014 -1.000000e+000
    outer loop
      vertex   -5.400000e+001 4.050000e+001 0.000000e+000
      vertex   -6.300000e+001 4.050000e+001 0.000000e+000
      vertex   -5.400000e+001 4.100000e+001 1.776357e-014
    endloop
  endfacet
  facet normal 0.000000e+000 -1.000000e+000 0.000000e+000
    outer loop
      vertex   -6.300000e+001 4.050000e+001 1.100000e+001
      vertex   -6.300000e+001 4.050000e+001 0.000000e+000
      vertex   -5.400000e+001 4.050000e+001 1.100000e+001
    endloop
  endfacet
  facet normal 0.000000e+000 -1.000000e+000 -0.000000e+000
    outer loop
      vertex   -5.400000e+001 4.050000e+001 1.100000e+001
      vertex   -6.300000e+001 4.050000e+001 0.000000e+000
      vertex   -5.400000e+001 4.050000e+001 0.000000e+000
    endloop
  endfacet
  facet normal -1.000000e+000 -0.000000e+000 -0.000000e+000
    outer loop
      vertex   -6.300000e+001 4.800000e+001 1.000000e+001
      vertex   -6.300000e+001 4.950000e+001 0.000000e+000
      vertex   -6.300000e+001 4.800000e+001 1.000000e+000
    endloop
  endfacet
  facet normal -1.000000e+000 0.000000e+000 0.000000e+000
    outer loop
      vertex   -6.300000e+001 4.800000e+001 1.000000e+001
      vertex   -6.300000e+001 4.950000e+001 1.100000e+001
      vertex   -6.300000e+001 4.950000e+001 0.000000e+000
    endloop
  endfacet
  facet normal -1.000000e+000 0.000000e+000 0.000000e+000
    outer loop
      vertex   -6.300000e+001 4.800000e+001 1.000000e+001
      vertex   -6.300000e+001 4.050000e+001 1.100000e+001
      vertex   -6.300000e+001 4.950000e+001 1.100000e+001
    endloop
  endfacet
  facet normal -1.000000e+000 0.000000e+000 0.000000e+000
    outer loop
      vertex   -6.300000e+001 4.800000e+001 1.000000e+001
      vertex   -6.300000e+001 4.200000e+001 1.000000e+001
      vertex   -6.300000e+001 4.050000e+001 1.100000e+001
    endloop
  endfacet
  facet normal -1.000000e+000 0.000000e+000 0.000000e+000
    outer loop
      vertex   -6.300000e+001 4.050000e+001 1.100000e+001
      vertex   -6.300000e+001 4.200000e+001 1.000000e+001
      vertex   -6.300000e+001 4.200000e+001 1.000000e+000
    endloop
  endfacet
  facet normal -1.000000e+000 0.000000e+000 0.000000e+000
    outer loop
      vertex   -6.300000e+001 4.050000e+001 0.000000e+000
      vertex   -6.300000e+001 4.200000e+001 1.000000e+000
      vertex   -6.300000e+001 4.800000e+001 1.000000e+000
    endloop
  endfacet
  facet normal -1.000000e+000 0.000000e+000 0.000000e+000
    outer loop
      vertex   -6.300000e+001 4.950000e+001 0.000000e+000
      vertex   -6.300000e+001 4.050000e+001 0.000000e+000
      vertex   -6.300000e+001 4.800000e+001 1.000000e+000
    endloop
  endfacet
  facet normal -1.000000e+000 0.000000e+000 -0.000000e+000
    outer loop
      vertex   -6.300000e+001 4.050000e+001 1.100000e+001
      vertex   -6.300000e+001 4.200000e+001 1.000000e+000
      vertex   -6.300000e+001 4.050000e+001 0.000000e+000
    endloop
  endfacet
  facet normal 0.000000e+000 1.000000e+000 0.000000e+000
    outer loop
      vertex   -5.400000e+001 4.950000e+001 1.100000e+001
      vertex   -5.400000e+001 4.950000e+001 0.000000e+000
      vertex   -6.300000e+001 4.950000e+001 1.100000e+001
    endloop
  endfacet
  facet normal 0.000000e+000 1.000000e+000 0.000000e+000
    outer loop
      vertex   -6.300000e+001 4.950000e+001 1.100000e+001
      vertex   -5.400000e+001 4.950000e+001 0.000000e+000
      vertex   -6.300000e+001 4.950000e+001 0.000000e+000
    endloop
  endfacet
  facet normal 1.000000e+000 0.000000e+000 -0.000000e+000
    outer loop
      vertex   -5.400000e+001 4.100000e+001 1.776357e-014
      vertex   -5.400000e+001 4.100000e+001 1.100000e+001
      vertex   -5.400000e+001 4.050000e+001 0.000000e+000
    endloop
  endfacet
  facet normal 1.000000e+000 0.000000e+000 -0.000000e+000
    outer loop
      vertex   -5.400000e+001 4.050000e+001 0.000000e+000
      vertex   -5.400000e+001 4.100000e+001 1.100000e+001
      vertex   -5.400000e+001 4.050000e+001 1.100000e+001
    endloop
  endfacet
endsolid
